<?xml version="1.0" encoding="utf-8"?>
<svg xmlns="http://www.w3.org/2000/svg" style="margin: auto; background: none; display: block; shape-rendering: auto;" width="280" height="250" preserveAspectRatio="xMidYMid">
<style type="text/css">
  text {
    text-anchor: middle; font-size: 48px; opacity: 0;
  }
</style>
<g style="transform-origin: 140px 125px; transform: scale(0.6);">
<g transform="translate(140,125)">
  <g transform="translate(0,0)"><g class="path" style="transform: scale(0.91); transform-origin: -123.16px -8.11938px; animation: 1s linear -0.609231s infinite normal forwards running breath-788382a9-d4d6-401e-b1eb-e407704c7685;"><path d="M5.76-14.40L5.76-14.40L6.24-28.56L0.88-28.56L0.88-28.56Q0.24-28.56 0.24-29.04L0.24-29.04L0.24-29.04Q0.24-30.48 1.60-32.36L1.60-32.36L1.60-32.36Q2.96-34.24 4.56-34.24L4.56-34.24L6.24-34.24L6.24-34.24Q6.08-40.48 5.92-43.20L5.92-43.20L5.92-43.20Q5.60-48.08 4.32-50.72L4.32-50.72L3.92-51.52L3.92-51.52Q3.60-51.92 3.60-52.48L3.60-52.48L3.60-52.48Q3.60-53.04 4.48-53.44L4.48-53.44L4.48-53.44Q5.36-53.84 7.08-54.40L7.08-54.40L7.08-54.40Q8.80-54.96 14.40-55.88L14.40-55.88L14.40-55.88Q20-56.80 26.60-56.80L26.60-56.80L26.60-56.80Q33.20-56.80 33.80-55.84L33.80-55.84L33.80-55.84Q34.40-54.88 34.40-52.84L34.40-52.84L34.40-52.84Q34.40-50.80 33.84-50.80L33.84-50.80L33.84-50.80Q33.76-50.80 33.28-50.88L33.28-50.88L33.28-50.88Q32-51.20 29.36-51.20L29.36-51.20L29.36-51.20Q26.72-51.20 23.68-50.72L23.68-50.72L23.68-50.72Q20.64-50.24 19.04-49.76L19.04-49.76L17.52-49.20L17.52-49.20Q16.88-49.04 16.56-48.08L16.56-48.08L16.56-48.08Q15.92-43.36 15.92-34.24L15.92-34.24L28.88-34.24L28.88-34.24Q29.60-34.24 29.60-33.76L29.60-33.76L29.60-33.76Q29.60-32.32 28.32-30.40L28.32-30.40L28.32-30.40Q27.04-28.48 25.44-28.48L25.44-28.48L15.92-28.56L16.48-4.56L16.48-4.56Q16.48-2.80 15.92-2L15.92-2L15.92-2Q14.40 0 10.76 1L10.76 1L10.76 1Q7.12 2 4.72 2L4.72 2L4.72 2Q4.08 2 4.08 1.20L4.08 1.20L4.08 1.20Q4.08 0.80 4.16 0.56L4.16 0.56L4.16 0.56Q5.12-0.80 5.76-14.40" fill="#0077b5" stroke="none" stroke-width="none" transform="translate(-140.48001098632812,19.280616901104263)" style="fill: rgb(0, 119, 181);"></path></g><g class="path" style="transform: scale(0.91); transform-origin: -100.32px -26.8394px; animation: 1s linear -0.558462s infinite normal forwards running breath-788382a9-d4d6-401e-b1eb-e407704c7685;"><path d="M41.60-42.80L41.60-42.80L39.68-42.88L39.68-42.88Q37.52-42.88 36.88-41.84L36.88-41.84L36.88-41.84Q36.72-41.60 36.48-41.60L36.48-41.60L36.48-41.60Q35.44-41.60 35.44-45.16L35.44-45.16L35.44-45.16Q35.44-48.72 36.52-49.68L36.52-49.68L36.52-49.68Q37.60-50.64 40.28-50.64L40.28-50.64L40.28-50.64Q42.96-50.64 43.92-49.72L43.92-49.72L43.92-49.72Q44.88-48.80 44.88-46.64L44.88-46.64L44.88-46.64Q44.88-44.48 44.16-43.64L44.16-43.64L44.16-43.64Q43.44-42.80 41.60-42.80" fill="#0077b5" stroke="none" stroke-width="none" transform="translate(-140.48001098632812,19.280616901104263)" style="fill: rgb(255, 255, 255);"></path></g><g class="path" style="transform: scale(0.91); transform-origin: -101.36px 2.12062px; animation: 1s linear -0.507692s infinite normal forwards running breath-788382a9-d4d6-401e-b1eb-e407704c7685;"><path d="M35.20-2.40L35.20-2.40L36.08-21.04L36.08-21.04Q36.08-27.68 34.56-30.08L34.56-30.08L34.56-30.08Q34.08-30.88 33.44-31.28L33.44-31.28L33.44-31.28Q32.96-31.44 32.96-31.92L32.96-31.92L32.96-31.92Q32.96-33.36 37.04-34.72L37.04-34.72L37.04-34.72Q41.12-36.08 43-36.08L43-36.08L43-36.08Q44.88-36.08 44.96-35.12L44.96-35.12L44.96-35.12Q44.96-33.52 44.52-26.04L44.52-26.04L44.52-26.04Q44.08-18.56 44.08-10.32L44.08-10.32L44.08-10.32Q44.08-2.08 45.04-0.08L45.04-0.08L45.04-0.08Q45.28 0.32 45.28 0.72L45.28 0.72L45.28 0.72Q45.28 1.76 42.24 1.76L42.24 1.76L42.24 1.76Q39.20 1.76 36 0.16L36 0.16L36 0.16Q35.20-0.24 35.20-2.40" fill="#0077b5" stroke="none" stroke-width="none" transform="translate(-140.48001098632812,19.280616901104263)" style="fill: rgb(0, 119, 181);"></path></g><g class="path" style="transform: scale(0.91); transform-origin: -77.92px 1.72062px; animation: 1s linear -0.456923s infinite normal forwards running breath-788382a9-d4d6-401e-b1eb-e407704c7685;"><path d="M74.96-27.52L74.56-21.44L74.88-18.64L74.88-18.64Q74.88-17.12 72-17.12L72-17.12L72-17.12Q66.16-17.12 66.16-21.52L66.16-21.52L66.16-21.52Q66.16-22.56 66.72-24.40L66.72-24.40L66.72-24.40Q67.28-26.24 67.28-27.60L67.28-27.60L67.28-27.60Q67.28-28.96 66.48-29.96L66.48-29.96L66.48-29.96Q65.68-30.96 64.16-30.96L64.16-30.96L64.16-30.96Q62.64-30.96 61.56-29.88L61.56-29.88L61.56-29.88Q60.48-28.80 60.24-27.68L60.24-27.68L59.92-26.56L59.92-26.56Q59.44-24.08 59.44-18.28L59.44-18.28L59.44-18.28Q59.44-12.48 59.60-9.16L59.60-9.16L59.60-9.16Q59.76-5.84 59.92-4.60L59.92-4.60L59.92-4.60Q60.08-3.36 60.08-3.12L60.08-3.12L60.08-3.12Q60.08-1.12 57.60 0.12L57.60 0.12L57.60 0.12Q55.12 1.36 52.64 1.36L52.64 1.36L52.64 1.36Q50.16 1.36 50.16 0.32L50.16 0.32L50.56-2.16L50.56-2.16Q51.68-9.12 51.68-20.32L51.68-20.32L51.68-20.32Q51.68-31.52 50.88-35.52L50.88-35.52L50.88-35.52Q50.88-36.48 52.56-36.48L52.56-36.48L52.56-36.48Q56.88-36.48 58.32-33.52L58.32-33.52L58.32-33.52Q58.40-33.20 58.60-33.20L58.60-33.20L58.60-33.20Q58.80-33.20 59.68-33.92L59.68-33.92L59.68-33.92Q62.32-36.08 65.92-36.08L65.92-36.08L65.92-36.08Q68.16-36.08 70.40-35.20L70.40-35.20L70.40-35.20Q74.96-33.36 74.96-27.52L74.96-27.52" fill="#0077b5" stroke="none" stroke-width="none" transform="translate(-140.48001098632812,19.280616901104263)" style="fill: rgb(255, 255, 255);"></path></g><g class="path" style="transform: scale(0.91); transform-origin: -52px 2.00062px; animation: 1s linear -0.406154s infinite normal forwards running breath-788382a9-d4d6-401e-b1eb-e407704c7685;"><path d="M101.44-10.96L101.44-10.96L101.44-10.96Q101.44-7.52 100.12-4.96L100.12-4.96L100.12-4.96Q98.80-2.40 97.12-1.20L97.12-1.20L97.12-1.20Q95.44 0 93.12 0.72L93.12 0.72L93.12 0.72Q90.08 1.68 87.60 1.68L87.60 1.68L87.60 1.68Q82.40 1.68 78.96-0.36L78.96-0.36L78.96-0.36Q75.52-2.40 75.52-6.88L75.52-6.88L75.52-6.88Q75.52-9.52 76.96-11.20L76.96-11.20L76.96-11.20Q79.20-13.68 82.32-13.68L82.32-13.68L82.32-13.68Q83.28-13.68 83.28-12.80L83.28-12.80L83.28-12.80Q83.28-12.72 82.92-11.56L82.92-11.56L82.92-11.56Q82.56-10.40 82.56-8.64L82.56-8.64L82.56-8.64Q82.56-6.88 83.96-5.52L83.96-5.52L83.96-5.52Q85.36-4.16 87.36-4.16L87.36-4.16L87.36-4.16Q89.36-4.16 90.56-4.84L90.56-4.84L90.56-4.84Q91.76-5.52 92.24-6.56L92.24-6.56L92.24-6.56Q92.96-8 92.96-9.28L92.96-9.28L92.96-9.28Q92.96-11.60 90.64-13.28L90.64-13.28L90.64-13.28Q88.32-14.96 85.52-15.92L85.52-15.92L85.52-15.92Q82.72-16.88 80.40-19.12L80.40-19.12L80.40-19.12Q78.08-21.36 78.08-24.72L78.08-24.72L78.08-24.72Q78.08-30.48 81.72-33.36L81.72-33.36L81.72-33.36Q85.36-36.24 91.60-36.24L91.60-36.24L91.60-36.24Q94.32-36.24 97.32-35.48L97.32-35.48L97.32-35.48Q100.32-34.72 100.32-32.92L100.32-32.92L100.32-32.92Q100.32-31.12 99.72-29.60L99.72-29.60L99.72-29.60Q99.12-28.08 98.24-28.08L98.24-28.08L98.24-28.08Q97.76-28.08 97.60-28.44L97.60-28.44L97.60-28.44Q97.44-28.80 97.04-29.28L97.04-29.28L97.04-29.28Q96.64-29.76 95.12-30.52L95.12-30.52L95.12-30.52Q93.60-31.28 92.52-31.28L92.52-31.28L92.52-31.28Q91.44-31.28 91.08-31.24L91.08-31.24L91.08-31.24Q90.72-31.20 89.84-31L89.84-31L89.84-31Q88.96-30.80 88.24-30.40L88.24-30.40L88.24-30.40Q86.40-29.36 86.40-27.36L86.40-27.36L86.40-27.36Q86.40-26.08 86.96-25.48L86.96-25.48L86.96-25.48Q87.52-24.88 87.84-24.56L87.84-24.56L87.84-24.56Q88.16-24.24 88.96-23.80L88.96-23.80L88.96-23.80Q89.76-23.36 90.08-23.20L90.08-23.20L90.08-23.20Q90.40-23.04 91.52-22.52L91.52-22.52L91.52-22.52Q92.64-22 92.96-21.84L92.96-21.84L92.96-21.84Q101.44-17.84 101.44-10.96" fill="#0077b5" stroke="none" stroke-width="none" transform="translate(-140.48001098632812,19.280616901104263)" style="fill: rgb(0, 119, 181);"></path></g><g class="path" style="transform: scale(0.91); transform-origin: -28.08px -3.07938px; animation: 1s linear -0.355385s infinite normal forwards running breath-788382a9-d4d6-401e-b1eb-e407704c7685;"><path d="M103.44-31.20L103.44-31.20L103.68-34.40L103.68-34.40Q103.76-35.12 104.80-35.12L104.80-35.12L107.60-35.12L107.28-41.52L107.28-41.84L107.28-41.84Q107.28-43.68 110.08-45.36L110.08-45.36L110.08-45.36Q112.88-47.04 115.20-47.04L115.20-47.04L115.20-47.04Q115.92-47.04 115.92-46.40L115.92-46.40L115.92-46.32L115.92-46.32Q115.60-44.16 115.28-35.20L115.28-35.20L115.28-35.20Q118.80-35.20 119.76-35.36L119.76-35.36L119.76-35.36Q120.72-35.52 120.80-35.52L120.80-35.52L120.80-35.52Q121.36-35.52 121.36-34.56L121.36-34.56L121.36-34.56Q121.36-33.60 120.48-32.12L120.48-32.12L120.48-32.12Q119.60-30.64 118.56-30.56L118.56-30.56L115.20-30.56L115.20-30.56Q115.12-27.84 115.12-21.40L115.12-21.40L115.12-21.40Q115.12-14.96 115.24-10.80L115.24-10.80L115.24-10.80Q115.36-6.64 115.52-4.52L115.52-4.52L115.52-4.52Q115.68-2.40 115.88-1.12L115.88-1.12L115.88-1.12Q116.08 0.16 116.20 0.72L116.20 0.72L116.20 0.72Q116.32 1.28 116.32 1.44L116.32 1.44L116.32 1.44Q116.32 2.24 115.28 2.32L115.28 2.32L115.28 2.32Q112.16 2.32 109.08 1.44L109.08 1.44L109.08 1.44Q106.00 0.56 106.00-1.60L106.00-1.60L106.00-1.60Q107.68-15.04 107.68-30.48L107.68-30.48L107.68-30.48Q105.52-30.48 104.40-30.32L104.40-30.32L104.32-30.32L104.32-30.32Q103.60-30.32 103.44-31.20" fill="#0077b5" stroke="none" stroke-width="none" transform="translate(-140.48001098632812,19.280616901104263)" style="fill: rgb(255, 255, 255);"></path></g><g class="path" style="transform: scale(0.91); transform-origin: 4.23998px -3.07938px; animation: 1s linear -0.304615s infinite normal forwards running breath-788382a9-d4d6-401e-b1eb-e407704c7685;"><path d="M135.76-31.20L135.76-31.20L136-34.40L136-34.40Q136.08-35.12 137.12-35.12L137.12-35.12L139.92-35.12L139.60-41.52L139.60-41.84L139.60-41.84Q139.60-43.68 142.40-45.36L142.40-45.36L142.40-45.36Q145.20-47.04 147.52-47.04L147.52-47.04L147.52-47.04Q148.24-47.04 148.24-46.40L148.24-46.40L148.24-46.32L148.24-46.32Q147.92-44.16 147.60-35.20L147.60-35.20L147.60-35.20Q151.12-35.20 152.08-35.36L152.08-35.36L152.08-35.36Q153.04-35.52 153.12-35.52L153.12-35.52L153.12-35.52Q153.68-35.52 153.68-34.56L153.68-34.56L153.68-34.56Q153.68-33.60 152.80-32.12L152.80-32.12L152.80-32.12Q151.92-30.64 150.88-30.56L150.88-30.56L147.52-30.56L147.52-30.56Q147.44-27.84 147.44-21.40L147.44-21.40L147.44-21.40Q147.44-14.96 147.56-10.80L147.56-10.80L147.56-10.80Q147.68-6.64 147.84-4.52L147.84-4.52L147.84-4.52Q148-2.40 148.20-1.12L148.20-1.12L148.20-1.12Q148.40 0.16 148.52 0.72L148.52 0.72L148.52 0.72Q148.64 1.28 148.64 1.44L148.64 1.44L148.64 1.44Q148.64 2.24 147.60 2.32L147.60 2.32L147.60 2.32Q144.48 2.32 141.40 1.44L141.40 1.44L141.40 1.44Q138.32 0.56 138.32-1.60L138.32-1.60L138.32-1.60Q140-15.04 140-30.48L140-30.48L140-30.48Q137.84-30.48 136.72-30.32L136.72-30.32L136.64-30.32L136.64-30.32Q135.92-30.32 135.76-31.20" fill="#0077b5" stroke="none" stroke-width="none" transform="translate(-140.48001098632812,19.280616901104263)" style="fill: rgb(0, 119, 181);"></path></g><g class="path" style="transform: scale(0.91); transform-origin: 21.2px -26.8394px; animation: 1s linear -0.253846s infinite normal forwards running breath-788382a9-d4d6-401e-b1eb-e407704c7685;"><path d="M163.12-42.80L163.12-42.80L161.20-42.88L161.20-42.88Q159.04-42.88 158.40-41.84L158.40-41.84L158.40-41.84Q158.24-41.60 158.00-41.60L158.00-41.60L158.00-41.60Q156.96-41.60 156.96-45.16L156.96-45.16L156.96-45.16Q156.96-48.72 158.04-49.68L158.04-49.68L158.04-49.68Q159.12-50.64 161.80-50.64L161.80-50.64L161.80-50.64Q164.48-50.64 165.44-49.72L165.44-49.72L165.44-49.72Q166.40-48.80 166.40-46.64L166.40-46.64L166.40-46.64Q166.40-44.48 165.68-43.64L165.68-43.64L165.68-43.64Q164.96-42.80 163.12-42.80" fill="#0077b5" stroke="none" stroke-width="none" transform="translate(-140.48001098632812,19.280616901104263)" style="fill: rgb(255, 255, 255);"></path></g><g class="path" style="transform: scale(0.91); transform-origin: 20.16px 2.12062px; animation: 1s linear -0.203077s infinite normal forwards running breath-788382a9-d4d6-401e-b1eb-e407704c7685;"><path d="M156.72-2.40L156.72-2.40L157.60-21.04L157.60-21.04Q157.60-27.68 156.08-30.08L156.08-30.08L156.08-30.08Q155.60-30.88 154.96-31.28L154.96-31.28L154.96-31.28Q154.48-31.44 154.48-31.92L154.48-31.92L154.48-31.92Q154.48-33.36 158.56-34.72L158.56-34.72L158.56-34.72Q162.64-36.08 164.52-36.08L164.52-36.08L164.52-36.08Q166.40-36.08 166.48-35.12L166.48-35.12L166.48-35.12Q166.48-33.52 166.04-26.04L166.04-26.04L166.04-26.04Q165.60-18.56 165.60-10.32L165.60-10.32L165.60-10.32Q165.60-2.08 166.56-0.08L166.56-0.08L166.56-0.08Q166.80 0.32 166.80 0.72L166.80 0.72L166.80 0.72Q166.80 1.76 163.76 1.76L163.76 1.76L163.76 1.76Q160.72 1.76 157.52 0.16L157.52 0.16L157.52 0.16Q156.72-0.24 156.72-2.40" fill="#0077b5" stroke="none" stroke-width="none" transform="translate(-140.48001098632812,19.280616901104263)" style="fill: rgb(0, 119, 181);"></path></g><g class="path" style="transform: scale(0.91); transform-origin: 54.56px 1.84062px; animation: 1s linear -0.152308s infinite normal forwards running breath-788382a9-d4d6-401e-b1eb-e407704c7685;"><path d="M189.76 0.48L189.76 0.48L189.76 0.48Q190.88-5.12 190.88-15.24L190.88-15.24L190.88-15.24Q190.88-25.36 190.80-27.20L190.80-27.20L190.80-27.20Q190.72-29.04 189.68-30.16L189.68-30.16L189.68-30.16Q188.64-31.28 187.88-31.44L187.88-31.44L187.88-31.44Q187.12-31.60 185.76-31.60L185.76-31.60L185.76-31.60Q184.40-31.60 183.12-30.36L183.12-30.36L183.12-30.36Q181.84-29.12 181.60-27.84L181.60-27.84L181.28-26.56L181.28-26.56Q181.04-24.16 181.04-15.92L181.04-15.92L181.04-15.92Q181.04-7.68 181.40-5.56L181.40-5.56L181.40-5.56Q181.76-3.44 181.76-2.72L181.76-2.72L181.76-2.72Q181.76-2 181.12-1.28L181.12-1.28L181.12-1.28Q178.40 1.60 173.44 1.60L173.44 1.60L173.44 1.60Q171.68 1.60 171.68 0.56L171.68 0.56L171.68 0.56Q173.28-9.04 173.28-23.92L173.28-23.92L173.28-23.92Q173.28-29.44 173.04-31.36L173.04-31.36L172.72-33.92L172.72-33.92Q172.64-34.80 172.40-35.84L172.40-35.84L172.40-35.84Q172.40-36.80 174.88-36.80L174.88-36.80L174.88-36.80Q178.56-36.80 179.76-34.08L179.76-34.08L179.76-34.08Q179.84-33.76 180.08-33.76L180.08-33.76L180.08-33.76Q180.32-33.76 181.20-34.40L181.20-34.40L181.20-34.40Q183.84-36.48 188.32-36.48L188.32-36.48L188.32-36.48Q190.88-36.48 193.36-35.52L193.36-35.52L193.36-35.52Q195.84-34.56 196.80-32.96L196.80-32.96L196.80-32.96Q196.88-32.80 197.04-32.80L197.04-32.80L197.04-32.80Q197.20-32.80 197.52-33.12L197.52-33.12L197.52-33.12Q200.88-36.48 206.24-36.48L206.24-36.48L206.24-36.48Q213.36-36.48 216.00-31.36L216.00-31.36L216.00-31.36Q216.96-29.36 216.96-26.32L216.96-26.32L216.96-26.32Q216.96-23.28 216.48-17.68L216.48-17.68L216.48-17.68Q216.00-12.08 216.00-9.12L216.00-9.12L216.00-9.12Q216.00-6.16 216.60-3.76L216.60-3.76L216.60-3.76Q217.20-1.36 217.80-0.32L217.80-0.32L217.80-0.32Q218.40 0.72 218.40 0.88L218.40 0.88L218.40 0.88Q218.40 1.92 216.16 1.92L216.16 1.92L216.16 1.92Q210.64 1.92 208.48-0.32L208.48-0.32L208.48-0.32Q206.32-2.56 206.32-6.20L206.32-6.20L206.32-6.20Q206.32-9.84 207.80-16.04L207.80-16.04L207.80-16.04Q209.28-22.24 209.28-25.36L209.28-25.36L209.28-25.36Q209.28-31.68 204.16-31.68L204.16-31.68L204.16-31.68Q202.00-31.68 200.72-30.40L200.72-30.40L200.72-30.40Q199.44-29.12 199.20-27.84L199.20-27.84L199.04-26.56L199.04-26.56Q198.72-22.88 198.72-17.68L198.72-17.68L198.72-17.68Q198.72-12.48 198.88-9.56L198.88-9.56L198.88-9.56Q199.04-6.64 199.20-5L199.20-5L199.20-5Q199.36-3.36 199.36-3.04L199.36-3.04L199.36-3.04Q199.36-0.80 196.56 0.40L196.56 0.40L196.56 0.40Q193.76 1.60 191.12 1.60L191.12 1.60L191.12 1.60Q189.76 1.60 189.76 0.48" fill="#0077b5" stroke="none" stroke-width="none" transform="translate(-140.48001098632812,19.280616901104263)" style="fill: rgb(255, 255, 255);"></path></g><g class="path" style="transform: scale(0.91); transform-origin: 93.08px 1.88062px; animation: 1s linear -0.101538s infinite normal forwards running breath-788382a9-d4d6-401e-b1eb-e407704c7685;"><path d="M228.64-20.32L228.64-20.32L228.72-18.32L228.72-18.32Q228.72-17.84 229.36-17.84L229.36-17.84L229.36-17.84Q231.92-18.08 233.84-19.16L233.84-19.16L233.84-19.16Q235.76-20.24 236.72-21.60L236.72-21.60L236.72-21.60Q238.64-24.56 238.80-26.72L238.80-26.72L238.88-27.68L238.88-27.68Q238.88-32 235.44-32L235.44-32L235.44-32Q232.88-32 231.28-29.76L231.28-29.76L231.28-29.76Q228.64-26.24 228.64-20.32zM246.08-9.68L246.08-9.68L246.08-9.68Q246.08-6.64 244.84-4.36L244.84-4.36L244.84-4.36Q243.60-2.08 242.04-1L242.04-1L242.04-1Q240.48 0.08 238.40 0.72L238.40 0.72L238.40 0.72Q235.76 1.52 233.36 1.52L233.36 1.52L233.36 1.52Q226.64 1.52 223.44-3.52L223.44-3.52L223.44-3.52Q220.24-8.56 220.24-16.36L220.24-16.36L220.24-16.36Q220.24-24.16 224.20-30.24L224.20-30.24L224.20-30.24Q228.16-36.32 236.08-36.32L236.08-36.32L236.08-36.32Q243.28-36.32 245.84-31.28L245.84-31.28L245.84-31.28Q246.88-29.36 246.88-27.64L246.88-27.64L246.88-27.64Q246.88-25.92 246.72-24.92L246.72-24.92L246.72-24.92Q246.56-23.92 245.60-21.92L245.60-21.92L245.60-21.92Q244.64-19.92 243.04-18.32L243.04-18.32L243.04-18.32Q241.44-16.72 238.00-15.28L238.00-15.28L238.00-15.28Q234.56-13.84 229.92-13.36L229.92-13.36L229.92-13.36Q229.28-13.36 229.28-12.80L229.28-12.80L229.28-12.80Q229.28-12.08 229.80-10.68L229.80-10.68L229.80-10.68Q230.32-9.28 230.96-8.32L230.96-8.32L230.96-8.32Q232.72-6.08 236.16-6.08L236.16-6.08L236.16-6.08Q239.60-6.08 242.00-8.32L242.00-8.32L242.00-8.32Q243.28-9.52 244.08-11.28L244.08-11.28L244.08-11.28Q244.40-11.92 244.92-11.92L244.92-11.92L244.92-11.92Q245.44-11.92 245.76-11.04L245.76-11.04L245.76-11.04Q246.08-10.16 246.08-9.68" fill="#0077b5" stroke="none" stroke-width="none" transform="translate(-140.48001098632812,19.280616901104263)" style="fill: rgb(0, 119, 181);"></path></g><g class="path" style="transform: scale(0.91); transform-origin: 122.68px 15.7606px; animation: 1s linear -0.0507692s infinite normal forwards running breath-788382a9-d4d6-401e-b1eb-e407704c7685;"><path d="M262.64-6.80L262.64-6.80L264.56-6.88L264.56-6.88Q266.48-6.88 267.16-6.04L267.16-6.04L267.16-6.04Q267.84-5.20 267.84-3.08L267.84-3.08L267.84-3.08Q267.84-0.96 266.92 0.04L266.92 0.04L266.92 0.04Q266.00 1.04 263.32 1.04L263.32 1.04L263.32 1.04Q260.64 1.04 259.56 0L259.56 0L259.56 0Q258.48-1.04 258.48-4.56L258.48-4.56L258.48-4.56Q258.48-8.08 259.52-8.08L259.52-8.08L260.40-7.44L260.40-7.44Q261.28-6.80 262.64-6.80" fill="#0077b5" stroke="none" stroke-width="none" transform="translate(-140.48001098632812,19.280616901104263)" style="fill: rgb(255, 255, 255);"></path></g><g class="path" style="transform: scale(0.91); transform-origin: 125.36px -15.4394px; animation: 1s linear 0s infinite normal forwards running breath-788382a9-d4d6-401e-b1eb-e407704c7685;"><path d="M254.12-51.84L254.12-51.84L254.12-51.84Q255.68-53.44 259.04-54.80L259.04-54.80L259.04-54.80Q262.40-56.16 266.64-56.16L266.64-56.16L266.64-56.16Q270.88-56.16 273.76-54.92L273.76-54.92L273.76-54.92Q276.64-53.68 278.00-52.08L278.00-52.08L278.00-52.08Q279.36-50.48 280.16-48.40L280.16-48.40L280.16-48.40Q281.20-45.68 281.20-42.72L281.20-42.72L281.20-42.72Q281.20-39.76 279.60-36.56L279.60-36.56L279.60-36.56Q278.00-33.36 275.76-31.20L275.76-31.20L275.76-31.20Q273.52-29.04 271.28-27.20L271.28-27.20L271.28-27.20Q265.84-22.56 265.84-19.20L265.84-19.20L265.84-19.20Q265.84-17.28 266.96-15.68L266.96-15.68L266.96-15.68Q268.08-14.08 268.08-14L268.08-14L268.08-14Q268.08-13.28 266.48-13.28L266.48-13.28L266.48-13.28Q265.76-13.28 263.96-13.88L263.96-13.88L263.96-13.88Q262.16-14.48 261.08-15.28L261.08-15.28L261.08-15.28Q260.00-16.08 259.12-17.72L259.12-17.72L259.12-17.72Q258.24-19.36 258.24-21.04L258.24-21.04L258.24-21.04Q258.24-22.72 259.44-23.52L259.44-23.52L259.44-23.52Q272.40-32.72 272.40-42.72L272.40-42.72L272.40-42.72Q272.40-45.28 271.68-47.44L271.68-47.44L271.68-47.44Q270.32-51.76 266.44-51.76L266.44-51.76L266.44-51.76Q262.56-51.76 260.52-48.72L260.52-48.72L260.52-48.72Q258.48-45.68 258.48-41.28L258.48-41.28L258.48-41.28Q258.48-38.24 260.24-36.08L260.24-36.08L260.24-36.08Q260.88-35.36 260.88-35.12L260.88-35.12L260.88-35.12Q260.88-34.24 258.72-34.24L258.72-34.24L258.72-34.24Q257.76-34.24 256.08-34.84L256.08-34.84L256.08-34.84Q254.40-35.44 253.32-36.32L253.32-36.32L253.32-36.32Q252.24-37.20 251.36-39.16L251.36-39.16L251.36-39.16Q250.48-41.12 250.48-42.68L250.48-42.68L250.48-42.68Q250.48-44.24 250.60-45.08L250.60-45.08L250.60-45.08Q250.72-45.92 251.64-48.08L251.64-48.08L251.64-48.08Q252.56-50.24 254.12-51.84" fill="#0077b5" stroke="none" stroke-width="none" transform="translate(-140.48001098632812,19.280616901104263)" style="fill: rgb(0, 119, 181);"></path></g></g>
</g>
</g>
<style id="breath-788382a9-d4d6-401e-b1eb-e407704c7685" data-anikit="">@keyframes breath-788382a9-d4d6-401e-b1eb-e407704c7685
{
  0% {
    animation-timing-function: cubic-bezier(0.9647,0.2413,-0.0705,0.7911);
    transform: scale(0.9099999999999999);
  }
  51% {
    animation-timing-function: cubic-bezier(0.9226,0.2631,-0.0308,0.7628);
    transform: scale(1.02994);
  }
  100% {
    transform: scale(0.9099999999999999);
  }
}</style></svg>