<?xml version="1.0" encoding="utf-8"?>
<svg xmlns="http://www.w3.org/2000/svg" style="margin: auto; background: none; display: block; shape-rendering: auto;" width="1039" height="250" preserveAspectRatio="xMidYMid">
<style type="text/css">
  text {
    text-anchor: middle; font-size: 80px; opacity: 0;
  }
</style>
<g style="transform-origin:519.5px 125px;transform:scale(1)">
<g transform="translate(519.5,125)">
  <g transform="translate(0,0)"><g class="path" style="transform: scale(0.91); transform-origin: -304px -6.00472px; animation: 1s linear -0.627s infinite normal forwards running breath-2acc74a1-16a1-42f7-9c1e-3da38b795882;"><path d="M29.72-28.40L29.72-28.40L29.72-28.40Q30.48-30.40 31-32.52L31-32.52L31-32.52Q31.52-34.64 31.52-36.44L31.52-36.44L31.52-36.44Q31.52-38.24 30.24-43.12L30.24-43.12L30.24-43.12Q28-51.28 26.40-52.80L26.40-52.80L25.92-53.36L25.92-53.36Q25.12-53.84 25.12-54.48L25.12-54.48L25.12-54.48Q25.12-55.84 28.72-56.80L28.72-56.80L28.72-56.80Q32.32-57.76 34.60-57.76L34.60-57.76L34.60-57.76Q36.88-57.76 37.28-56.40L37.28-56.40L37.28-56.40Q38.24-53.44 39.40-47.84L39.40-47.84L39.40-47.84Q40.56-42.24 41.40-38.20L41.40-38.20L41.40-38.20Q42.24-34.16 42.72-32L42.72-32L42.72-32Q43.20-29.84 44-26.40L44-26.40L44-26.40Q45.52-20 47.04-15.92L47.04-15.92L47.04-15.92Q47.52-14.80 48.20-14.80L48.20-14.80L48.20-14.80Q48.88-14.80 49.64-16.20L49.64-16.20L49.64-16.20Q50.40-17.60 51.72-20.20L51.72-20.20L51.72-20.20Q53.04-22.80 55.24-29.44L55.24-29.44L55.24-29.44Q57.44-36.08 57.44-40.96L57.44-40.96L57.44-40.96Q57.44-48.48 52.48-51.60L52.48-51.60L52.48-51.60Q52.08-52.08 52.08-52.64L52.08-52.64L52.08-52.64Q52.08-53.20 52.64-53.76L52.64-53.76L52.64-53.76Q53.20-54.16 54.24-54.84L54.24-54.84L54.24-54.84Q55.28-55.52 58.40-56.60L58.40-56.60L58.40-56.60Q61.52-57.68 64-57.68L64-57.68L64-57.68Q66.48-57.68 66.96-57L66.96-57L66.96-57Q67.44-56.32 67.44-54.56L67.44-54.56L67.44-54.56Q67.44-46.80 62.84-33.96L62.84-33.96L62.84-33.96Q58.24-21.12 53.08-11.32L53.08-11.32L53.08-11.32Q47.92-1.52 45.36 0.96L45.36 0.96L45.36 0.96Q44 2.16 43.76 2.16L43.76 2.16L43.76 2.16Q43.04 2.16 42.40 1.04L42.40 1.04L42.40 1.04Q39.68-3.52 36.48-16.80L36.48-16.80L36.48-16.80Q35.04-23.04 34.80-23.84L34.80-23.84L34.80-23.84Q34.56-24.64 34.40-24.64L34.40-24.64L34.40-24.64Q34-24.64 33.68-23.84L33.68-23.84L33.68-23.84Q30.88-17.36 27.44-11.16L27.44-11.16L27.44-11.16Q24-4.96 21.92-2L21.92-2L19.92 0.96L19.92 0.96Q19.12 2.08 18.32 2.08L18.32 2.08L18.32 2.08Q17.52 2.08 16.88 1.04L16.88 1.04L16.88 1.04Q14.72-3.04 11.60-14.72L11.60-14.72L10.56-18.72L10.56-18.72Q10.24-19.84 9.12-24.80L9.12-24.80L9.12-24.80Q4.88-43.76 2.64-48.48L2.64-48.48L2.64-48.48Q1.36-51.12 0.44-51.92L0.44-51.92L0.44-51.92Q-0.48-52.72-1.04-52.88L-1.04-52.88L-1.04-52.88Q-1.92-53.28-1.92-53.88L-1.92-53.88L-1.92-53.88Q-1.92-54.48-1.28-55.04L-1.28-55.04L-1.28-55.04Q-0.32-55.76 2.96-56.76L2.96-56.76L2.96-56.76Q6.24-57.76 8.48-57.76L8.48-57.76L8.48-57.76Q10.72-57.76 11.12-56.40L11.12-56.40L11.12-56.40Q12.72-53.44 14.88-43.12L14.88-43.12L14.88-43.12Q19.44-21.52 21.60-15.92L21.60-15.92L21.60-15.92Q22-14.80 22.72-14.80L22.72-14.80L22.72-14.80Q23.44-14.80 24-16L24-16L24-16Q24.72-16.72 26.84-21.56L26.84-21.56L26.84-21.56Q28.96-26.40 29.72-28.40" fill="#0077b5" stroke="none" stroke-width="none" transform="translate(-336.7599792480469,21.795279327392574)" style="fill: rgb(0, 119, 181);"></path></g><g class="path" style="transform: scale(0.91); transform-origin: -257.6px 4.39528px; animation: 1s linear -0.594s infinite normal forwards running breath-2acc74a1-16a1-42f7-9c1e-3da38b795882;"><path d="M74.24-20.32L74.24-20.32L74.32-18.32L74.32-18.32Q74.32-17.84 74.96-17.84L74.96-17.84L74.96-17.84Q77.52-18.08 79.44-19.16L79.44-19.16L79.44-19.16Q81.36-20.24 82.32-21.60L82.32-21.60L82.32-21.60Q84.24-24.56 84.40-26.72L84.40-26.72L84.48-27.68L84.48-27.68Q84.48-32 81.04-32L81.04-32L81.04-32Q78.48-32 76.88-29.76L76.88-29.76L76.88-29.76Q74.24-26.24 74.24-20.32zM91.68-9.68L91.68-9.68L91.68-9.68Q91.68-6.64 90.44-4.36L90.44-4.36L90.44-4.36Q89.20-2.08 87.64-1L87.64-1L87.64-1Q86.08 0.08 84 0.72L84 0.72L84 0.72Q81.36 1.52 78.96 1.52L78.96 1.52L78.96 1.52Q72.24 1.52 69.04-3.52L69.04-3.52L69.04-3.52Q65.84-8.56 65.84-16.36L65.84-16.36L65.84-16.36Q65.84-24.16 69.80-30.24L69.80-30.24L69.80-30.24Q73.76-36.32 81.68-36.32L81.68-36.32L81.68-36.32Q88.88-36.32 91.44-31.28L91.44-31.28L91.44-31.28Q92.48-29.36 92.48-27.64L92.48-27.64L92.48-27.64Q92.48-25.92 92.32-24.92L92.32-24.92L92.32-24.92Q92.16-23.92 91.20-21.92L91.20-21.92L91.20-21.92Q90.24-19.92 88.64-18.32L88.64-18.32L88.64-18.32Q87.04-16.72 83.60-15.28L83.60-15.28L83.60-15.28Q80.16-13.84 75.52-13.36L75.52-13.36L75.52-13.36Q74.88-13.36 74.88-12.80L74.88-12.80L74.88-12.80Q74.88-12.08 75.40-10.68L75.40-10.68L75.40-10.68Q75.92-9.28 76.56-8.32L76.56-8.32L76.56-8.32Q78.32-6.08 81.76-6.08L81.76-6.08L81.76-6.08Q85.20-6.08 87.60-8.32L87.60-8.32L87.60-8.32Q88.88-9.52 89.68-11.28L89.68-11.28L89.68-11.28Q90-11.92 90.52-11.92L90.52-11.92L90.52-11.92Q91.04-11.92 91.36-11.04L91.36-11.04L91.36-11.04Q91.68-10.16 91.68-9.68" fill="#0077b5" stroke="none" stroke-width="none" transform="translate(-336.7599792480469,21.795279327392574)" style="fill: rgb(255, 255, 255);"></path></g><g class="path" style="transform: scale(0.91); transform-origin: -236.36px -5.08472px; animation: 1s linear -0.561s infinite normal forwards running breath-2acc74a1-16a1-42f7-9c1e-3da38b795882;"><path d="M106.08-45.76L106.08-45.76L105.60-16.40L105.60-16.40Q105.60-2.64 106.48 0.08L106.48 0.08L106.48 0.08Q106.72 0.56 106.72 1.04L106.72 1.04L106.72 1.04Q106.72 2 104.40 2L104.40 2L104.40 2Q102.08 2 99.24 0.84L99.24 0.84L99.24 0.84Q96.40-0.32 96.40-2.16L96.40-2.16L96.40-2.16Q98-13.36 98-32.08L98-32.08L97.68-44.32L97.68-44.32Q97.52-46.56 96.76-48.16L96.76-48.16L96.76-48.16Q96-49.76 95.28-50.24L95.28-50.24L94.64-50.64L94.64-50.64Q94.08-50.96 94.08-51.36L94.08-51.36L94.08-51.36Q94.08-52.48 97.56-54.12L97.56-54.12L97.56-54.12Q101.04-55.76 104.32-55.76L104.32-55.76L104.32-55.76Q105.60-55.76 105.76-54.88L105.76-54.88L105.76-54.88Q106.08-52.80 106.08-45.76" fill="#0077b5" stroke="none" stroke-width="none" transform="translate(-336.7599792480469,21.795279327392574)" style="fill: rgb(0, 119, 181);"></path></g><g class="path" style="transform: scale(0.91); transform-origin: -212.24px 4.31528px; animation: 1s linear -0.528s infinite normal forwards running breath-2acc74a1-16a1-42f7-9c1e-3da38b795882;"><path d="M137.68-9.20L137.68-9.20L137.68-9.20Q137.68-4.64 134.04-1.64L134.04-1.64L134.04-1.64Q130.40 1.36 125.36 1.36L125.36 1.36L125.36 1.36Q118 1.36 114.56-3.08L114.56-3.08L114.56-3.08Q111.12-7.52 111.12-15.12L111.12-15.12L111.12-15.12Q111.12-23.20 114.72-29.44L114.72-29.44L114.72-29.44Q116.48-32.64 119.76-34.48L119.76-34.48L119.76-34.48Q123.04-36.32 127.44-36.32L127.44-36.32L127.44-36.32Q134.08-36.32 136.80-31.84L136.80-31.84L136.80-31.84Q137.92-30 137.92-27.52L137.92-27.52L137.92-27.52Q137.92-23.68 134.72-21.76L134.72-21.76L134.72-21.76Q133.44-21.04 132.36-21.04L132.36-21.04L132.36-21.04Q131.28-21.04 130.60-21.16L130.60-21.16L130.60-21.16Q129.92-21.28 128.80-22.24L128.80-22.24L128.80-22.24Q127.68-23.20 127.68-24.88L127.68-24.88L127.68-24.88Q127.76-25.76 129.04-26.32L129.04-26.32L129.04-26.32Q130.24-27.04 130.24-28.88L130.24-28.88L130.24-28.88Q130.24-32 126.40-32L126.40-32L126.40-32Q125.44-32 124.12-31.16L124.12-31.16L124.12-31.16Q122.80-30.32 121.92-29L121.92-29L121.92-29Q121.04-27.68 120.28-24.84L120.28-24.84L120.28-24.84Q119.52-22 119.52-19.40L119.52-19.40L119.52-19.40Q119.52-16.80 119.72-15.48L119.72-15.48L119.72-15.48Q119.92-14.16 120.60-11.88L120.60-11.88L120.60-11.88Q121.28-9.60 123.16-8.16L123.16-8.16L123.16-8.16Q125.04-6.72 127.84-6.72L127.84-6.72L127.84-6.72Q131.20-6.72 133.76-9.52L133.76-9.52L133.76-9.52Q134.80-10.64 135.44-12.24L135.44-12.24L135.44-12.24Q135.76-12.88 136.24-12.88L136.24-12.88L136.24-12.88Q136.96-12.88 137.32-11.56L137.32-11.56L137.32-11.56Q137.68-10.24 137.68-9.20" fill="#0077b5" stroke="none" stroke-width="none" transform="translate(-336.7599792480469,21.795279327392574)" style="fill: rgb(255, 255, 255);"></path></g><g class="path" style="transform: scale(0.91); transform-origin: -180.24px 4.51528px; animation: 1s linear -0.495s infinite normal forwards running breath-2acc74a1-16a1-42f7-9c1e-3da38b795882;"><path d="M149.76-30.16L149.76-30.16L149.76-30.16Q147.68-30.08 146.76-30.04L146.76-30.04L146.76-30.04Q145.84-30 145.84-30.48L145.84-30.48L145.84-30.48Q145.84-30.96 146.32-31.44L146.32-31.44L146.32-31.44Q151.44-36.16 163.60-36.16L163.60-36.16L163.60-36.16Q167.76-36.16 170.16-35.44L170.16-35.44L170.96-35.20L170.96-35.20Q171.92-34.80 171.92-34.32L171.92-34.32L171.92-34.32Q171.92-33.92 171.36-33.68L171.36-33.68L171.36-33.68Q169.20-33.04 167.20-31.64L167.20-31.64L167.20-31.64Q165.20-30.24 165.20-29.68L165.20-29.68L165.68-29.12L165.68-29.12Q168.24-27.68 169.64-24.56L169.64-24.56L169.64-24.56Q171.04-21.44 171.20-19.04L171.20-19.04L171.36-16.56L171.36-16.56Q171.36-8.64 166.96-3.52L166.96-3.52L166.96-3.52Q162.56 1.60 154.96 1.60L154.96 1.60L154.96 1.60Q151.12 1.60 148.32 0.24L148.32 0.24L148.32 0.24Q145.52-1.12 144.20-2.84L144.20-2.84L144.20-2.84Q142.88-4.56 142.08-6.72L142.08-6.72L142.08-6.72Q141.12-9.68 141.12-12.84L141.12-12.84L141.12-12.84Q141.12-16 142.20-19.20L142.20-19.20L142.20-19.20Q143.28-22.40 144.68-23.92L144.68-23.92L144.68-23.92Q146.08-25.44 147.84-26.40L147.84-26.40L147.84-26.40Q150.08-27.60 151.44-27.60L151.44-27.60L151.44-27.60Q152.80-27.60 152.80-27.04L152.80-27.04L152.32-26.24L152.32-26.24Q150.56-24.16 149.80-20.80L149.80-20.80L149.80-20.80Q149.04-17.44 149.04-14.84L149.04-14.84L149.04-14.84Q149.04-12.24 149.68-9.68L149.68-9.68L149.68-9.68Q150.32-7.12 151.12-5.88L151.12-5.88L151.12-5.88Q151.92-4.64 152.96-4L152.96-4L152.96-4Q154.48-3.04 156.16-3.04L156.16-3.04L156.16-3.04Q157.84-3.04 159.44-4.36L159.44-4.36L159.44-4.36Q161.04-5.68 161.76-7.84L161.76-7.84L161.76-7.84Q163.20-11.84 163.20-16.08L163.20-16.08L163.20-16.08Q163.20-22.80 159.80-26.48L159.80-26.48L159.80-26.48Q156.40-30.16 149.76-30.16" fill="#0077b5" stroke="none" stroke-width="none" transform="translate(-336.7599792480469,21.795279327392574)" style="fill: rgb(0, 119, 181);"></path></g><g class="path" style="transform: scale(0.91); transform-origin: -137.88px 4.35528px; animation: 1s linear -0.462s infinite normal forwards running breath-2acc74a1-16a1-42f7-9c1e-3da38b795882;"><path d="M193.60 0.48L193.60 0.48L193.60 0.48Q194.72-5.12 194.72-15.24L194.72-15.24L194.72-15.24Q194.72-25.36 194.64-27.20L194.64-27.20L194.64-27.20Q194.56-29.04 193.52-30.16L193.52-30.16L193.52-30.16Q192.48-31.28 191.72-31.44L191.72-31.44L191.72-31.44Q190.96-31.60 189.60-31.60L189.60-31.60L189.60-31.60Q188.24-31.60 186.96-30.36L186.96-30.36L186.96-30.36Q185.68-29.12 185.44-27.84L185.44-27.84L185.12-26.56L185.12-26.56Q184.88-24.16 184.88-15.92L184.88-15.92L184.88-15.92Q184.88-7.68 185.24-5.56L185.24-5.56L185.24-5.56Q185.60-3.44 185.60-2.72L185.60-2.72L185.60-2.72Q185.60-2 184.96-1.28L184.96-1.28L184.96-1.28Q182.24 1.60 177.28 1.60L177.28 1.60L177.28 1.60Q175.52 1.60 175.52 0.56L175.52 0.56L175.52 0.56Q177.12-9.04 177.12-23.92L177.12-23.92L177.12-23.92Q177.12-29.44 176.88-31.36L176.88-31.36L176.56-33.92L176.56-33.92Q176.48-34.80 176.24-35.84L176.24-35.84L176.24-35.84Q176.24-36.80 178.72-36.80L178.72-36.80L178.72-36.80Q182.40-36.80 183.60-34.08L183.60-34.08L183.60-34.08Q183.68-33.76 183.92-33.76L183.92-33.76L183.92-33.76Q184.16-33.76 185.04-34.40L185.04-34.40L185.04-34.40Q187.68-36.48 192.16-36.48L192.16-36.48L192.16-36.48Q194.72-36.48 197.20-35.52L197.20-35.52L197.20-35.52Q199.68-34.56 200.64-32.96L200.64-32.96L200.64-32.96Q200.72-32.80 200.88-32.80L200.88-32.80L200.88-32.80Q201.04-32.80 201.36-33.12L201.36-33.12L201.36-33.12Q204.72-36.48 210.08-36.48L210.08-36.48L210.08-36.48Q217.20-36.48 219.84-31.36L219.84-31.36L219.84-31.36Q220.80-29.36 220.80-26.32L220.80-26.32L220.80-26.32Q220.80-23.28 220.32-17.68L220.32-17.68L220.32-17.68Q219.84-12.08 219.84-9.12L219.84-9.12L219.84-9.12Q219.84-6.16 220.44-3.76L220.44-3.76L220.44-3.76Q221.04-1.36 221.64-0.32L221.64-0.32L221.64-0.32Q222.24 0.72 222.24 0.88L222.24 0.88L222.24 0.88Q222.24 1.92 220 1.92L220 1.92L220 1.92Q214.48 1.92 212.32-0.32L212.32-0.32L212.32-0.32Q210.16-2.56 210.16-6.20L210.16-6.20L210.16-6.20Q210.16-9.84 211.64-16.04L211.64-16.04L211.64-16.04Q213.12-22.24 213.12-25.36L213.12-25.36L213.12-25.36Q213.12-31.68 208-31.68L208-31.68L208-31.68Q205.84-31.68 204.56-30.40L204.56-30.40L204.56-30.40Q203.28-29.12 203.04-27.84L203.04-27.84L202.88-26.56L202.88-26.56Q202.56-22.88 202.56-17.68L202.56-17.68L202.56-17.68Q202.56-12.48 202.72-9.56L202.72-9.56L202.72-9.56Q202.88-6.64 203.04-5L203.04-5L203.04-5Q203.20-3.36 203.20-3.04L203.20-3.04L203.20-3.04Q203.20-0.80 200.40 0.40L200.40 0.40L200.40 0.40Q197.60 1.60 194.96 1.60L194.96 1.60L194.96 1.60Q193.60 1.60 193.60 0.48" fill="#0077b5" stroke="none" stroke-width="none" transform="translate(-336.7599792480469,21.795279327392574)" style="fill: rgb(255, 255, 255);"></path></g><g class="path" style="transform: scale(0.91); transform-origin: -99.36px 4.39528px; animation: 1s linear -0.429s infinite normal forwards running breath-2acc74a1-16a1-42f7-9c1e-3da38b795882;"><path d="M232.48-20.32L232.48-20.32L232.56-18.32L232.56-18.32Q232.56-17.84 233.20-17.84L233.20-17.84L233.20-17.84Q235.76-18.08 237.68-19.16L237.68-19.16L237.68-19.16Q239.60-20.24 240.56-21.60L240.56-21.60L240.56-21.60Q242.48-24.56 242.64-26.72L242.64-26.72L242.72-27.68L242.72-27.68Q242.72-32 239.28-32L239.28-32L239.28-32Q236.72-32 235.12-29.76L235.12-29.76L235.12-29.76Q232.48-26.24 232.48-20.32zM249.92-9.68L249.92-9.68L249.92-9.68Q249.92-6.64 248.68-4.36L248.68-4.36L248.68-4.36Q247.44-2.08 245.88-1L245.88-1L245.88-1Q244.32 0.08 242.24 0.72L242.24 0.72L242.24 0.72Q239.60 1.52 237.20 1.52L237.20 1.52L237.20 1.52Q230.48 1.52 227.28-3.52L227.28-3.52L227.28-3.52Q224.08-8.56 224.08-16.36L224.08-16.36L224.08-16.36Q224.08-24.16 228.04-30.24L228.04-30.24L228.04-30.24Q232.00-36.32 239.92-36.32L239.92-36.32L239.92-36.32Q247.12-36.32 249.68-31.28L249.68-31.28L249.68-31.28Q250.72-29.36 250.72-27.64L250.72-27.64L250.72-27.64Q250.72-25.92 250.56-24.92L250.56-24.92L250.56-24.92Q250.40-23.92 249.44-21.92L249.44-21.92L249.44-21.92Q248.48-19.92 246.88-18.32L246.88-18.32L246.88-18.32Q245.28-16.72 241.84-15.28L241.84-15.28L241.84-15.28Q238.40-13.84 233.76-13.36L233.76-13.36L233.76-13.36Q233.12-13.36 233.12-12.80L233.12-12.80L233.12-12.80Q233.12-12.08 233.64-10.68L233.64-10.68L233.64-10.68Q234.16-9.28 234.80-8.32L234.80-8.32L234.80-8.32Q236.56-6.08 240.00-6.08L240.00-6.08L240.00-6.08Q243.44-6.08 245.84-8.32L245.84-8.32L245.84-8.32Q247.12-9.52 247.92-11.28L247.92-11.28L247.92-11.28Q248.24-11.92 248.76-11.92L248.76-11.92L248.76-11.92Q249.28-11.92 249.60-11.04L249.60-11.04L249.60-11.04Q249.92-10.16 249.92-9.68" fill="#0077b5" stroke="none" stroke-width="none" transform="translate(-336.7599792480469,21.795279327392574)" style="fill: rgb(0, 119, 181);"></path></g><g class="path" style="transform: scale(0.91); transform-origin: -60.28px -0.564722px; animation: 1s linear -0.396s infinite normal forwards running breath-2acc74a1-16a1-42f7-9c1e-3da38b795882;"><path d="M267.52-31.20L267.52-31.20L267.76-34.40L267.76-34.40Q267.84-35.12 268.88-35.12L268.88-35.12L271.68-35.12L271.36-41.52L271.36-41.84L271.36-41.84Q271.36-43.68 274.16-45.36L274.16-45.36L274.16-45.36Q276.96-47.04 279.28-47.04L279.28-47.04L279.28-47.04Q280-47.04 280-46.40L280-46.40L280-46.32L280-46.32Q279.68-44.16 279.36-35.20L279.36-35.20L279.36-35.20Q282.88-35.20 283.84-35.36L283.84-35.36L283.84-35.36Q284.80-35.52 284.88-35.52L284.88-35.52L284.88-35.52Q285.44-35.52 285.44-34.56L285.44-34.56L285.44-34.56Q285.44-33.60 284.56-32.12L284.56-32.12L284.56-32.12Q283.68-30.64 282.64-30.56L282.64-30.56L279.28-30.56L279.28-30.56Q279.20-27.84 279.20-21.40L279.20-21.40L279.20-21.40Q279.20-14.96 279.32-10.80L279.32-10.80L279.32-10.80Q279.44-6.64 279.60-4.52L279.60-4.52L279.60-4.52Q279.76-2.40 279.96-1.12L279.96-1.12L279.96-1.12Q280.16 0.16 280.28 0.72L280.28 0.72L280.28 0.72Q280.40 1.28 280.40 1.44L280.40 1.44L280.40 1.44Q280.40 2.24 279.36 2.32L279.36 2.32L279.36 2.32Q276.24 2.32 273.16 1.44L273.16 1.44L273.16 1.44Q270.08 0.56 270.08-1.60L270.08-1.60L270.08-1.60Q271.76-15.04 271.76-30.48L271.76-30.48L271.76-30.48Q269.60-30.48 268.48-30.32L268.48-30.32L268.40-30.32L268.40-30.32Q267.68-30.32 267.52-31.20" fill="#0077b5" stroke="none" stroke-width="none" transform="translate(-336.7599792480469,21.795279327392574)" style="fill: rgb(255, 255, 255);"></path></g><g class="path" style="transform: scale(0.91); transform-origin: -35.52px 4.51528px; animation: 1s linear -0.363s infinite normal forwards running breath-2acc74a1-16a1-42f7-9c1e-3da38b795882;"><path d="M294.48-30.16L294.48-30.16L294.48-30.16Q292.40-30.08 291.48-30.04L291.48-30.04L291.48-30.04Q290.56-30 290.56-30.48L290.56-30.48L290.56-30.48Q290.56-30.96 291.04-31.44L291.04-31.44L291.04-31.44Q296.16-36.16 308.32-36.16L308.32-36.16L308.32-36.16Q312.48-36.16 314.88-35.44L314.88-35.44L315.68-35.20L315.68-35.20Q316.64-34.80 316.64-34.32L316.64-34.32L316.64-34.32Q316.64-33.92 316.08-33.68L316.08-33.68L316.08-33.68Q313.92-33.04 311.92-31.64L311.92-31.64L311.92-31.64Q309.92-30.24 309.92-29.68L309.92-29.68L310.40-29.12L310.40-29.12Q312.96-27.68 314.36-24.56L314.36-24.56L314.36-24.56Q315.76-21.44 315.92-19.04L315.92-19.04L316.08-16.56L316.08-16.56Q316.08-8.64 311.68-3.52L311.68-3.52L311.68-3.52Q307.28 1.60 299.68 1.60L299.68 1.60L299.68 1.60Q295.84 1.60 293.04 0.24L293.04 0.24L293.04 0.24Q290.24-1.12 288.92-2.84L288.92-2.84L288.92-2.84Q287.60-4.56 286.80-6.72L286.80-6.72L286.80-6.72Q285.84-9.68 285.84-12.84L285.84-12.84L285.84-12.84Q285.84-16 286.92-19.20L286.92-19.20L286.92-19.20Q288-22.40 289.40-23.92L289.40-23.92L289.40-23.92Q290.80-25.44 292.56-26.40L292.56-26.40L292.56-26.40Q294.80-27.60 296.16-27.60L296.16-27.60L296.16-27.60Q297.52-27.60 297.52-27.04L297.52-27.04L297.04-26.24L297.04-26.24Q295.28-24.16 294.52-20.80L294.52-20.80L294.52-20.80Q293.76-17.44 293.76-14.84L293.76-14.84L293.76-14.84Q293.76-12.24 294.40-9.68L294.40-9.68L294.40-9.68Q295.04-7.12 295.84-5.88L295.84-5.88L295.84-5.88Q296.64-4.64 297.68-4L297.68-4L297.68-4Q299.20-3.04 300.88-3.04L300.88-3.04L300.88-3.04Q302.56-3.04 304.16-4.36L304.16-4.36L304.16-4.36Q305.76-5.68 306.48-7.84L306.48-7.84L306.48-7.84Q307.92-11.84 307.92-16.08L307.92-16.08L307.92-16.08Q307.92-22.80 304.52-26.48L304.52-26.48L304.52-26.48Q301.12-30.16 294.48-30.16" fill="#0077b5" stroke="none" stroke-width="none" transform="translate(-336.7599792480469,21.795279327392574)" style="fill: rgb(0, 119, 181);"></path></g><g class="path" style="transform: scale(0.91); transform-origin: 23.48px -6.76472px; animation: 1s linear -0.33s infinite normal forwards running breath-2acc74a1-16a1-42f7-9c1e-3da38b795882;"><path d="M336.56-31.12L336.56-31.12L336.16-46.24L336.16-46.24Q336.16-49.84 335.36-51.92L335.36-51.92L335.36-51.92Q334.56-54 334.56-54.16L334.56-54.16L334.56-54.16Q334.56-55.92 339.96-56.88L339.96-56.88L339.96-56.88Q345.36-57.84 348.20-57.84L348.20-57.84L348.20-57.84Q351.04-57.84 351.28-56.48L351.28-56.48L351.28-56.48Q356.32-34 359.76-25.28L359.76-25.28L359.76-25.28Q360.16-24.32 360.60-24.32L360.60-24.32L360.60-24.32Q361.04-24.32 361.36-25.04L361.36-25.04L361.36-25.04Q366.72-40.16 370.80-54.96L370.80-54.96L370.80-54.96Q371.12-55.92 372.40-56.44L372.40-56.44L372.40-56.44Q373.68-56.96 376.84-57.44L376.84-57.44L376.84-57.44Q380-57.92 383.12-57.92L383.12-57.92L383.12-57.92Q386.24-57.92 386.24-56.64L386.24-56.64L386.24-56.64Q386.24-56.56 386-55.40L386-55.40L386-55.40Q385.76-54.24 385.52-52.56L385.52-52.56L385.52-52.56Q385.28-50.88 384.96-48.48L384.96-48.48L384.96-48.48Q384.24-42.96 384.04-35.80L384.04-35.80L384.04-35.80Q383.84-28.64 383.84-21.44L383.84-21.44L384-13.04L384-13.04Q384-7.28 384.76-4.84L384.76-4.84L384.76-4.84Q385.52-2.40 385.52-2.04L385.52-2.04L385.52-2.04Q385.52-1.68 384.96-1.20L384.96-1.20L384.96-1.20Q382.48 0.80 377.44 0.80L377.44 0.80L377.44 0.80Q374.24 0.80 373.84-1.36L373.84-1.36L373.84-1.36Q373.60-2.48 373.60-4.92L373.60-4.92L373.60-4.92Q373.60-7.36 374.08-19.92L374.08-19.92L374.08-19.92Q374.56-32.48 374.56-38.20L374.56-38.20L374.56-38.20Q374.56-43.92 373.92-43.92L373.92-43.92L373.92-43.92Q373.84-43.92 373.84-43.88L373.84-43.88L373.84-43.88Q373.84-43.84 373.60-43.76L373.60-43.76L373.60-43.76Q373.36-43.68 372.36-41.28L372.36-41.28L372.36-41.28Q371.36-38.88 368.40-29.44L368.40-29.44L368.40-29.44Q365.44-20 363.04-11.80L363.04-11.80L363.04-11.80Q360.64-3.60 360.40-2.96L360.40-2.96L360.40-2.96Q359.52-0.80 357.04-0.80L357.04-0.80L357.04-0.80Q355.84-0.80 355.12-1.68L355.12-1.68L355.12-1.68Q352.56-13.52 346-35.52L346-35.52L343.76-42.80L343.76-42.80Q343.60-43.20 343.44-43.20L343.44-43.20L343.44-43.20Q343.04-43.20 342.88-42.64L342.88-42.64L342.88-42.64Q342.56-37.44 342.56-22.20L342.56-22.20L342.56-22.20Q342.56-6.96 343.68-2.96L343.68-2.96L343.68-2.96Q343.76-2.80 343.76-2.48L343.76-2.48L343.76-2.48Q343.76-0.80 341.12-0.04L341.12-0.04L341.12-0.04Q338.48 0.72 336.36 0.72L336.36 0.72L336.36 0.72Q334.24 0.72 334.24-0.24L334.24-0.24L334.24-0.24Q334.24-0.32 334.64-1.52L334.64-1.52L334.64-1.52Q335.84-5.60 336.20-13.36L336.20-13.36L336.20-13.36Q336.56-21.12 336.56-31.12" fill="#0077b5" stroke="none" stroke-width="none" transform="translate(-336.7599792480469,21.795279327392574)" style="fill: rgb(255, 255, 255);"></path></g><g class="path" style="transform: scale(0.91); transform-origin: 67.32px 4.23528px; animation: 1s linear -0.297s infinite normal forwards running breath-2acc74a1-16a1-42f7-9c1e-3da38b795882;"><path d="M416.96-24L416.96-24L416.80-13.76L416.80-13.76Q416.80-3.12 419.12-0.96L419.12-0.96L419.12-0.96Q419.44-0.64 419.44-0.24L419.44-0.24L419.44-0.24Q419.44 0.96 414.28 0.96L414.28 0.96L414.28 0.96Q409.12 0.96 408.80-2.08L408.80-2.08L408.80-2.08Q408.72-2.80 408.72-5.04L408.72-5.04L409.04-17.84L409.04-17.84Q409.04-18.40 408.40-18.40L408.40-18.40L408.40-18.40Q404.56-18.40 401.20-16.24L401.20-16.24L401.20-16.24Q397.84-14.08 397.84-10.72L397.84-10.72L397.84-10.72Q397.84-8.96 398.80-7.76L398.80-7.76L398.80-7.76Q399.76-6.56 401.16-6.56L401.16-6.56L401.16-6.56Q402.56-6.56 403.48-7.12L403.48-7.12L403.48-7.12Q404.40-7.68 404.56-7.76L404.56-7.76L404.56-7.76Q405.92-7.60 405.92-4.92L405.92-4.92L405.92-4.92Q405.92-2.24 403.44-0.60L403.44-0.60L403.44-0.60Q400.96 1.04 398.24 1.04L398.24 1.04L398.24 1.04Q395.52 1.04 393.56 0.08L393.56 0.08L393.56 0.08Q391.60-0.88 390.72-2.08L390.72-2.08L390.72-2.08Q389.84-3.28 389.28-4.80L389.28-4.80L389.28-4.80Q388.72-6.64 388.72-8L388.72-8L388.72-8Q388.72-13.60 392.24-16.96L392.24-16.96L392.24-16.96Q395.76-20.32 401.28-21.76L401.28-21.76L401.28-21.76Q408.56-23.20 408.88-24.40L408.88-24.40L408.88-24.40Q409.12-25.28 409.12-27.36L409.12-27.36L409.12-27.36Q409.12-31.60 404.80-31.60L404.80-31.60L404.80-31.60Q402.96-31.60 401.52-30.44L401.52-30.44L401.52-30.44Q400.08-29.28 400.08-27.52L400.08-27.52L400.56-25.60L400.56-25.60Q400.40-24.24 397.68-24L397.68-24L396.80-23.92L396.80-23.92Q394.40-23.92 393.00-25.12L393.00-25.12L393.00-25.12Q391.60-26.32 391.60-28.32L391.60-28.32L391.60-28.32Q391.60-29.60 392.44-31.16L392.44-31.16L392.44-31.16Q393.28-32.72 394.56-33.68L394.56-33.68L394.56-33.68Q395.84-34.64 398.52-35.40L398.52-35.40L398.52-35.40Q401.20-36.16 403.68-36.16L403.68-36.16L403.68-36.16Q406.16-36.16 407.52-36L407.52-36L407.52-36Q408.88-35.84 411.24-35.24L411.24-35.24L411.24-35.24Q413.60-34.64 415.16-32.96L415.16-32.96L415.16-32.96Q416.72-31.28 416.84-29.40L416.84-29.40L416.84-29.40Q416.96-27.52 416.96-24" fill="#0077b5" stroke="none" stroke-width="none" transform="translate(-336.7599792480469,21.795279327392574)" style="fill: rgb(0, 119, 181);"></path></g><g class="path" style="transform: scale(0.91); transform-origin: 96.44px 4.51528px; animation: 1s linear -0.264s infinite normal forwards running breath-2acc74a1-16a1-42f7-9c1e-3da38b795882;"><path d="M446.16-10.96L446.16-10.96L446.16-10.96Q446.16-7.52 444.84-4.96L444.84-4.96L444.84-4.96Q443.52-2.40 441.84-1.20L441.84-1.20L441.84-1.20Q440.16 0 437.84 0.72L437.84 0.72L437.84 0.72Q434.80 1.68 432.32 1.68L432.32 1.68L432.32 1.68Q427.12 1.68 423.68-0.36L423.68-0.36L423.68-0.36Q420.24-2.40 420.24-6.88L420.24-6.88L420.24-6.88Q420.24-9.52 421.68-11.20L421.68-11.20L421.68-11.20Q423.92-13.68 427.04-13.68L427.04-13.68L427.04-13.68Q428.00-13.68 428.00-12.80L428.00-12.80L428.00-12.80Q428.00-12.72 427.64-11.56L427.64-11.56L427.64-11.56Q427.28-10.40 427.28-8.64L427.28-8.64L427.28-8.64Q427.28-6.88 428.68-5.52L428.68-5.52L428.68-5.52Q430.08-4.16 432.08-4.16L432.08-4.16L432.08-4.16Q434.08-4.16 435.28-4.84L435.28-4.84L435.28-4.84Q436.48-5.52 436.96-6.56L436.96-6.56L436.96-6.56Q437.68-8 437.68-9.28L437.68-9.28L437.68-9.28Q437.68-11.60 435.36-13.28L435.36-13.28L435.36-13.28Q433.04-14.96 430.24-15.92L430.24-15.92L430.24-15.92Q427.44-16.88 425.12-19.12L425.12-19.12L425.12-19.12Q422.80-21.36 422.80-24.72L422.80-24.72L422.80-24.72Q422.80-30.48 426.44-33.36L426.44-33.36L426.44-33.36Q430.08-36.24 436.32-36.24L436.32-36.24L436.32-36.24Q439.04-36.24 442.04-35.48L442.04-35.48L442.04-35.48Q445.04-34.72 445.04-32.92L445.04-32.92L445.04-32.92Q445.04-31.12 444.44-29.60L444.44-29.60L444.44-29.60Q443.84-28.08 442.96-28.08L442.96-28.08L442.96-28.08Q442.48-28.08 442.32-28.44L442.32-28.44L442.32-28.44Q442.16-28.80 441.76-29.28L441.76-29.28L441.76-29.28Q441.36-29.76 439.84-30.52L439.84-30.52L439.84-30.52Q438.32-31.28 437.24-31.28L437.24-31.28L437.24-31.28Q436.16-31.28 435.80-31.24L435.80-31.24L435.80-31.24Q435.44-31.20 434.56-31L434.56-31L434.56-31Q433.68-30.80 432.96-30.40L432.96-30.40L432.96-30.40Q431.12-29.36 431.12-27.36L431.12-27.36L431.12-27.36Q431.12-26.08 431.68-25.48L431.68-25.48L431.68-25.48Q432.24-24.88 432.56-24.56L432.56-24.56L432.56-24.56Q432.88-24.24 433.68-23.80L433.68-23.80L433.68-23.80Q434.48-23.36 434.80-23.20L434.80-23.20L434.80-23.20Q435.12-23.04 436.24-22.52L436.24-22.52L436.24-22.52Q437.36-22 437.68-21.84L437.68-21.84L437.68-21.84Q446.16-17.84 446.16-10.96" fill="#0077b5" stroke="none" stroke-width="none" transform="translate(-336.7599792480469,21.795279327392574)" style="fill: rgb(255, 255, 255);"></path></g><g class="path" style="transform: scale(0.91); transform-origin: 120.36px -0.564722px; animation: 1s linear -0.231s infinite normal forwards running breath-2acc74a1-16a1-42f7-9c1e-3da38b795882;"><path d="M448.16-31.20L448.16-31.20L448.40-34.40L448.40-34.40Q448.48-35.12 449.52-35.12L449.52-35.12L452.32-35.12L452.00-41.52L452.00-41.84L452.00-41.84Q452.00-43.68 454.80-45.36L454.80-45.36L454.80-45.36Q457.60-47.04 459.92-47.04L459.92-47.04L459.92-47.04Q460.64-47.04 460.64-46.40L460.64-46.40L460.64-46.32L460.64-46.32Q460.32-44.16 460.00-35.20L460.00-35.20L460.00-35.20Q463.52-35.20 464.48-35.36L464.48-35.36L464.48-35.36Q465.44-35.52 465.52-35.52L465.52-35.52L465.52-35.52Q466.08-35.52 466.08-34.56L466.08-34.56L466.08-34.56Q466.08-33.60 465.20-32.12L465.20-32.12L465.20-32.12Q464.32-30.64 463.28-30.56L463.28-30.56L459.92-30.56L459.92-30.56Q459.84-27.84 459.84-21.40L459.84-21.40L459.84-21.40Q459.84-14.96 459.96-10.80L459.96-10.80L459.96-10.80Q460.08-6.64 460.24-4.52L460.24-4.52L460.24-4.52Q460.40-2.40 460.60-1.12L460.60-1.12L460.60-1.12Q460.80 0.16 460.92 0.72L460.92 0.72L460.92 0.72Q461.04 1.28 461.04 1.44L461.04 1.44L461.04 1.44Q461.04 2.24 460.00 2.32L460.00 2.32L460.00 2.32Q456.88 2.32 453.80 1.44L453.80 1.44L453.80 1.44Q450.72 0.56 450.72-1.60L450.72-1.60L450.72-1.60Q452.40-15.04 452.40-30.48L452.40-30.48L452.40-30.48Q450.24-30.48 449.12-30.32L449.12-30.32L449.04-30.32L449.04-30.32Q448.32-30.32 448.16-31.20" fill="#0077b5" stroke="none" stroke-width="none" transform="translate(-336.7599792480469,21.795279327392574)" style="fill: rgb(0, 119, 181);"></path></g><g class="path" style="transform: scale(0.91); transform-origin: 142.24px 4.39528px; animation: 1s linear -0.198s infinite normal forwards running breath-2acc74a1-16a1-42f7-9c1e-3da38b795882;"><path d="M474.08-20.32L474.08-20.32L474.16-18.32L474.16-18.32Q474.16-17.84 474.80-17.84L474.80-17.84L474.80-17.84Q477.36-18.08 479.28-19.16L479.28-19.16L479.28-19.16Q481.20-20.24 482.16-21.60L482.16-21.60L482.16-21.60Q484.08-24.56 484.24-26.72L484.24-26.72L484.32-27.68L484.32-27.68Q484.32-32 480.88-32L480.88-32L480.88-32Q478.32-32 476.72-29.76L476.72-29.76L476.72-29.76Q474.08-26.24 474.08-20.32zM491.52-9.68L491.52-9.68L491.52-9.68Q491.52-6.64 490.28-4.36L490.28-4.36L490.28-4.36Q489.04-2.08 487.48-1L487.48-1L487.48-1Q485.92 0.08 483.84 0.72L483.84 0.72L483.84 0.72Q481.20 1.52 478.80 1.52L478.80 1.52L478.80 1.52Q472.08 1.52 468.88-3.52L468.88-3.52L468.88-3.52Q465.68-8.56 465.68-16.36L465.68-16.36L465.68-16.36Q465.68-24.16 469.64-30.24L469.64-30.24L469.64-30.24Q473.60-36.32 481.52-36.32L481.52-36.32L481.52-36.32Q488.72-36.32 491.28-31.28L491.28-31.28L491.28-31.28Q492.32-29.36 492.32-27.64L492.32-27.64L492.32-27.64Q492.32-25.92 492.16-24.92L492.16-24.92L492.16-24.92Q492.00-23.92 491.04-21.92L491.04-21.92L491.04-21.92Q490.08-19.92 488.48-18.32L488.48-18.32L488.48-18.32Q486.88-16.72 483.44-15.28L483.44-15.28L483.44-15.28Q480.00-13.84 475.36-13.36L475.36-13.36L475.36-13.36Q474.72-13.36 474.72-12.80L474.72-12.80L474.72-12.80Q474.72-12.08 475.24-10.68L475.24-10.68L475.24-10.68Q475.76-9.28 476.40-8.32L476.40-8.32L476.40-8.32Q478.16-6.08 481.60-6.08L481.60-6.08L481.60-6.08Q485.04-6.08 487.44-8.32L487.44-8.32L487.44-8.32Q488.72-9.52 489.52-11.28L489.52-11.28L489.52-11.28Q489.84-11.92 490.36-11.92L490.36-11.92L490.36-11.92Q490.88-11.92 491.20-11.04L491.20-11.04L491.20-11.04Q491.52-10.16 491.52-9.68" fill="#0077b5" stroke="none" stroke-width="none" transform="translate(-336.7599792480469,21.795279327392574)" style="fill: rgb(255, 255, 255);"></path></g><g class="path" style="transform: scale(0.91); transform-origin: 170.76px 4.23528px; animation: 1s linear -0.165s infinite normal forwards running breath-2acc74a1-16a1-42f7-9c1e-3da38b795882;"><path d="M519.92-27.52L519.52-21.44L519.84-18.64L519.84-18.64Q519.84-17.12 516.96-17.12L516.96-17.12L516.96-17.12Q511.12-17.12 511.12-21.52L511.12-21.52L511.12-21.52Q511.12-22.56 511.68-24.40L511.68-24.40L511.68-24.40Q512.24-26.24 512.24-27.60L512.24-27.60L512.24-27.60Q512.24-28.96 511.44-29.96L511.44-29.96L511.44-29.96Q510.64-30.96 509.12-30.96L509.12-30.96L509.12-30.96Q507.60-30.96 506.52-29.88L506.52-29.88L506.52-29.88Q505.44-28.80 505.20-27.68L505.20-27.68L504.88-26.56L504.88-26.56Q504.40-24.08 504.40-18.28L504.40-18.28L504.40-18.28Q504.40-12.48 504.56-9.16L504.56-9.16L504.56-9.16Q504.72-5.84 504.88-4.60L504.88-4.60L504.88-4.60Q505.04-3.36 505.04-3.12L505.04-3.12L505.04-3.12Q505.04-1.12 502.56 0.12L502.56 0.12L502.56 0.12Q500.08 1.36 497.60 1.36L497.60 1.36L497.60 1.36Q495.12 1.36 495.12 0.32L495.12 0.32L495.52-2.16L495.52-2.16Q496.64-9.12 496.64-20.32L496.64-20.32L496.64-20.32Q496.64-31.52 495.84-35.52L495.84-35.52L495.84-35.52Q495.84-36.48 497.52-36.48L497.52-36.48L497.52-36.48Q501.84-36.48 503.28-33.52L503.28-33.52L503.28-33.52Q503.36-33.20 503.56-33.20L503.56-33.20L503.56-33.20Q503.76-33.20 504.64-33.92L504.64-33.92L504.64-33.92Q507.28-36.08 510.88-36.08L510.88-36.08L510.88-36.08Q513.12-36.08 515.36-35.20L515.36-35.20L515.36-35.20Q519.92-33.36 519.92-27.52L519.92-27.52" fill="#0077b5" stroke="none" stroke-width="none" transform="translate(-336.7599792480469,21.795279327392574)" style="fill: rgb(0, 119, 181);"></path></g><g class="path" style="transform: scale(0.91); transform-origin: 226.76px -6.76472px; animation: 1s linear -0.132s infinite normal forwards running breath-2acc74a1-16a1-42f7-9c1e-3da38b795882;"><path d="M539.84-31.12L539.84-31.12L539.44-46.24L539.44-46.24Q539.44-49.84 538.64-51.92L538.64-51.92L538.64-51.92Q537.84-54 537.84-54.16L537.84-54.16L537.84-54.16Q537.84-55.92 543.24-56.88L543.24-56.88L543.24-56.88Q548.64-57.84 551.48-57.84L551.48-57.84L551.48-57.84Q554.32-57.84 554.56-56.48L554.56-56.48L554.56-56.48Q559.60-34 563.04-25.28L563.04-25.28L563.04-25.28Q563.44-24.32 563.88-24.32L563.88-24.32L563.88-24.32Q564.32-24.32 564.64-25.04L564.64-25.04L564.64-25.04Q570-40.16 574.08-54.96L574.08-54.96L574.08-54.96Q574.40-55.92 575.68-56.44L575.68-56.44L575.68-56.44Q576.96-56.96 580.12-57.44L580.12-57.44L580.12-57.44Q583.28-57.92 586.40-57.92L586.40-57.92L586.40-57.92Q589.52-57.92 589.52-56.64L589.52-56.64L589.52-56.64Q589.52-56.56 589.28-55.40L589.28-55.40L589.28-55.40Q589.04-54.24 588.80-52.56L588.80-52.56L588.80-52.56Q588.56-50.88 588.24-48.48L588.24-48.48L588.24-48.48Q587.52-42.96 587.32-35.80L587.32-35.80L587.32-35.80Q587.12-28.64 587.12-21.44L587.12-21.44L587.28-13.04L587.28-13.04Q587.28-7.28 588.04-4.84L588.04-4.84L588.04-4.84Q588.80-2.40 588.80-2.04L588.80-2.04L588.80-2.04Q588.80-1.68 588.24-1.20L588.24-1.20L588.24-1.20Q585.76 0.80 580.72 0.80L580.72 0.80L580.72 0.80Q577.52 0.80 577.12-1.36L577.12-1.36L577.12-1.36Q576.88-2.48 576.88-4.92L576.88-4.92L576.88-4.92Q576.88-7.36 577.36-19.92L577.36-19.92L577.36-19.92Q577.84-32.48 577.84-38.20L577.84-38.20L577.84-38.20Q577.84-43.92 577.20-43.92L577.20-43.92L577.20-43.92Q577.12-43.92 577.12-43.88L577.12-43.88L577.12-43.88Q577.12-43.84 576.88-43.76L576.88-43.76L576.88-43.76Q576.64-43.68 575.64-41.28L575.64-41.28L575.64-41.28Q574.64-38.88 571.68-29.44L571.68-29.44L571.68-29.44Q568.72-20 566.32-11.80L566.32-11.80L566.32-11.80Q563.92-3.60 563.68-2.96L563.68-2.96L563.68-2.96Q562.80-0.80 560.32-0.80L560.32-0.80L560.32-0.80Q559.12-0.80 558.40-1.68L558.40-1.68L558.40-1.68Q555.84-13.52 549.28-35.52L549.28-35.52L547.04-42.80L547.04-42.80Q546.88-43.20 546.72-43.20L546.72-43.20L546.72-43.20Q546.32-43.20 546.16-42.64L546.16-42.64L546.16-42.64Q545.84-37.44 545.84-22.20L545.84-22.20L545.84-22.20Q545.84-6.96 546.96-2.96L546.96-2.96L546.96-2.96Q547.04-2.80 547.04-2.48L547.04-2.48L547.04-2.48Q547.04-0.80 544.40-0.04L544.40-0.04L544.40-0.04Q541.76 0.72 539.64 0.72L539.64 0.72L539.64 0.72Q537.52 0.72 537.52-0.24L537.52-0.24L537.52-0.24Q537.52-0.32 537.92-1.52L537.92-1.52L537.92-1.52Q539.12-5.60 539.48-13.36L539.48-13.36L539.48-13.36Q539.84-21.12 539.84-31.12" fill="#0077b5" stroke="none" stroke-width="none" transform="translate(-336.7599792480469,21.795279327392574)" style="fill: rgb(255, 255, 255);"></path></g><g class="path" style="transform: scale(0.91); transform-origin: 263.56px -24.3247px; animation: 1s linear -0.099s infinite normal forwards running breath-2acc74a1-16a1-42f7-9c1e-3da38b795882;"><path d="M601.76-42.80L601.76-42.80L599.84-42.88L599.84-42.88Q597.68-42.88 597.04-41.84L597.04-41.84L597.04-41.84Q596.88-41.60 596.64-41.60L596.64-41.60L596.64-41.60Q595.60-41.60 595.60-45.16L595.60-45.16L595.60-45.16Q595.60-48.72 596.68-49.68L596.68-49.68L596.68-49.68Q597.76-50.64 600.44-50.64L600.44-50.64L600.44-50.64Q603.12-50.64 604.08-49.72L604.08-49.72L604.08-49.72Q605.04-48.80 605.04-46.64L605.04-46.64L605.04-46.64Q605.04-44.48 604.32-43.64L604.32-43.64L604.32-43.64Q603.60-42.80 601.76-42.80" fill="#0077b5" stroke="none" stroke-width="none" transform="translate(-336.7599792480469,21.795279327392574)" style="fill: rgb(0, 119, 181);"></path></g><g class="path" style="transform: scale(0.91); transform-origin: 262.52px 4.63528px; animation: 1s linear -0.066s infinite normal forwards running breath-2acc74a1-16a1-42f7-9c1e-3da38b795882;"><path d="M595.36-2.40L595.36-2.40L596.24-21.04L596.24-21.04Q596.24-27.68 594.72-30.08L594.72-30.08L594.72-30.08Q594.24-30.88 593.60-31.28L593.60-31.28L593.60-31.28Q593.12-31.44 593.12-31.92L593.12-31.92L593.12-31.92Q593.12-33.36 597.20-34.72L597.20-34.72L597.20-34.72Q601.28-36.08 603.16-36.08L603.16-36.08L603.16-36.08Q605.04-36.08 605.12-35.12L605.12-35.12L605.12-35.12Q605.12-33.52 604.68-26.04L604.68-26.04L604.68-26.04Q604.24-18.56 604.24-10.32L604.24-10.32L604.24-10.32Q604.24-2.08 605.20-0.08L605.20-0.08L605.20-0.08Q605.44 0.32 605.44 0.72L605.44 0.72L605.44 0.72Q605.44 1.76 602.40 1.76L602.40 1.76L602.40 1.76Q599.36 1.76 596.16 0.16L596.16 0.16L596.16 0.16Q595.36-0.24 595.36-2.40" fill="#0077b5" stroke="none" stroke-width="none" transform="translate(-336.7599792480469,21.795279327392574)" style="fill: rgb(255, 255, 255);"></path></g><g class="path" style="transform: scale(0.91); transform-origin: 288.2px 4.31528px; animation: 1s linear -0.033s infinite normal forwards running breath-2acc74a1-16a1-42f7-9c1e-3da38b795882;"><path d="M610.32 0.56L610.32 0.56L610.32 0.56Q611.76-8.08 611.76-20.16L611.76-20.16L611.76-20.16Q611.76-32.24 611.04-35.84L611.04-35.84L611.04-35.84Q611.04-36.88 613.44-36.88L613.44-36.88L613.44-36.88Q617.12-36.88 618.32-34.08L618.32-34.08L618.32-34.08Q618.40-33.84 618.72-33.84L618.72-33.84L618.72-33.84Q619.04-33.84 619.20-34L619.20-34L619.20-34Q621.68-36.56 626.88-36.56L626.88-36.56L626.88-36.56Q632.08-36.56 635.12-33.92L635.12-33.92L635.12-33.92Q638.16-31.28 638.16-26.24L638.16-26.24L638.16-26.24Q638.16-23.20 637.64-17.60L637.64-17.60L637.64-17.60Q637.12-12 637.12-9.28L637.12-9.28L637.12-9.28Q637.12-2.80 639.28 0.08L639.28 0.08L639.28 0.08Q639.60 0.48 639.60 0.88L639.60 0.88L639.60 0.88Q639.60 1.92 637.36 1.92L637.36 1.92L637.36 1.92Q627.44 1.92 627.44-6.88L627.44-6.88L627.44-6.88Q627.44-10.24 628.96-16.24L628.96-16.24L628.96-16.24Q630.48-22.24 630.48-25.36L630.48-25.36L630.48-25.36Q630.48-31.76 625.20-31.76L625.20-31.76L625.20-31.76Q622.64-31.76 621.32-30.24L621.32-30.24L621.32-30.24Q620-28.72 619.84-26.76L619.84-26.76L619.84-26.76Q619.68-24.80 619.68-19.36L619.68-19.36L619.68-19.36Q619.68-11.04 620.24-4.88L620.24-4.88L620.40-3.12L620.40-3.12Q620.40-0.88 617.48 0.36L617.48 0.36L617.48 0.36Q614.56 1.60 612.44 1.60L612.44 1.60L612.44 1.60Q610.32 1.60 610.32 0.56" fill="#0077b5" stroke="none" stroke-width="none" transform="translate(-336.7599792480469,21.795279327392574)" style="fill: rgb(0, 119, 181);"></path></g><g class="path" style="transform: scale(0.91); transform-origin: 319.96px -5.52472px; animation: 1s linear 0s infinite normal forwards running breath-2acc74a1-16a1-42f7-9c1e-3da38b795882;"><path d="M658.24-35.92L658.24-35.92L658.24-35.92Q659.68-35.92 660.84-35.56L660.84-35.56L660.84-35.56Q662.00-35.20 662.08-35.20L662.08-35.20L662.56-35.60L662.24-44.32L662.24-44.32Q662.08-46.56 661.28-48.16L661.28-48.16L661.28-48.16Q660.48-49.76 659.84-50.24L659.84-50.24L659.12-50.64L659.12-50.64Q658.64-50.96 658.64-51.36L658.64-51.36L658.64-51.36Q658.64-52.56 662.36-54.16L662.36-54.16L662.36-54.16Q666.08-55.76 668.16-55.76L668.16-55.76L668.16-55.76Q670.24-55.76 670.40-54.88L670.40-54.88L670.40-54.88Q670.80-52.16 670.80-44.52L670.80-44.52L670.80-44.52Q670.80-36.88 670.44-29.52L670.44-29.52L670.44-29.52Q670.08-22.16 670.08-12.84L670.08-12.84L670.08-12.84Q670.08-3.52 671.28-1.12L671.28-1.12L671.28-1.12Q671.60-0.56 671.60-0.08L671.60-0.08L671.60-0.08Q671.60 1.12 668.16 1.12L668.16 1.12L668.16 1.12Q661.60 1.12 661.60-2L661.60-2L661.60-2Q661.44-3.28 661.44-5.96L661.44-5.96L661.44-5.96Q661.44-8.64 661.96-15.96L661.96-15.96L661.96-15.96Q662.48-23.28 662.48-27.24L662.48-27.24L662.48-27.24Q662.48-31.20 658.52-31.20L658.52-31.20L658.52-31.20Q654.56-31.20 652.48-26.56L652.48-26.56L652.48-26.56Q650.40-21.92 650.40-17.28L650.40-17.28L650.40-17.28Q650.40-7.44 655.36-7.44L655.36-7.44L655.36-7.44Q656.08-7.44 656.76-7.72L656.76-7.72L656.76-7.72Q657.44-8 657.60-8L657.60-8L657.60-8Q658.24-8 658.60-7.20L658.60-7.20L658.60-7.20Q658.96-6.40 658.96-5.60L658.96-5.60L658.96-5.60Q658.96-2.88 656.80-1L656.80-1L656.80-1Q654.64 0.88 651.52 0.88L651.52 0.88L651.52 0.88Q646.72 0.88 644.28-3.32L644.28-3.32L644.28-3.32Q641.84-7.52 641.84-13.76L641.84-13.76L641.84-13.76Q641.84-21.68 645.60-28.48L645.60-28.48L645.60-28.48Q647.52-31.84 650.80-33.88L650.80-33.88L650.80-33.88Q654.08-35.92 658.24-35.92" fill="#0077b5" stroke="none" stroke-width="none" transform="translate(-336.7599792480469,21.795279327392574)" style="fill: rgb(255, 255, 255);"></path></g></g>
</g>
</g>
<style id="breath-2acc74a1-16a1-42f7-9c1e-3da38b795882" data-anikit="">@keyframes breath-2acc74a1-16a1-42f7-9c1e-3da38b795882
{
  0% {
    animation-timing-function: cubic-bezier(0.9647,0.2413,-0.0705,0.7911);
    transform: scale(0.9099999999999999);
  }
  51% {
    animation-timing-function: cubic-bezier(0.9226,0.2631,-0.0308,0.7628);
    transform: scale(1.02994);
  }
  100% {
    transform: scale(0.9099999999999999);
  }
}</style></svg>