<?xml version="1.0" encoding="utf-8"?>
<svg xmlns="http://www.w3.org/2000/svg" style="margin: auto; background: rgb(221, 221, 221); display: block; shape-rendering: auto;" width="280" height="250" preserveAspectRatio="xMidYMid">
<style type="text/css">
  text {
    text-anchor: middle; font-size: 75px; opacity: 0;
  }
</style>
<g style="transform-origin:140px 125px;transform:scale(1)">
<g transform="translate(140,125)">
  <g transform="translate(0,0)"><g class="path" style="transform: matrix(1, 0, 0, 1, 0, 0); transform-origin: -376.08px -6.94902px; animation: 100s linear -63.1304s infinite normal forwards running tremble-a5ca0e73-5ee1-4868-916f-5607972755fb;"><path d="M54.97-52.51L41.09 0L38.64 0L28.42-39.51L28.27-41.56L28.05-39.51L17.91 0L15.45 0L1.50-52.51L6.23-52.51L16.52-12.60L16.66-10.66L16.81-12.60L26.92-52.51L29.55-52.51L39.66-12.60L39.81-10.66L39.99-12.60L50.24-52.51L54.97-52.51" fill="#0077b5" stroke="none" stroke-width="none" transform="translate(-404.31500244140625,19.305977133046024)" style="fill: rgb(0, 119, 181);"></path></g><g class="path" style="transform: matrix(1, 0, 0, 1, 0, 0); transform-origin: -331.88px 0.555977px; animation: 100s linear -60.2609s infinite normal forwards running tremble-a5ca0e73-5ee1-4868-916f-5607972755fb;"><path d="M84.96-10.29L84.96-10.29L84.96-10.29Q84.96-8.02 84.10-6.01L84.10-6.01L84.10-6.01Q83.24-3.99 81.74-2.49L81.74-2.49L81.74-2.49Q80.24-0.99 78.22-0.13L78.22-0.13L78.22-0.13Q76.21 0.73 73.94 0.73L73.94 0.73L70.94 0.73L70.94 0.73Q68.66 0.73 66.65-0.13L66.65-0.13L66.65-0.13Q64.64-0.99 63.13-2.49L63.13-2.49L63.13-2.49Q61.63-3.99 60.77-6.01L60.77-6.01L60.77-6.01Q59.91-8.02 59.91-10.29L59.91-10.29L59.91-27.21L59.91-27.21Q59.91-29.48 60.77-31.49L60.77-31.49L60.77-31.49Q61.63-33.51 63.13-35.01L63.13-35.01L63.13-35.01Q64.64-36.51 66.65-37.37L66.65-37.37L66.65-37.37Q68.66-38.23 70.94-38.23L70.94-38.23L73.94-38.23L73.94-38.23Q76.21-38.23 78.22-37.37L78.22-37.37L78.22-37.37Q80.24-36.51 81.74-35.01L81.74-35.01L81.74-35.01Q83.24-33.51 84.10-31.49L84.10-31.49L84.10-31.49Q84.96-29.48 84.96-27.21L84.96-27.21L84.96-18.38L64.42-18.38L64.42-10.03L64.42-10.03Q64.42-8.68 64.93-7.49L64.93-7.49L64.93-7.49Q65.44-6.30 66.32-5.42L66.32-5.42L66.32-5.42Q67.20-4.54 68.39-4.03L68.39-4.03L68.39-4.03Q69.58-3.52 70.94-3.52L70.94-3.52L73.94-3.52L73.94-3.52Q75.29-3.52 76.48-4.03L76.48-4.03L76.48-4.03Q77.67-4.54 78.55-5.42L78.55-5.42L78.55-5.42Q79.43-6.30 79.94-7.49L79.94-7.49L79.94-7.49Q80.46-8.68 80.46-10.03L80.46-10.03L80.46-12.52L84.96-11.79L84.96-10.29zM80.46-21.90L80.46-27.47L80.46-27.47Q80.46-28.82 79.94-30.01L79.94-30.01L79.94-30.01Q79.43-31.20 78.55-32.08L78.55-32.08L78.55-32.08Q77.67-32.96 76.48-33.47L76.48-33.47L76.48-33.47Q75.29-33.98 73.94-33.98L73.94-33.98L70.94-33.98L70.94-33.98Q69.58-33.98 68.39-33.47L68.39-33.47L68.39-33.47Q67.20-32.96 66.32-32.08L66.32-32.08L66.32-32.08Q65.44-31.20 64.93-30.01L64.93-30.01L64.93-30.01Q64.42-28.82 64.42-27.47L64.42-27.47L64.42-21.90L80.46-21.90" fill="#0077b5" stroke="none" stroke-width="none" transform="translate(-404.31500244140625,19.305977133046024)" style="fill: rgb(255, 255, 255);"></path></g><g class="path" style="transform: matrix(1, 0, 0, 1, 0, 0); transform-origin: -306.59px -6.94902px; animation: 100s linear -57.3913s infinite normal forwards running tremble-a5ca0e73-5ee1-4868-916f-5607972755fb;"><path d="M99.98 0L95.47 0L95.47-52.51L99.98-52.51L99.98 0" fill="#0077b5" stroke="none" stroke-width="none" transform="translate(-404.31500244140625,19.305977133046024)" style="fill: rgb(0, 119, 181);"></path></g><g class="path" style="transform: matrix(1, 0, 0, 1, 0, 0); transform-origin: -281.305px 0.555977px; animation: 100s linear -54.5217s infinite normal forwards running tremble-a5ca0e73-5ee1-4868-916f-5607972755fb;"><path d="M135.53-10.29L135.53-10.29L135.53-10.29Q135.53-8.02 134.67-6.01L134.67-6.01L134.67-6.01Q133.81-3.99 132.31-2.49L132.31-2.49L132.31-2.49Q130.81-0.99 128.80-0.13L128.80-0.13L128.80-0.13Q126.78 0.73 124.51 0.73L124.51 0.73L121.51 0.73L121.51 0.73Q119.24 0.73 117.22-0.13L117.22-0.13L117.22-0.13Q115.21-0.99 113.71-2.49L113.71-2.49L113.71-2.49Q112.21-3.99 111.35-6.01L111.35-6.01L111.35-6.01Q110.49-8.02 110.49-10.29L110.49-10.29L110.49-27.21L110.49-27.21Q110.49-29.48 111.35-31.49L111.35-31.49L111.35-31.49Q112.21-33.51 113.71-35.01L113.71-35.01L113.71-35.01Q115.21-36.51 117.22-37.37L117.22-37.37L117.22-37.37Q119.24-38.23 121.51-38.23L121.51-38.23L124.51-38.23L124.51-38.23Q126.78-38.23 128.80-37.37L128.80-37.37L128.80-37.37Q130.81-36.51 132.31-35.01L132.31-35.01L132.31-35.01Q133.81-33.51 134.67-31.49L134.67-31.49L134.67-31.49Q135.53-29.48 135.53-27.21L135.53-27.21L135.53-25.71L131.03-24.98L131.03-27.47L131.03-27.47Q131.03-28.82 130.52-30.01L130.52-30.01L130.52-30.01Q130.00-31.20 129.13-32.08L129.13-32.08L129.13-32.08Q128.25-32.96 127.06-33.47L127.06-33.47L127.06-33.47Q125.87-33.98 124.51-33.98L124.51-33.98L121.51-33.98L121.51-33.98Q120.15-33.98 118.96-33.47L118.96-33.47L118.96-33.47Q117.77-32.96 116.89-32.08L116.89-32.08L116.89-32.08Q116.02-31.20 115.50-30.01L115.50-30.01L115.50-30.01Q114.99-28.82 114.99-27.47L114.99-27.47L114.99-10.03L114.99-10.03Q114.99-8.68 115.50-7.49L115.50-7.49L115.50-7.49Q116.02-6.30 116.89-5.42L116.89-5.42L116.89-5.42Q117.77-4.54 118.96-4.03L118.96-4.03L118.96-4.03Q120.15-3.52 121.51-3.52L121.51-3.52L124.51-3.52L124.51-3.52Q125.87-3.52 127.06-4.03L127.06-4.03L127.06-4.03Q128.25-4.54 129.13-5.42L129.13-5.42L129.13-5.42Q130.00-6.30 130.52-7.49L130.52-7.49L130.52-7.49Q131.03-8.68 131.03-10.03L131.03-10.03L131.03-12.52L135.53-11.79L135.53-10.29" fill="#0077b5" stroke="none" stroke-width="none" transform="translate(-404.31500244140625,19.305977133046024)" style="fill: rgb(255, 255, 255);"></path></g><g class="path" style="transform: matrix(1, 0, 0, 1, 0, 0); transform-origin: -247.25px 0.555977px; animation: 100s linear -51.6522s infinite normal forwards running tremble-a5ca0e73-5ee1-4868-916f-5607972755fb;"><path d="M169.59-10.29L169.59-10.29L169.59-10.29Q169.59-8.02 168.73-6.01L168.73-6.01L168.73-6.01Q167.87-3.99 166.37-2.49L166.37-2.49L166.37-2.49Q164.87-0.99 162.85-0.13L162.85-0.13L162.85-0.13Q160.84 0.73 158.57 0.73L158.57 0.73L155.57 0.73L155.57 0.73Q153.30 0.73 151.28-0.13L151.28-0.13L151.28-0.13Q149.27-0.99 147.77-2.49L147.77-2.49L147.77-2.49Q146.26-3.99 145.40-6.01L145.40-6.01L145.40-6.01Q144.54-8.02 144.54-10.29L144.54-10.29L144.54-27.21L144.54-27.21Q144.54-29.48 145.40-31.49L145.40-31.49L145.40-31.49Q146.26-33.51 147.77-35.01L147.77-35.01L147.77-35.01Q149.27-36.51 151.28-37.37L151.28-37.37L151.28-37.37Q153.30-38.23 155.57-38.23L155.57-38.23L158.57-38.23L158.57-38.23Q160.84-38.23 162.85-37.37L162.85-37.37L162.85-37.37Q164.87-36.51 166.37-35.01L166.37-35.01L166.37-35.01Q167.87-33.51 168.73-31.49L168.73-31.49L168.73-31.49Q169.59-29.48 169.59-27.21L169.59-27.21L169.59-10.29zM165.09-10.03L165.09-27.47L165.09-27.47Q165.09-28.82 164.58-30.01L164.58-30.01L164.58-30.01Q164.06-31.20 163.18-32.08L163.18-32.08L163.18-32.08Q162.30-32.96 161.11-33.47L161.11-33.47L161.11-33.47Q159.92-33.98 158.57-33.98L158.57-33.98L155.57-33.98L155.57-33.98Q154.21-33.98 153.02-33.47L153.02-33.47L153.02-33.47Q151.83-32.96 150.95-32.08L150.95-32.08L150.95-32.08Q150.07-31.20 149.56-30.01L149.56-30.01L149.56-30.01Q149.05-28.82 149.05-27.47L149.05-27.47L149.05-10.03L149.05-10.03Q149.05-8.68 149.56-7.49L149.56-7.49L149.56-7.49Q150.07-6.30 150.95-5.42L150.95-5.42L150.95-5.42Q151.83-4.54 153.02-4.03L153.02-4.03L153.02-4.03Q154.21-3.52 155.57-3.52L155.57-3.52L158.57-3.52L158.57-3.52Q159.92-3.52 161.11-4.03L161.11-4.03L161.11-4.03Q162.30-4.54 163.18-5.42L163.18-5.42L163.18-5.42Q164.06-6.30 164.58-7.49L164.58-7.49L164.58-7.49Q165.09-8.68 165.09-10.03L165.09-10.03" fill="#0077b5" stroke="none" stroke-width="none" transform="translate(-404.31500244140625,19.305977133046024)" style="fill: rgb(0, 119, 181);"></path></g><g class="path" style="transform: matrix(1, 0, 0, 1, 0, 0); transform-origin: -203.67px 0.190977px; animation: 100s linear -48.7826s infinite normal forwards running tremble-a5ca0e73-5ee1-4868-916f-5607972755fb;"><path d="M222.69 0L218.19 0L218.19-27.47L218.19-27.47Q218.19-28.82 217.68-30.01L217.68-30.01L217.68-30.01Q217.16-31.20 216.28-32.08L216.28-32.08L216.28-32.08Q215.41-32.96 214.22-33.47L214.22-33.47L214.22-33.47Q213.02-33.98 211.67-33.98L211.67-33.98L209.44-33.98L209.44-33.98Q208.08-33.98 206.89-33.47L206.89-33.47L206.89-33.47Q205.70-32.96 204.80-32.08L204.80-32.08L204.80-32.08Q203.91-31.20 203.39-30.01L203.39-30.01L203.39-30.01Q202.88-28.82 202.88-27.47L202.88-27.47L202.88 0L198.41 0L198.41-27.47L198.41-27.47Q198.41-28.82 197.90-30.01L197.90-30.01L197.90-30.01Q197.39-31.20 196.49-32.08L196.49-32.08L196.49-32.08Q195.59-32.96 194.40-33.47L194.40-33.47L194.40-33.47Q193.21-33.98 191.86-33.98L191.86-33.98L189.62-33.98L189.62-33.98Q188.27-33.98 187.08-33.47L187.08-33.47L187.08-33.47Q185.89-32.96 185.01-32.08L185.01-32.08L185.01-32.08Q184.13-31.20 183.62-30.01L183.62-30.01L183.62-30.01Q183.11-28.82 183.11-27.47L183.11-27.47L183.11 0L178.60 0L178.60-37.50L180.10-37.50L182.56-33.69L182.56-33.69Q184.09-35.78 186.42-37.01L186.42-37.01L186.42-37.01Q188.75-38.23 191.49-38.23L191.49-38.23L191.86-38.23L191.86-38.23Q195.04-38.23 197.61-36.66L197.61-36.66L197.61-36.66Q200.17-35.08 201.56-32.48L201.56-32.48L201.56-32.48Q202.26-33.76 203.28-34.83L203.28-34.83L203.28-34.83Q204.31-35.89 205.55-36.64L205.55-36.64L205.55-36.64Q206.80-37.39 208.26-37.81L208.26-37.81L208.26-37.81Q209.73-38.23 211.30-38.23L211.30-38.23L211.67-38.23L211.67-38.23Q213.94-38.23 215.95-37.37L215.95-37.37L215.95-37.37Q217.97-36.51 219.47-35.01L219.47-35.01L219.47-35.01Q220.97-33.51 221.83-31.49L221.83-31.49L221.83-31.49Q222.69-29.48 222.69-27.21L222.69-27.21L222.69 0" fill="#0077b5" stroke="none" stroke-width="none" transform="translate(-404.31500244140625,19.305977133046024)" style="fill: rgb(255, 255, 255);"></path></g><g class="path" style="transform: matrix(1, 0, 0, 1, 0, 0); transform-origin: -160.09px 0.555977px; animation: 100s linear -45.913s infinite normal forwards running tremble-a5ca0e73-5ee1-4868-916f-5607972755fb;"><path d="M256.75-10.29L256.75-10.29L256.75-10.29Q256.75-8.02 255.89-6.01L255.89-6.01L255.89-6.01Q255.03-3.99 253.53-2.49L253.53-2.49L253.53-2.49Q252.03-0.99 250.01-0.13L250.01-0.13L250.01-0.13Q248.00 0.73 245.73 0.73L245.73 0.73L242.72 0.73L242.72 0.73Q240.45 0.73 238.44-0.13L238.44-0.13L238.44-0.13Q236.43-0.99 234.92-2.49L234.92-2.49L234.92-2.49Q233.42-3.99 232.56-6.01L232.56-6.01L232.56-6.01Q231.70-8.02 231.70-10.29L231.70-10.29L231.70-27.21L231.70-27.21Q231.70-29.48 232.56-31.49L232.56-31.49L232.56-31.49Q233.42-33.51 234.92-35.01L234.92-35.01L234.92-35.01Q236.43-36.51 238.44-37.37L238.44-37.37L238.44-37.37Q240.45-38.23 242.72-38.23L242.72-38.23L245.73-38.23L245.73-38.23Q248.00-38.23 250.01-37.37L250.01-37.37L250.01-37.37Q252.03-36.51 253.53-35.01L253.53-35.01L253.53-35.01Q255.03-33.51 255.89-31.49L255.89-31.49L255.89-31.49Q256.75-29.48 256.75-27.21L256.75-27.21L256.75-18.38L236.21-18.38L236.21-10.03L236.21-10.03Q236.21-8.68 236.72-7.49L236.72-7.49L236.72-7.49Q237.23-6.30 238.11-5.42L238.11-5.42L238.11-5.42Q238.99-4.54 240.18-4.03L240.18-4.03L240.18-4.03Q241.37-3.52 242.72-3.52L242.72-3.52L245.73-3.52L245.73-3.52Q247.08-3.52 248.27-4.03L248.27-4.03L248.27-4.03Q249.46-4.54 250.34-5.42L250.34-5.42L250.34-5.42Q251.22-6.30 251.73-7.49L251.73-7.49L251.73-7.49Q252.25-8.68 252.25-10.03L252.25-10.03L252.25-12.52L256.75-11.79L256.75-10.29zM252.25-21.90L252.25-27.47L252.25-27.47Q252.25-28.82 251.73-30.01L251.73-30.01L251.73-30.01Q251.22-31.20 250.34-32.08L250.34-32.08L250.34-32.08Q249.46-32.96 248.27-33.47L248.27-33.47L248.27-33.47Q247.08-33.98 245.73-33.98L245.73-33.98L242.72-33.98L242.72-33.98Q241.37-33.98 240.18-33.47L240.18-33.47L240.18-33.47Q238.99-32.96 238.11-32.08L238.11-32.08L238.11-32.08Q237.23-31.20 236.72-30.01L236.72-30.01L236.72-30.01Q236.21-28.82 236.21-27.47L236.21-27.47L236.21-21.90L252.25-21.90" fill="#0077b5" stroke="none" stroke-width="none" transform="translate(-404.31500244140625,19.305977133046024)" style="fill: rgb(0, 119, 181);"></path></g><g class="path" style="transform: matrix(1, 0, 0, 1, 0, 0); transform-origin: -113.93px -4.31402px; animation: 100s linear -43.0435s infinite normal forwards running tremble-a5ca0e73-5ee1-4868-916f-5607972755fb;"><path d="M300.77 0L296.67 0L296.67 0Q294.62 0 292.80-0.77L292.80-0.77L292.80-0.77Q290.99-1.54 289.65-2.89L289.65-2.89L289.65-2.89Q288.32-4.25 287.53-6.04L287.53-6.04L287.53-6.04Q286.74-7.84 286.74-9.89L286.74-9.89L286.74-33.22L280.00-33.22L280.00-37.50L286.74-37.50L286.74-46.51L291.25-47.24L291.25-37.50L300.77-37.50L300.77-33.22L291.25-33.22L291.25-9.67L291.25-9.67Q291.25-8.53 291.67-7.56L291.67-7.56L291.67-7.56Q292.09-6.59 292.82-5.86L292.82-5.86L292.82-5.86Q293.55-5.13 294.54-4.71L294.54-4.71L294.54-4.71Q295.53-4.28 296.67-4.28L296.67-4.28L300.77-4.28L300.77 0" fill="#0077b5" stroke="none" stroke-width="none" transform="translate(-404.31500244140625,19.305977133046024)" style="fill: rgb(255, 255, 255);"></path></g><g class="path" style="transform: matrix(1, 0, 0, 1, 0, 0); transform-origin: -82.745px 0.555977px; animation: 100s linear -40.1739s infinite normal forwards running tremble-a5ca0e73-5ee1-4868-916f-5607972755fb;"><path d="M334.09-10.29L334.09-10.29L334.09-10.29Q334.09-8.02 333.23-6.01L333.23-6.01L333.23-6.01Q332.37-3.99 330.87-2.49L330.87-2.49L330.87-2.49Q329.37-0.99 327.36-0.13L327.36-0.13L327.36-0.13Q325.34 0.73 323.07 0.73L323.07 0.73L320.07 0.73L320.07 0.73Q317.80 0.73 315.78-0.13L315.78-0.13L315.78-0.13Q313.77-0.99 312.27-2.49L312.27-2.49L312.27-2.49Q310.77-3.99 309.91-6.01L309.91-6.01L309.91-6.01Q309.05-8.02 309.05-10.29L309.05-10.29L309.05-27.21L309.05-27.21Q309.05-29.48 309.91-31.49L309.91-31.49L309.91-31.49Q310.77-33.51 312.27-35.01L312.27-35.01L312.27-35.01Q313.77-36.51 315.78-37.37L315.78-37.37L315.78-37.37Q317.80-38.23 320.07-38.23L320.07-38.23L323.07-38.23L323.07-38.23Q325.34-38.23 327.36-37.37L327.36-37.37L327.36-37.37Q329.37-36.51 330.87-35.01L330.87-35.01L330.87-35.01Q332.37-33.51 333.23-31.49L333.23-31.49L333.23-31.49Q334.09-29.48 334.09-27.21L334.09-27.21L334.09-10.29zM329.59-10.03L329.59-27.47L329.59-27.47Q329.59-28.82 329.08-30.01L329.08-30.01L329.08-30.01Q328.56-31.20 327.69-32.08L327.69-32.08L327.69-32.08Q326.81-32.96 325.62-33.47L325.62-33.47L325.62-33.47Q324.43-33.98 323.07-33.98L323.07-33.98L320.07-33.98L320.07-33.98Q318.71-33.98 317.52-33.47L317.52-33.47L317.52-33.47Q316.33-32.96 315.45-32.08L315.45-32.08L315.45-32.08Q314.58-31.20 314.06-30.01L314.06-30.01L314.06-30.01Q313.55-28.82 313.55-27.47L313.55-27.47L313.55-10.03L313.55-10.03Q313.55-8.68 314.06-7.49L314.06-7.49L314.06-7.49Q314.58-6.30 315.45-5.42L315.45-5.42L315.45-5.42Q316.33-4.54 317.52-4.03L317.52-4.03L317.52-4.03Q318.71-3.52 320.07-3.52L320.07-3.52L323.07-3.52L323.07-3.52Q324.43-3.52 325.62-4.03L325.62-4.03L325.62-4.03Q326.81-4.54 327.69-5.42L327.69-5.42L327.69-5.42Q328.56-6.30 329.08-7.49L329.08-7.49L329.08-7.49Q329.59-8.68 329.59-10.03L329.59-10.03" fill="#0077b5" stroke="none" stroke-width="none" transform="translate(-404.31500244140625,19.305977133046024)" style="fill: rgb(0, 119, 181);"></path></g><g class="path" style="transform: matrix(1, 0, 0, 1, 0, 0); transform-origin: -36.585px -4.31402px; animation: 100s linear -37.3043s infinite normal forwards running tremble-a5ca0e73-5ee1-4868-916f-5607972755fb;"><path d="M378.11 0L374.01 0L374.01 0Q371.96 0 370.15-0.77L370.15-0.77L370.15-0.77Q368.33-1.54 367.00-2.89L367.00-2.89L367.00-2.89Q365.66-4.25 364.87-6.04L364.87-6.04L364.87-6.04Q364.09-7.84 364.09-9.89L364.09-9.89L364.09-33.22L357.35-33.22L357.35-37.50L364.09-37.50L364.09-46.51L368.59-47.24L368.59-37.50L378.11-37.50L378.11-33.22L368.59-33.22L368.59-9.67L368.59-9.67Q368.59-8.53 369.01-7.56L369.01-7.56L369.01-7.56Q369.43-6.59 370.17-5.86L370.17-5.86L370.17-5.86Q370.90-5.13 371.89-4.71L371.89-4.71L371.89-4.71Q372.88-4.28 374.01-4.28L374.01-4.28L378.11-4.28L378.11 0" fill="#0077b5" stroke="none" stroke-width="none" transform="translate(-404.31500244140625,19.305977133046024)" style="fill: rgb(255, 255, 255);"></path></g><g class="path" style="transform: matrix(1, 0, 0, 1, 0, 0); transform-origin: -5.39999px -6.94902px; animation: 100s linear -34.4348s infinite normal forwards running tremble-a5ca0e73-5ee1-4868-916f-5607972755fb;"><path d="M411.44 0L406.93 0L406.93-27.47L406.93-27.47Q406.93-28.82 406.42-30.01L406.42-30.01L406.42-30.01Q405.91-31.20 405.03-32.08L405.03-32.08L405.03-32.08Q404.15-32.96 402.96-33.47L402.96-33.47L402.96-33.47Q401.77-33.98 400.42-33.98L400.42-33.98L397.41-33.98L397.41-33.98Q396.06-33.98 394.87-33.47L394.87-33.47L394.87-33.47Q393.68-32.96 392.80-32.08L392.80-32.08L392.80-32.08Q391.92-31.20 391.41-30.01L391.41-30.01L391.41-30.01Q390.89-28.82 390.89-27.47L390.89-27.47L390.89 0L386.39 0L386.39-52.51L390.89-52.51L390.89-34.35L390.89-34.35Q392.43-36.18 394.59-37.21L394.59-37.21L394.59-37.21Q396.75-38.23 399.28-38.23L399.28-38.23L400.42-38.23L400.42-38.23Q402.69-38.23 404.70-37.37L404.70-37.37L404.70-37.37Q406.71-36.51 408.22-35.01L408.22-35.01L408.22-35.01Q409.72-33.51 410.58-31.49L410.58-31.49L410.58-31.49Q411.44-29.48 411.44-27.21L411.44-27.21L411.44 0" fill="#0077b5" stroke="none" stroke-width="none" transform="translate(-404.31500244140625,19.305977133046024)" style="fill: rgb(0, 119, 181);"></path></g><g class="path" style="transform: matrix(1, 0, 0, 1, 0, 0); transform-origin: 28.66px 0.555977px; animation: 100s linear -31.5652s infinite normal forwards running tremble-a5ca0e73-5ee1-4868-916f-5607972755fb;"><path d="M445.50-10.29L445.50-10.29L445.50-10.29Q445.50-8.02 444.64-6.01L444.64-6.01L444.64-6.01Q443.77-3.99 442.27-2.49L442.27-2.49L442.27-2.49Q440.77-0.99 438.76-0.13L438.76-0.13L438.76-0.13Q436.74 0.73 434.47 0.73L434.47 0.73L431.47 0.73L431.47 0.73Q429.20 0.73 427.19-0.13L427.19-0.13L427.19-0.13Q425.17-0.99 423.67-2.49L423.67-2.49L423.67-2.49Q422.17-3.99 421.31-6.01L421.31-6.01L421.31-6.01Q420.45-8.02 420.45-10.29L420.45-10.29L420.45-27.21L420.45-27.21Q420.45-29.48 421.31-31.49L421.31-31.49L421.31-31.49Q422.17-33.51 423.67-35.01L423.67-35.01L423.67-35.01Q425.17-36.51 427.19-37.37L427.19-37.37L427.19-37.37Q429.20-38.23 431.47-38.23L431.47-38.23L434.47-38.23L434.47-38.23Q436.74-38.23 438.76-37.37L438.76-37.37L438.76-37.37Q440.77-36.51 442.27-35.01L442.27-35.01L442.27-35.01Q443.77-33.51 444.64-31.49L444.64-31.49L444.64-31.49Q445.50-29.48 445.50-27.21L445.50-27.21L445.50-18.38L424.95-18.38L424.95-10.03L424.95-10.03Q424.95-8.68 425.46-7.49L425.46-7.49L425.46-7.49Q425.98-6.30 426.86-5.42L426.86-5.42L426.86-5.42Q427.73-4.54 428.92-4.03L428.92-4.03L428.92-4.03Q430.11-3.52 431.47-3.52L431.47-3.52L434.47-3.52L434.47-3.52Q435.83-3.52 437.02-4.03L437.02-4.03L437.02-4.03Q438.21-4.54 439.09-5.42L439.09-5.42L439.09-5.42Q439.97-6.30 440.48-7.49L440.48-7.49L440.48-7.49Q440.99-8.68 440.99-10.03L440.99-10.03L440.99-12.52L445.50-11.79L445.50-10.29zM440.99-21.90L440.99-27.47L440.99-27.47Q440.99-28.82 440.48-30.01L440.48-30.01L440.48-30.01Q439.97-31.20 439.09-32.08L439.09-32.08L439.09-32.08Q438.21-32.96 437.02-33.47L437.02-33.47L437.02-33.47Q435.83-33.98 434.47-33.98L434.47-33.98L431.47-33.98L431.47-33.98Q430.11-33.98 428.92-33.47L428.92-33.47L428.92-33.47Q427.73-32.96 426.86-32.08L426.86-32.08L426.86-32.08Q425.98-31.20 425.46-30.01L425.46-30.01L425.46-30.01Q424.95-28.82 424.95-27.47L424.95-27.47L424.95-21.90L440.99-21.90" fill="#0077b5" stroke="none" stroke-width="none" transform="translate(-404.31500244140625,19.305977133046024)" style="fill: rgb(255, 255, 255);"></path></g><g class="path" style="transform: matrix(1, 0, 0, 1, 0, 0); transform-origin: 87.465px -6.94902px; animation: 100s linear -28.6957s infinite normal forwards running tremble-a5ca0e73-5ee1-4868-916f-5607972755fb;"><path d="M510.31 0L505.59 0L505.59-36.00L505.26-33.76L493.07 0L490.58 0L478.27-33.76L477.98-36.00L477.98 0L473.25 0L473.25-52.51L475.71-52.51L491.64-9.45L491.78-7.51L491.93-9.45L507.82-52.51L510.31-52.51L510.31 0" fill="#0077b5" stroke="none" stroke-width="none" transform="translate(-404.31500244140625,19.305977133046024)" style="fill: rgb(0, 119, 181);"></path></g><g class="path" style="transform: matrix(1, 0, 0, 1, 0, 0); transform-origin: 128.265px 0.555977px; animation: 100s linear -25.8261s infinite normal forwards running tremble-a5ca0e73-5ee1-4868-916f-5607972755fb;"><path d="M545.10 0L543.60 0L541.11-3.74L541.11-3.74Q539.58-1.72 537.27-0.49L537.27-0.49L537.27-0.49Q534.96 0.73 532.21 0.73L532.21 0.73L531.08 0.73L531.08 0.73Q528.81 0.73 526.79-0.13L526.79-0.13L526.79-0.13Q524.78-0.99 523.28-2.49L523.28-2.49L523.28-2.49Q521.78-3.99 520.92-6.01L520.92-6.01L520.92-6.01Q520.06-8.02 520.06-10.29L520.06-10.29L520.06-10.66L520.06-10.66Q520.06-12.93 520.92-14.94L520.92-14.94L520.92-14.94Q521.78-16.96 523.28-18.46L523.28-18.46L523.28-18.46Q524.78-19.96 526.79-20.82L526.79-20.82L526.79-20.82Q528.81-21.68 531.08-21.68L531.08-21.68L540.60-21.68L540.60-27.47L540.60-27.47Q540.60-28.82 540.09-30.01L540.09-30.01L540.09-30.01Q539.58-31.20 538.70-32.08L538.70-32.08L538.70-32.08Q537.82-32.96 536.63-33.47L536.63-33.47L536.63-33.47Q535.44-33.98 534.08-33.98L534.08-33.98L531.45-33.98L531.45-33.98Q530.09-33.98 528.90-33.47L528.90-33.47L528.90-33.47Q527.71-32.96 526.83-32.08L526.83-32.08L526.83-32.08Q525.95-31.20 525.44-30.01L525.44-30.01L525.44-30.01Q524.93-28.82 524.93-27.47L524.93-27.47L524.93-26.11L520.42-26.84L520.42-27.21L520.42-27.21Q520.42-29.48 521.28-31.49L521.28-31.49L521.28-31.49Q522.14-33.51 523.65-35.01L523.65-35.01L523.65-35.01Q525.15-36.51 527.16-37.37L527.16-37.37L527.16-37.37Q529.17-38.23 531.45-38.23L531.45-38.23L534.08-38.23L534.08-38.23Q536.35-38.23 538.37-37.37L538.37-37.37L538.37-37.37Q540.38-36.51 541.88-35.01L541.88-35.01L541.88-35.01Q543.38-33.51 544.24-31.49L544.24-31.49L544.24-31.49Q545.10-29.48 545.10-27.21L545.10-27.21L545.10 0zM540.60-10.03L540.60-18.16L531.08-18.16L531.08-18.16Q529.72-18.16 528.53-17.65L528.53-17.65L528.53-17.65Q527.34-17.14 526.46-16.24L526.46-16.24L526.46-16.24Q525.59-15.34 525.07-14.15L525.07-14.15L525.07-14.15Q524.56-12.96 524.56-11.61L524.56-11.61L524.56-10.03L524.56-10.03Q524.56-8.68 525.07-7.49L525.07-7.49L525.07-7.49Q525.59-6.30 526.46-5.42L526.46-5.42L526.46-5.42Q527.34-4.54 528.53-4.03L528.53-4.03L528.53-4.03Q529.72-3.52 531.08-3.52L531.08-3.52L534.08-3.52L534.08-3.52Q535.44-3.52 536.63-4.03L536.63-4.03L536.63-4.03Q537.82-4.54 538.70-5.42L538.70-5.42L538.70-5.42Q539.58-6.30 540.09-7.49L540.09-7.49L540.09-7.49Q540.60-8.68 540.60-10.03L540.60-10.03" fill="#0077b5" stroke="none" stroke-width="none" transform="translate(-404.31500244140625,19.305977133046024)" style="fill: rgb(255, 255, 255);"></path></g><g class="path" style="transform: matrix(1, 0, 0, 1, 0, 0); transform-origin: 162.69px 0.555977px; animation: 100s linear -22.9565s infinite normal forwards running tremble-a5ca0e73-5ee1-4868-916f-5607972755fb;"><path d="M579.90-9.52L579.90-9.52L579.90-9.52Q579.90-7.25 578.98-5.36L578.98-5.36L578.98-5.36Q578.06-3.48 576.49-2.12L576.49-2.12L576.49-2.12Q574.91-0.77 572.85-0.02L572.85-0.02L572.85-0.02Q570.78 0.73 568.51 0.73L568.51 0.73L565.50 0.73L565.50 0.73Q563.23 0.73 561.16-0.13L561.16-0.13L561.16-0.13Q559.09-0.99 557.54-2.49L557.54-2.49L557.54-2.49Q555.98-3.99 555.05-6.01L555.05-6.01L555.05-6.01Q554.11-8.02 554.11-10.29L554.11-10.29L554.11-11.79L558.62-12.52L558.62-10.03L558.62-10.03Q558.62-8.68 559.19-7.49L559.19-7.49L559.19-7.49Q559.75-6.30 560.71-5.42L560.71-5.42L560.71-5.42Q561.66-4.54 562.90-4.03L562.90-4.03L562.90-4.03Q564.15-3.52 565.50-3.52L565.50-3.52L568.51-3.52L568.51-3.52Q569.86-3.52 571.11-3.92L571.11-3.92L571.11-3.92Q572.35-4.32 573.32-5.07L573.32-5.07L573.32-5.07Q574.29-5.82 574.86-6.88L574.86-6.88L574.86-6.88Q575.43-7.95 575.43-9.30L575.43-9.30L575.43-9.30Q575.43-11.32 574.55-12.60L574.55-12.60L574.55-12.60Q573.67-13.88 572.22-14.74L572.22-14.74L572.22-14.74Q570.78-15.60 568.93-16.17L568.93-16.17L568.93-16.17Q567.08-16.74 565.14-17.30L565.14-17.30L565.14-17.30Q563.20-17.87 561.35-18.60L561.35-18.60L561.35-18.60Q559.50-19.34 558.05-20.53L558.05-20.53L558.05-20.53Q556.60-21.72 555.73-23.51L555.73-23.51L555.73-23.51Q554.85-25.31 554.85-27.98L554.85-27.98L554.85-27.98Q554.85-30.25 555.73-32.14L555.73-32.14L555.73-32.14Q556.60-34.02 558.11-35.38L558.11-35.38L558.11-35.38Q559.61-36.73 561.60-37.48L561.60-37.48L561.60-37.48Q563.60-38.23 565.87-38.23L565.87-38.23L568.51-38.23L568.51-38.23Q570.78-38.23 572.79-37.37L572.79-37.37L572.79-37.37Q574.80-36.51 576.31-35.01L576.31-35.01L576.31-35.01Q577.81-33.51 578.67-31.49L578.67-31.49L578.67-31.49Q579.53-29.48 579.53-27.21L579.53-27.21L579.53-27.06L575.02-26.33L575.02-27.47L575.02-27.47Q575.02-28.82 574.51-30.01L574.51-30.01L574.51-30.01Q574.00-31.20 573.12-32.08L573.12-32.08L573.12-32.08Q572.24-32.96 571.05-33.47L571.05-33.47L571.05-33.47Q569.86-33.98 568.51-33.98L568.51-33.98L565.87-33.98L565.87-33.98Q564.51-33.98 563.32-33.58L563.32-33.58L563.32-33.58Q562.13-33.18 561.25-32.43L561.25-32.43L561.25-32.43Q560.38-31.68 559.86-30.62L559.86-30.62L559.86-30.62Q559.35-29.55 559.35-28.20L559.35-28.20L559.35-28.20Q559.35-26.26 560.23-25.03L560.23-25.03L560.23-25.03Q561.11-23.80 562.55-22.96L562.55-22.96L562.55-22.96Q564.00-22.12 565.85-21.55L565.85-21.55L565.85-21.55Q567.70-20.98 569.62-20.38L569.62-20.38L569.62-20.38Q571.55-19.78 573.39-19.01L573.39-19.01L573.39-19.01Q575.24-18.24 576.69-17.03L576.69-17.03L576.69-17.03Q578.14-15.82 579.02-14.01L579.02-14.01L579.02-14.01Q579.90-12.19 579.90-9.52" fill="#0077b5" stroke="none" stroke-width="none" transform="translate(-404.31500244140625,19.305977133046024)" style="fill: rgb(0, 119, 181);"></path></g><g class="path" style="transform: matrix(1, 0, 0, 1, 0, 0); transform-origin: 191.6px -4.31402px; animation: 100s linear -20.087s infinite normal forwards running tremble-a5ca0e73-5ee1-4868-916f-5607972755fb;"><path d="M606.30 0L602.20 0L602.20 0Q600.15 0 598.33-0.77L598.33-0.77L598.33-0.77Q596.52-1.54 595.18-2.89L595.18-2.89L595.18-2.89Q593.85-4.25 593.06-6.04L593.06-6.04L593.06-6.04Q592.27-7.84 592.27-9.89L592.27-9.89L592.27-33.22L585.53-33.22L585.53-37.50L592.27-37.50L592.27-46.51L596.78-47.24L596.78-37.50L606.30-37.50L606.30-33.22L596.78-33.22L596.78-9.67L596.78-9.67Q596.78-8.53 597.20-7.56L597.20-7.56L597.20-7.56Q597.62-6.59 598.35-5.86L598.35-5.86L598.35-5.86Q599.08-5.13 600.07-4.71L600.07-4.71L600.07-4.71Q601.06-4.28 602.20-4.28L602.20-4.28L606.30-4.28L606.30 0" fill="#0077b5" stroke="none" stroke-width="none" transform="translate(-404.31500244140625,19.305977133046024)" style="fill: rgb(255, 255, 255);"></path></g><g class="path" style="transform: matrix(1, 0, 0, 1, 0, 0); transform-origin: 222.785px 0.555977px; animation: 100s linear -17.2174s infinite normal forwards running tremble-a5ca0e73-5ee1-4868-916f-5607972755fb;"><path d="M639.62-10.29L639.62-10.29L639.62-10.29Q639.62-8.02 638.76-6.01L638.76-6.01L638.76-6.01Q637.90-3.99 636.40-2.49L636.40-2.49L636.40-2.49Q634.90-0.99 632.89-0.13L632.89-0.13L632.89-0.13Q630.87 0.73 628.60 0.73L628.60 0.73L625.60 0.73L625.60 0.73Q623.33 0.73 621.31-0.13L621.31-0.13L621.31-0.13Q619.30-0.99 617.80-2.49L617.80-2.49L617.80-2.49Q616.30-3.99 615.44-6.01L615.44-6.01L615.44-6.01Q614.58-8.02 614.58-10.29L614.58-10.29L614.58-27.21L614.58-27.21Q614.58-29.48 615.44-31.49L615.44-31.49L615.44-31.49Q616.30-33.51 617.80-35.01L617.80-35.01L617.80-35.01Q619.30-36.51 621.31-37.37L621.31-37.37L621.31-37.37Q623.33-38.23 625.60-38.23L625.60-38.23L628.60-38.23L628.60-38.23Q630.87-38.23 632.89-37.37L632.89-37.37L632.89-37.37Q634.90-36.51 636.40-35.01L636.40-35.01L636.40-35.01Q637.90-33.51 638.76-31.49L638.76-31.49L638.76-31.49Q639.62-29.48 639.62-27.21L639.62-27.21L639.62-18.38L619.08-18.38L619.08-10.03L619.08-10.03Q619.08-8.68 619.59-7.49L619.59-7.49L619.59-7.49Q620.10-6.30 620.98-5.42L620.98-5.42L620.98-5.42Q621.86-4.54 623.05-4.03L623.05-4.03L623.05-4.03Q624.24-3.52 625.60-3.52L625.60-3.52L628.60-3.52L628.60-3.52Q629.96-3.52 631.15-4.03L631.15-4.03L631.15-4.03Q632.34-4.54 633.22-5.42L633.22-5.42L633.22-5.42Q634.09-6.30 634.61-7.49L634.61-7.49L634.61-7.49Q635.12-8.68 635.12-10.03L635.12-10.03L635.12-12.52L639.62-11.79L639.62-10.29zM635.12-21.90L635.12-27.47L635.12-27.47Q635.12-28.82 634.61-30.01L634.61-30.01L634.61-30.01Q634.09-31.20 633.22-32.08L633.22-32.08L633.22-32.08Q632.34-32.96 631.15-33.47L631.15-33.47L631.15-33.47Q629.96-33.98 628.60-33.98L628.60-33.98L625.60-33.98L625.60-33.98Q624.24-33.98 623.05-33.47L623.05-33.47L623.05-33.47Q621.86-32.96 620.98-32.08L620.98-32.08L620.98-32.08Q620.10-31.20 619.59-30.01L619.59-30.01L619.59-30.01Q619.08-28.82 619.08-27.47L619.08-27.47L619.08-21.90L635.12-21.90" fill="#0077b5" stroke="none" stroke-width="none" transform="translate(-404.31500244140625,19.305977133046024)" style="fill: rgb(0, 119, 181);"></path></g><g class="path" style="transform: matrix(1, 0, 0, 1, 0, 0); transform-origin: 252.08px 0.190977px; animation: 100s linear -14.3478s infinite normal forwards running tremble-a5ca0e73-5ee1-4868-916f-5607972755fb;"><path d="M664.16-33.22L659.66-33.22L659.66-33.22Q658.30-33.22 657.11-32.70L657.11-32.70L657.11-32.70Q655.92-32.19 655.04-31.31L655.04-31.31L655.04-31.31Q654.16-30.43 653.65-29.24L653.65-29.24L653.65-29.24Q653.14-28.05 653.14-26.70L653.14-26.70L653.14 0L648.63 0L648.63-37.50L650.13-37.50L652.59-33.69L652.59-33.69Q654.13-35.78 656.45-37.01L656.45-37.01L656.45-37.01Q658.78-38.23 661.52-38.23L661.52-38.23L664.16-38.23L664.16-33.22" fill="#0077b5" stroke="none" stroke-width="none" transform="translate(-404.31500244140625,19.305977133046024)" style="fill: rgb(255, 255, 255);"></path></g><g class="path" style="transform: matrix(1, 0, 0, 1, 0, 0); transform-origin: 303.135px -6.94902px; animation: 100s linear -11.4783s infinite normal forwards running tremble-a5ca0e73-5ee1-4868-916f-5607972755fb;"><path d="M725.98 0L721.25 0L721.25-36.00L720.92-33.76L708.73 0L706.24 0L693.93-33.76L693.64-36.00L693.64 0L688.92 0L688.92-52.51L691.37-52.51L707.30-9.45L707.45-7.51L707.59-9.45L723.49-52.51L725.98-52.51L725.98 0" fill="#0077b5" stroke="none" stroke-width="none" transform="translate(-404.31500244140625,19.305977133046024)" style="fill: rgb(0, 119, 181);"></path></g><g class="path" style="transform: matrix(1, 0, 0, 1, 0, 0); transform-origin: 333.945px -30.204px; animation: 100s linear -8.6087s infinite normal forwards running tremble-a5ca0e73-5ee1-4868-916f-5607972755fb;"><path d="M740.88-46.51L735.64-46.51L735.64-52.51L740.88-52.51L740.88-46.51" fill="#0077b5" stroke="none" stroke-width="none" transform="translate(-404.31500244140625,19.305977133046024)" style="fill: rgb(255, 255, 255);"></path></g><g class="path" style="transform: matrix(1, 0, 0, 1, 0, 0); transform-origin: 333.95px 0.555977px; animation: 100s linear -5.73913s infinite normal forwards running tremble-a5ca0e73-5ee1-4868-916f-5607972755fb;"><path d="M740.52 0L736.01 0L736.01-37.50L740.52-37.50L740.52 0" fill="#0077b5" stroke="none" stroke-width="none" transform="translate(-404.31500244140625,19.305977133046024)" style="fill: rgb(0, 119, 181);"></path></g><g class="path" style="transform: matrix(1, 0, 0, 1, 0, 0); transform-origin: 359.235px 0.190977px; animation: 100s linear -2.86957s infinite normal forwards running tremble-a5ca0e73-5ee1-4868-916f-5607972755fb;"><path d="M776.07 0L771.57 0L771.57-27.47L771.57-27.47Q771.57-28.82 771.06-30.01L771.06-30.01L771.06-30.01Q770.54-31.20 769.67-32.08L769.67-32.08L769.67-32.08Q768.79-32.96 767.60-33.47L767.60-33.47L767.60-33.47Q766.41-33.98 765.05-33.98L765.05-33.98L762.05-33.98L762.05-33.98Q760.69-33.98 759.50-33.47L759.50-33.47L759.50-33.47Q758.31-32.96 757.43-32.08L757.43-32.08L757.43-32.08Q756.56-31.20 756.04-30.01L756.04-30.01L756.04-30.01Q755.53-28.82 755.53-27.47L755.53-27.47L755.53 0L751.03 0L751.03-37.50L752.53-37.50L754.98-33.69L754.98-33.69Q756.52-35.78 758.84-37.01L758.84-37.01L758.84-37.01Q761.17-38.23 763.92-38.23L763.92-38.23L765.05-38.23L765.05-38.23Q767.32-38.23 769.34-37.37L769.34-37.37L769.34-37.37Q771.35-36.51 772.85-35.01L772.85-35.01L772.85-35.01Q774.35-33.51 775.21-31.49L775.21-31.49L775.21-31.49Q776.07-29.48 776.07-27.21L776.07-27.21L776.07 0" fill="#0077b5" stroke="none" stroke-width="none" transform="translate(-404.31500244140625,19.305977133046024)" style="fill: rgb(255, 255, 255);"></path></g><g class="path" style="transform: matrix(1, 0, 0, 1, 0, 0); transform-origin: 393.29px -6.58402px; animation: 100s linear 0s infinite normal forwards running tremble-a5ca0e73-5ee1-4868-916f-5607972755fb;"><path d="M810.13 0L808.63 0L806.14-3.81L806.14-3.81Q804.60-1.72 802.29-0.49L802.29-0.49L802.29-0.49Q799.99 0.73 797.24 0.73L797.24 0.73L796.11 0.73L796.11 0.73Q793.84 0.73 791.82-0.13L791.82-0.13L791.82-0.13Q789.81-0.99 788.31-2.49L788.31-2.49L788.31-2.49Q786.80-3.99 785.94-6.01L785.94-6.01L785.94-6.01Q785.08-8.02 785.08-10.29L785.08-10.29L785.08-27.21L785.08-27.21Q785.08-29.48 785.94-31.49L785.94-31.49L785.94-31.49Q786.80-33.51 788.31-35.01L788.31-35.01L788.31-35.01Q789.81-36.51 791.82-37.37L791.82-37.37L791.82-37.37Q793.84-38.23 796.11-38.23L796.11-38.23L797.24-38.23L797.24-38.23Q799.77-38.23 801.93-37.21L801.93-37.21L801.93-37.21Q804.09-36.18 805.63-34.35L805.63-34.35L805.63-52.51L810.13-52.51L810.13 0zM805.63-10.03L805.63-27.47L805.63-27.47Q805.63-28.82 805.11-30.01L805.11-30.01L805.11-30.01Q804.60-31.20 803.72-32.08L803.72-32.08L803.72-32.08Q802.84-32.96 801.65-33.47L801.65-33.47L801.65-33.47Q800.46-33.98 799.11-33.98L799.11-33.98L796.11-33.98L796.11-33.98Q794.75-33.98 793.56-33.47L793.56-33.47L793.56-33.47Q792.37-32.96 791.49-32.08L791.49-32.08L791.49-32.08Q790.61-31.20 790.10-30.01L790.10-30.01L790.10-30.01Q789.59-28.82 789.59-27.47L789.59-27.47L789.59-10.03L789.59-10.03Q789.59-8.68 790.10-7.49L790.10-7.49L790.10-7.49Q790.61-6.30 791.49-5.42L791.49-5.42L791.49-5.42Q792.37-4.54 793.56-4.03L793.56-4.03L793.56-4.03Q794.75-3.52 796.11-3.52L796.11-3.52L799.11-3.52L799.11-3.52Q800.46-3.52 801.65-4.03L801.65-4.03L801.65-4.03Q802.84-4.54 803.72-5.42L803.72-5.42L803.72-5.42Q804.60-6.30 805.11-7.49L805.11-7.49L805.11-7.49Q805.63-8.68 805.63-10.03L805.63-10.03" fill="#0077b5" stroke="none" stroke-width="none" transform="translate(-404.31500244140625,19.305977133046024)" style="fill: rgb(0, 119, 181);"></path></g></g>
</g>
</g>
<style id="tremble-a5ca0e73-5ee1-4868-916f-5607972755fb" data-anikit="">@keyframes tremble-a5ca0e73-5ee1-4868-916f-5607972755fb {
  0% { transform: translate(0px,0px) rotate(0deg) scale(1) }
  3.33333% { transform: translate(-0.18923px,1.45485px) rotate(0deg) scale(1) }
  6.66667% { transform: translate(-0.84296px,-1.32524px) rotate(0deg) scale(1) }
  10% { transform: translate(0.67971px,1.00422px) rotate(0deg) scale(1) }
  13.33333% { transform: translate(-0.5056px,0.83616px) rotate(0deg) scale(1) }
  16.66667% { transform: translate(1.31368px,-0.51401px) rotate(0deg) scale(1) }
  20% { transform: translate(-1.21184px,1.49193px) rotate(0deg) scale(1) }
  23.33333% { transform: translate(1.09065px,-0.21259px) rotate(0deg) scale(1) }
  26.66667% { transform: translate(-1.49916px,0.56159px) rotate(0deg) scale(1) }
  30% { transform: translate(1.48086px,1.21228px) rotate(0deg) scale(1) }
  33.33333% { transform: translate(-1.43889px,-1.152px) rotate(0deg) scale(1) }
  36.66667% { transform: translate(1.35914px,1.34835px) rotate(0deg) scale(1) }
  40% { transform: translate(-1.42834px,0.3091px) rotate(0deg) scale(1) }
  43.33333% { transform: translate(1.47472px,-1.49889px) rotate(0deg) scale(1) }
  46.66667% { transform: translate(-0.92402px,1.4416px) rotate(0deg) scale(1) }
  50% { transform: translate(1.0657px,-0.75306px) rotate(0deg) scale(1) }
  53.33333% { transform: translate(-1.19035px,-1.07484px) rotate(0deg) scale(1) }
  56.66667% { transform: translate(0.28828px,0.79337px) rotate(0deg) scale(1) }
  60% { transform: translate(-0.47167px,-1.42789px) rotate(0deg) scale(1) }
  63.33333% { transform: translate(0.64753px,-0.09795px) rotate(0deg) scale(1) }
  66.66667% { transform: translate(0.41006px,-0.26292px) rotate(0deg) scale(1) }
  70% { transform: translate(-0.22477px,-1.3683px) rotate(0deg) scale(1) }
  73.33333% { transform: translate(0.03588px,0.92931px) rotate(0deg) scale(1) }
  76.66667% { transform: translate(-1.01937px,-1.18398px) rotate(0deg) scale(1) }
  80% { transform: translate(0.8724px,-0.60494px) rotate(0deg) scale(1) }
  83.33333% { transform: translate(-0.71151px,1.4786px) rotate(0deg) scale(1) }
  86.66667% { transform: translate(1.40734px,-1.49607px) rotate(0deg) scale(1) }
  90% { transform: translate(-1.33062px,0.46957px) rotate(0deg) scale(1) }
  93.33333% { transform: translate(1.23264px,1.26738px) rotate(0deg) scale(1) }
  96.66667% { transform: translate(-1.48975px,-1.03867px) rotate(0deg) scale(1) }
  100% { transform: translate(0,0) rotate(0) scale(1) }
}</style></svg>