<?xml version="1.0" encoding="utf-8"?><svg xml:space="preserve" viewBox="0 0 100 100" y="0" x="0" xmlns="http://www.w3.org/2000/svg" id="Layer_1" version="1.1" width="200px" height="200px" xmlns:xlink="http://www.w3.org/1999/xlink" style="width:100%;height:100%;background-size:initial;background-repeat-y:initial;background-repeat-x:initial;background-position-y:initial;background-position-x:initial;background-origin:initial;background-color:initial;background-clip:initial;background-attachment:initial;animation-play-state:paused" ><g class="ldl-scale" style="transform-origin:50% 50%;transform:rotate(0deg) scale(0.8, 0.8);animation-play-state:paused" ><circle fill="#333" r="40" cy="50" cx="50" style="fill:rgb(51, 51, 51);animation-play-state:paused" ></circle>
<path fill="#fff" d="M66.4 52.548h.6a3.115 3.115 0 0 0 2.94 2.105 3.114 3.114 0 0 0 3.111-3.111 3.114 3.114 0 0 0-3.111-3.111 3.113 3.113 0 0 0-2.913 2.03 5.37 5.37 0 0 0 .027-.493 5.563 5.563 0 0 0-1.882-4.15 5.54 5.54 0 0 0 .198-1.439c0-.798-.177-1.561-.488-2.253l1.161-1.219c.396.183.835.288 1.298.288a3.114 3.114 0 0 0 3.111-3.111 3.115 3.115 0 0 0-3.111-3.111 3.115 3.115 0 0 0-3.111 3.111c0 .518.129 1.006.354 1.437l-.876.92a5.532 5.532 0 0 0-2.856-1.505 5.55 5.55 0 0 0-3.599-4.638l2.493-3.478h3.176a3.113 3.113 0 0 0 2.94 2.105 3.114 3.114 0 0 0 3.111-3.111 3.115 3.115 0 0 0-3.111-3.111 3.112 3.112 0 0 0-2.94 2.105h-4.209l-3.7 5.162a5.542 5.542 0 0 0-4.543 2.882 5.553 5.553 0 0 0-4.033-2.829v-1.97a3.116 3.116 0 0 0 2.105-2.941 3.115 3.115 0 0 0-3.111-3.111 3.114 3.114 0 0 0-3.111 3.111c0 1.363.882 2.522 2.105 2.941v2.03a5.551 5.551 0 0 0-4.338 4.854c-.239.045-.47.11-.696.185l-3.921-4.19H33a3.113 3.113 0 0 0-2.94-2.105 3.114 3.114 0 0 0-3.111 3.111 3.115 3.115 0 0 0 3.111 3.111A3.112 3.112 0 0 0 33 36.944h1.598l2.979 3.185a5.546 5.546 0 0 0-2.007 4.253c0 .492.073.974.198 1.439a5.565 5.565 0 0 0-1.882 4.15c0 1.588.699 3.103 1.88 4.149a5.534 5.534 0 0 0-.197 1.44c0 1.034.293 2.009.799 2.845H34.68a3.113 3.113 0 0 0-2.94-2.105 3.114 3.114 0 0 0-3.111 3.111 3.115 3.115 0 0 0 3.111 3.111 3.112 3.112 0 0 0 2.94-2.105h3.484v-.179a5.498 5.498 0 0 0 1.924.766 5.546 5.546 0 0 0 2.791 4.261l-2.575 3.09h-4.689a3.113 3.113 0 0 0-2.941-2.105 3.115 3.115 0 0 0-3.111 3.111 3.115 3.115 0 0 0 3.111 3.111 3.114 3.114 0 0 0 2.941-2.105h5.631l3.687-4.424c.219.026.441.045.667.045a5.548 5.548 0 0 0 4.87-2.899 5.554 5.554 0 0 0 3.863 2.803v2.06a3.116 3.116 0 0 0-2.105 2.941 3.115 3.115 0 0 0 3.111 3.111 3.114 3.114 0 0 0 3.111-3.111 3.113 3.113 0 0 0-2.105-2.941v-2.057a5.545 5.545 0 0 0 3.426-2.129l2.692 2.755h1.65a3.113 3.113 0 0 0 2.94 2.105 3.114 3.114 0 0 0 3.111-3.111 3.115 3.115 0 0 0-3.111-3.111 3.112 3.112 0 0 0-2.94 2.105h-.802l-2.613-2.674c.07-.27.125-.546.154-.83 2.575-.485 4.518-2.772 4.518-5.444 0-.494-.072-.976-.197-1.44a5.647 5.647 0 0 0 1.227-1.573zm.941-15.563a1.1 1.1 0 0 1 0 2.198 1.1 1.1 0 0 1-1.099-1.099c0-.134.028-.262.072-.381a1.099 1.099 0 0 1 1.027-.718zm-2.576-7.173a1.099 1.099 0 1 1 2.198.003 1.099 1.099 0 0 1-2.198-.003zm-33.607 6.124a1.099 1.099 0 1 1-2.198-.003 1.099 1.099 0 0 1 2.198.003zm1.68 23.472a1.099 1.099 0 1 1-2.198-.003 1.099 1.099 0 0 1 2.198.003zm.936 9.951a1.099 1.099 0 0 1-1.538 1.006l-.008-.004a1.1 1.1 0 0 1-.652-1.002c0-.447.269-.831.652-1.002l.007-.004a1.094 1.094 0 0 1 .88 0 1.1 1.1 0 0 1 .659 1.006zm32.181-3.848a1.099 1.099 0 1 1 2.198.003 1.099 1.099 0 0 1-2.198-.003zm3.985-15.069a1.1 1.1 0 0 1 0 2.198 1.099 1.099 0 0 1 0-2.198zm-24.508-22.43a1.1 1.1 0 0 1 1.099 1.099c0 .268-.1.511-.26.702a1.092 1.092 0 0 1-.839.397c-.338 0-.637-.157-.839-.397a1.09 1.09 0 0 1-.26-.702 1.099 1.099 0 0 1 1.099-1.099zm-4.504 29.469a5.446 5.446 0 0 0-.319.574l-.057.12a5.428 5.428 0 0 0-.262.698v.001c-.009.029-.021.057-.029.086a5.421 5.421 0 0 0-.145.706 4.225 4.225 0 0 1-1.952-1.099v-.164h-.154a4.204 4.204 0 0 1-1.13-2.845c0-.474.079-.936.228-1.371.013-.038.029-.076.044-.114.037-.098.076-.196.12-.291.028-.061.06-.12.092-.18.036-.068.071-.136.111-.201a4.553 4.553 0 0 1 .752-.93c.078-.072.153-.146.237-.213l-.821-1.021-.002.002-.002-.002c-.024.019-.043.043-.066.062a5.383 5.383 0 0 0-.459.433c-.05.052-.1.104-.147.158a5.868 5.868 0 0 0-.41.524c-.013.019-.031.036-.044.056a5.214 5.214 0 0 0-.211.341 4.186 4.186 0 0 1-1.104-2.844c0-1.073.398-2.071 1.104-2.843.066.115.139.227.213.337l.013.017c.12.178.253.348.392.513.037.044.076.086.115.129.123.136.254.267.393.391.025.022.046.049.071.071l.002-.002.002.002.853-.993c-.084-.072-.161-.151-.239-.229a3.83 3.83 0 0 1-.297-.332 4.187 4.187 0 0 1-.498-.778c-.026-.052-.052-.104-.076-.157a4.01 4.01 0 0 1-.118-.298l-.035-.094a4.226 4.226 0 0 1-.213-1.322c0-1.966 1.378-3.656 3.237-4.109.032.224.074.445.132.662.012.046.031.089.045.135a5.587 5.587 0 0 0 .27.716l.059.126a5.6 5.6 0 0 0 .328.585c.021.033.041.068.063.101.148.218.306.43.486.628.41.451.774.696 1.185.963-.007.054-.003.107-.007.161a4.416 4.416 0 0 0-.011.623 4.22 4.22 0 0 0 .257 1.248c.066.181.14.361.23.533.023.043.05.084.074.127.121.215.254.425.413.62l.003-.002.002.002 1.016-.826c-.025-.031-.045-.064-.069-.095a3.321 3.321 0 0 1-.18-.264 3.232 3.232 0 0 1-.268-.556l-.004-.015a2.995 2.995 0 0 1-.12-.465c-.008-.044-.017-.088-.024-.133a3.073 3.073 0 0 1-.029-.45c0-.058.005-.116.009-.174a3.1 3.1 0 0 1 .046-.369c.007-.035.01-.071.017-.106.058-.262.15-.511.27-.745l.022-.041a3.16 3.16 0 0 1 .397-.573c.024-.027.047-.056.072-.082.06-.064.124-.125.19-.184.03-.027.058-.056.089-.082a3.086 3.086 0 0 1 .452-.309c.05-.029.1-.059.152-.085a3.04 3.04 0 0 1 .352-.148c.026-.009.05-.022.077-.031l-.403-1.246-.004.001v-.001a4.425 4.425 0 0 0-2.635 2.343 3.43 3.43 0 0 1-.596-.52 4.22 4.22 0 0 1-1.103-2.849 4.236 4.236 0 0 1 4.227-4.231h.006a4.234 4.234 0 0 1 4.212 3.938c-.005.098-.015.194-.015.293v20.951c0 .099.01.195.015.293a4.234 4.234 0 0 1-4.215 3.939 4.2 4.2 0 0 1-1.864-.439 4.232 4.232 0 0 1-2.366-3.792c0-.868.258-1.692.738-2.389a5.52 5.52 0 0 0 3.234 2.251v-.001l.004.001.317-1.271-.044-.013a4.302 4.302 0 0 1-.485-.16l-.041-.016a4.134 4.134 0 0 1-.61-.305l-.026-.017a4.187 4.187 0 0 1-.548-.401l-.006-.006a4.276 4.276 0 0 1-.456-.467l-.032-.036a4.285 4.285 0 0 1-.343-.492c-.022-.036-.045-.071-.065-.108a4.195 4.195 0 0 1-.299-.66 4.132 4.132 0 0 1-.148-.517c-.013-.061-.023-.122-.034-.184a4.188 4.188 0 0 1-.06-.54c-.002-.06.001-.12.001-.181 0-.165.01-.332.029-.499.004-.036.005-.072.011-.108.029-.202.073-.4.13-.594l.003-.013c.059-.197.131-.39.218-.576l-1.187-.553-.001.002-.004-.002a5.548 5.548 0 0 0-.207 4.178 5.55 5.55 0 0 0-.47.617c-.024.03-.042.063-.063.096zM55.34 71.988a1.1 1.1 0 0 1-1.006-1.538 1.099 1.099 0 1 1 1.006 1.538zm9.089-19.518c-.013-.02-.03-.036-.044-.056a5.728 5.728 0 0 0-.41-.524c-.047-.054-.097-.106-.147-.158a5.383 5.383 0 0 0-.459-.433c-.023-.02-.042-.043-.066-.062l-.002.002-.002-.002-.821 1.021c.084.067.159.141.237.213.082.076.159.155.234.237.03.032.058.065.087.098.066.077.13.156.191.237a5.11 5.11 0 0 1 .24.358c.039.066.075.134.111.201.031.06.063.119.092.18.044.095.083.193.12.291l.044.114c.149.435.228.897.228 1.371 0 1.966-1.378 3.656-3.236 4.108a5.387 5.387 0 0 0-.145-.706c-.008-.029-.021-.057-.029-.086v-.001a5.428 5.428 0 0 0-.262-.698c-.018-.041-.038-.081-.057-.121a5.353 5.353 0 0 0-.319-.573l-.061-.098a5.55 5.55 0 0 0-.47-.617 5.548 5.548 0 0 0-.207-4.178l-.004.002-.001-.002-1.187.553c.087.186.16.378.218.576l.003.012c.057.194.101.392.13.594.005.036.006.072.011.109.02.167.029.333.029.498 0 .061.003.121.001.182-.007.183-.03.362-.06.539-.011.062-.021.124-.034.185a4.182 4.182 0 0 1-.208.675c-.069.172-.148.34-.239.501-.021.037-.044.072-.066.108a4.18 4.18 0 0 1-.342.491c-.01.013-.022.024-.033.037-.14.166-.291.323-.456.467l-.006.006a4.28 4.28 0 0 1-.548.401l-.026.017a4.235 4.235 0 0 1-.651.321 4.302 4.302 0 0 1-.485.16c-.015.004-.029.01-.044.013l.317 1.271.004-.001v.001a5.516 5.516 0 0 0 3.234-2.251c.48.698.738 1.522.738 2.389 0 .075-.007.149-.011.223a4.23 4.23 0 0 1-4.218 4.009 4.234 4.234 0 0 1-4.215-3.939c-.007-.097-.015-.194-.015-.293v-20.95c0-.099.008-.196.015-.293a4.234 4.234 0 0 1 4.215-3.939c.284 0 .561.029.829.083l.22.158.062-.087a4.237 4.237 0 0 1 3.119 4.078 4.222 4.222 0 0 1-1.103 2.849c-.2.22-.388.373-.596.52a4.422 4.422 0 0 0-2.635-2.343v.001l-.004-.001-.403 1.246c.026.009.051.021.077.031.12.043.238.091.352.148.052.026.102.056.152.085a3.172 3.172 0 0 1 .452.309c.031.026.059.055.089.082.066.059.13.119.19.184.025.026.048.055.072.082a3.175 3.175 0 0 1 .228.293c.062.09.118.184.17.28l.022.041c.12.233.213.483.27.745.008.035.011.071.017.106a3.1 3.1 0 0 1 .046.369c.004.058.008.116.009.175.001.151-.008.301-.029.45-.006.045-.015.088-.024.133-.03.158-.066.314-.12.465l-.004.015c-.06.165-.137.323-.224.477l-.044.079a3.074 3.074 0 0 1-.18.264c-.024.031-.044.064-.069.095l1.016.826.002-.002.003.002c.16-.196.294-.406.415-.622.024-.042.05-.082.073-.125a4.461 4.461 0 0 0 .284-.69c.05-.155.091-.312.124-.471.013-.061.023-.123.033-.185a4.22 4.22 0 0 0 .035-1.058c-.005-.054-.001-.107-.007-.161.411-.267.775-.512 1.185-.963.18-.197.338-.409.486-.627.022-.033.042-.068.063-.101a5.41 5.41 0 0 0 .328-.584l.059-.126c.101-.222.188-.45.259-.684l.011-.032c.014-.046.033-.089.045-.135a5.46 5.46 0 0 0 .132-.662c1.859.453 3.236 2.142 3.236 4.109 0 .455-.074.9-.213 1.322a2.608 2.608 0 0 1-.035.094 4.01 4.01 0 0 1-.118.298c-.024.053-.05.105-.076.157a4.367 4.367 0 0 1-.232.409 4.187 4.187 0 0 1-.563.701c-.078.078-.155.156-.239.229l.853.993.002-.002.002.002c.026-.022.046-.049.072-.071.138-.124.269-.254.392-.39.039-.043.078-.085.115-.129.14-.165.272-.335.392-.513l.013-.017c.074-.111.147-.222.213-.337a4.182 4.182 0 0 1 1.104 2.843 4.186 4.186 0 0 1-1.104 2.844 6.224 6.224 0 0 0-.214-.344z" style="fill:rgb(255, 255, 255);animation-play-state:paused" ></path>
<metadata xmlns:d="https://loading.io/stock/" style="animation-play-state:paused" ><d:name style="animation-play-state:paused" >ai</d:name>


<d:tags style="animation-play-state:paused" >ai,artificial intelligence,deep learning,machine learning,neural network,robot,brain</d:tags>


<d:license style="animation-play-state:paused" >by</d:license>


<d:slug style="animation-play-state:paused" >tiag03</d:slug></metadata></g><!-- generated by https://loading.io/ --></svg>