<?xml version="1.0" encoding="utf-8"?>
<svg xmlns="http://www.w3.org/2000/svg" style="margin: auto; background: none; display: block; shape-rendering: auto;" width="286" height="250" preserveAspectRatio="xMidYMid">
<style type="text/css">
  text {
    text-anchor: middle; font-size: 80px; opacity: 0;
  }
</style>
<g style="transform-origin:143px 125px;transform:scale(1)">
<g transform="translate(143,125)">
  <g transform="translate(0,0)"><g class="path" style="transform: matrix(0.01, 0, 0, 0.01, 0, 0); transform-origin: -37.72px -3.5412px; animation: 1s linear 0s 1 normal forwards running bounce-in-5d5f0a2d-8dc7-4ca2-85c7-19a719094da1;"><path d="M20.56-33.52L20.56-33.52L20.56-33.52Q20.88-33.52 21.76-32.88L21.76-32.88L21.76-32.88Q22.64-32.24 23.60-32.24L23.60-32.24L23.68-32.24L23.68-32.24Q26.40-32.24 28-34.40L28-34.40L28-34.40Q29.60-36.56 29.76-38.72L29.76-38.72L30-40.88L30-40.88Q30-43.92 29.08-46.12L29.08-46.12L29.08-46.12Q28.16-48.32 26.96-49.40L26.96-49.40L26.96-49.40Q25.76-50.48 24.16-51.04L24.16-51.04L24.16-51.04Q22.16-51.84 19.96-51.84L19.96-51.84L19.96-51.84Q17.76-51.84 16.40-51.40L16.40-51.40L16.40-51.40Q15.04-50.96 14.88-50.56L14.88-50.56L14.80-50.08L14.80-50.08Q14.08-39.28 14.08-30.76L14.08-30.76L14.08-30.76Q14.08-22.24 14.36-16.08L14.36-16.08L14.36-16.08Q14.64-9.92 14.92-6.60L14.92-6.60L14.92-6.60Q15.20-3.28 15.20-2.96L15.20-2.96L15.20-2.96Q15.20-0.96 11.68 0.24L11.68 0.24L11.68 0.24Q8.16 1.44 4.72 1.44L4.72 1.44L4.72 1.44Q3.12 1.44 3.12 0.64L3.12 0.64L3.12 0.64Q3.12 0.40 3.36-0.48L3.36-0.48L3.36-0.48Q4.88-4 4.88-33.20L4.88-33.20L4.88-33.20Q4.88-50.40 2.56-52.88L2.56-52.88L2.56-52.88Q2.08-53.36 2.08-53.88L2.08-53.88L2.08-53.88Q2.08-54.40 3.24-55.04L3.24-55.04L3.24-55.04Q4.40-55.68 9.76-56.52L9.76-56.52L9.76-56.52Q15.12-57.36 21.12-57.36L21.12-57.36L21.12-57.36Q30.56-57.36 35.32-52.24L35.32-52.24L35.32-52.24Q40.08-47.12 40.08-40.04L40.08-40.04L40.08-40.04Q40.08-32.96 36.20-27.76L36.20-27.76L36.20-27.76Q32.32-22.56 26.08-22.56L26.08-22.56L26.08-22.56Q24.08-22.56 22.08-23.28L22.08-23.28L22.08-23.28Q18.08-24.72 18.08-29.28L18.08-29.28L18.08-29.28Q18.08-30.24 18.72-31.88L18.72-31.88L18.72-31.88Q19.36-33.52 20.56-33.52" fill="#0077b5" stroke="none" stroke-width="none" transform="translate(-58.79998779296875,24.41880081176758)" style="fill: rgb(0, 119, 181);"></path></g><g class="path" style="transform: matrix(0.01, 0, 0, 0.01, 0, 0); transform-origin: -11.68px -2.4612px; animation: 1s linear 0.165s 1 normal forwards running bounce-in-5d5f0a2d-8dc7-4ca2-85c7-19a719094da1;"><path d="M52.80-45.76L52.80-45.76L52.32-16.40L52.32-16.40Q52.32-2.64 53.20 0.08L53.20 0.08L53.20 0.08Q53.44 0.56 53.44 1.04L53.44 1.04L53.44 1.04Q53.44 2 51.12 2L51.12 2L51.12 2Q48.80 2 45.96 0.84L45.96 0.84L45.96 0.84Q43.12-0.32 43.12-2.16L43.12-2.16L43.12-2.16Q44.72-13.36 44.72-32.08L44.72-32.08L44.40-44.32L44.40-44.32Q44.24-46.56 43.48-48.16L43.48-48.16L43.48-48.16Q42.72-49.76 42-50.24L42-50.24L41.36-50.64L41.36-50.64Q40.80-50.96 40.80-51.36L40.80-51.36L40.80-51.36Q40.80-52.48 44.28-54.12L44.28-54.12L44.28-54.12Q47.76-55.76 51.04-55.76L51.04-55.76L51.04-55.76Q52.32-55.76 52.48-54.88L52.48-54.88L52.48-54.88Q52.80-52.80 52.80-45.76" fill="#0077b5" stroke="none" stroke-width="none" transform="translate(-58.79998779296875,24.41880081176758)" style="fill: rgb(255, 255, 255);"></path></g><g class="path" style="transform: matrix(0.01, 0, 0, 0.01, 0, 0); transform-origin: 13.28px 6.8588px; animation: 1s linear 0.33s 1 normal forwards running bounce-in-5d5f0a2d-8dc7-4ca2-85c7-19a719094da1;"><path d="M84.96-24L84.96-24L84.80-13.76L84.80-13.76Q84.80-3.12 87.12-0.96L87.12-0.96L87.12-0.96Q87.44-0.64 87.44-0.24L87.44-0.24L87.44-0.24Q87.44 0.96 82.28 0.96L82.28 0.96L82.28 0.96Q77.12 0.96 76.80-2.08L76.80-2.08L76.80-2.08Q76.72-2.80 76.72-5.04L76.72-5.04L77.04-17.84L77.04-17.84Q77.04-18.40 76.40-18.40L76.40-18.40L76.40-18.40Q72.56-18.40 69.20-16.24L69.20-16.24L69.20-16.24Q65.84-14.08 65.84-10.72L65.84-10.72L65.84-10.72Q65.84-8.96 66.80-7.76L66.80-7.76L66.80-7.76Q67.76-6.56 69.16-6.56L69.16-6.56L69.16-6.56Q70.56-6.56 71.48-7.12L71.48-7.12L71.48-7.12Q72.40-7.68 72.56-7.76L72.56-7.76L72.56-7.76Q73.92-7.60 73.92-4.92L73.92-4.92L73.92-4.92Q73.92-2.24 71.44-0.60L71.44-0.60L71.44-0.60Q68.96 1.04 66.24 1.04L66.24 1.04L66.24 1.04Q63.52 1.04 61.56 0.08L61.56 0.08L61.56 0.08Q59.60-0.88 58.72-2.08L58.72-2.08L58.72-2.08Q57.84-3.28 57.28-4.80L57.28-4.80L57.28-4.80Q56.72-6.64 56.72-8L56.72-8L56.72-8Q56.72-13.60 60.24-16.96L60.24-16.96L60.24-16.96Q63.76-20.32 69.28-21.76L69.28-21.76L69.28-21.76Q76.56-23.20 76.88-24.40L76.88-24.40L76.88-24.40Q77.12-25.28 77.12-27.36L77.12-27.36L77.12-27.36Q77.12-31.60 72.80-31.60L72.80-31.60L72.80-31.60Q70.96-31.60 69.52-30.44L69.52-30.44L69.52-30.44Q68.08-29.28 68.08-27.52L68.08-27.52L68.56-25.60L68.56-25.60Q68.40-24.24 65.68-24L65.68-24L64.80-23.92L64.80-23.92Q62.40-23.92 61-25.12L61-25.12L61-25.12Q59.60-26.32 59.60-28.32L59.60-28.32L59.60-28.32Q59.60-29.60 60.44-31.16L60.44-31.16L60.44-31.16Q61.28-32.72 62.56-33.68L62.56-33.68L62.56-33.68Q63.84-34.64 66.52-35.40L66.52-35.40L66.52-35.40Q69.20-36.16 71.68-36.16L71.68-36.16L71.68-36.16Q74.16-36.16 75.52-36L75.52-36L75.52-36Q76.88-35.84 79.24-35.24L79.24-35.24L79.24-35.24Q81.60-34.64 83.16-32.96L83.16-32.96L83.16-32.96Q84.72-31.28 84.84-29.40L84.84-29.40L84.84-29.40Q84.96-27.52 84.96-24" fill="#0077b5" stroke="none" stroke-width="none" transform="translate(-58.79998779296875,24.41880081176758)" style="fill: rgb(0, 119, 181);"></path></g><g class="path" style="transform: matrix(0.01, 0, 0, 0.01, 0, 0); transform-origin: 43.96px 17.6188px; animation: 1s linear 0.495s 1 normal forwards running bounce-in-5d5f0a2d-8dc7-4ca2-85c7-19a719094da1;"><path d="M104 22.16L104 22.16L104 22.16Q104 23.12 103.04 23.12L103.04 23.12L102.96 23.12L102.96 23.12Q100.32 23.12 97 21.28L97 21.28L97 21.28Q93.68 19.44 93.68 17.04L93.68 17.04L93.68 17.04Q93.68 14.64 96.72 8.68L96.72 8.68L96.72 8.68Q99.76 2.72 99.76 0.72L99.76 0.72L99.76 0.72Q99.76-1.44 97.68-7.04L97.68-7.04L97.68-7.04Q95.04-14.32 93.48-18.88L93.48-18.88L93.48-18.88Q91.92-23.44 90.12-26.92L90.12-26.92L90.12-26.92Q88.32-30.40 87.52-31.04L87.52-31.04L86.72-31.60L86.72-31.60Q85.84-32.08 85.84-32.64L85.84-32.64L85.84-32.64Q85.84-33.76 89.32-34.92L89.32-34.92L89.32-34.92Q92.80-36.08 95.44-36.08L95.44-36.08L95.44-36.08Q96.64-36.08 97.44-34.16L97.44-34.16L97.44-34.16Q98.88-30.40 100.56-23.76L100.56-23.76L100.56-23.76Q104.64-10.16 105.68-10.16L105.68-10.16L105.68-10.16Q106.40-10.16 108.60-15.76L108.60-15.76L108.60-15.76Q110.80-21.36 110.80-24.80L110.80-24.80L110.80-24.80Q110.80-30.80 107.28-31.84L107.28-31.84L107.28-31.84Q106.48-32 106.48-32.64L106.48-32.64L106.48-32.64Q106.48-34.08 110.24-35.40L110.24-35.40L110.24-35.40Q114-36.72 117.04-36.72L117.04-36.72L117.04-36.72Q119.68-36.72 119.68-33.28L119.68-33.28L119.68-33.28Q119.68-30.64 118.56-27.12L118.56-27.12L118.56-27.12Q117.44-23.60 116.48-21.56L116.48-21.56L116.48-21.56Q115.52-19.52 111.72-12.12L111.72-12.12L111.72-12.12Q107.92-4.72 105.44 0.88L105.44 0.88L105.44 0.88Q102.72 7.60 102.72 14.56L102.72 14.56L102.72 14.56Q102.72 18.24 103.36 20.08L103.36 20.08L103.36 20.08Q104 21.92 104 22.16" fill="#0077b5" stroke="none" stroke-width="none" transform="translate(-58.79998779296875,24.41880081176758)" style="fill: rgb(255, 255, 255);"></path></g></g>
</g>
</g>
<style id="bounce-in-5d5f0a2d-8dc7-4ca2-85c7-19a719094da1" data-anikit="">@keyframes bounce-in-5d5f0a2d-8dc7-4ca2-85c7-19a719094da1
{
  0% {
    animation-timing-function: cubic-bezier(0.0383,0.3388,0.0421,0.6652);
    transform: matrix(0.01,0,0,0.01,0,0);
    opacity: 1;
  }
  4.7% {
    animation-timing-function: cubic-bezier(0.3296,0.3336,0.5772,0.6672);
    transform: matrix(0.556,0,0,0.556,0,0);
    opacity: 1;
  }
  8.4% {
    animation-timing-function: cubic-bezier(0.0781,0.1617,0.0874,0.9301);
    transform: matrix(0.979,0,0,0.979,0,0);
    opacity: 1;
  }
  12.4% {
    animation-timing-function: cubic-bezier(0.8341,0.1496,0.8634,0.7673);
    transform: matrix(1.153,0,0,1.153,0,0);
    opacity: 1;
  }
  16.3% {
    animation-timing-function: cubic-bezier(0.3264,0.3332,0.5758,0.6695);
    transform: matrix(1.008,0,0,1.008,0,0);
    opacity: 1;
  }
  21.2% {
    animation-timing-function: cubic-bezier(0.0921,0.1883,0.3277,1);
    transform: matrix(0.704,0,0,0.704,0,0);
    opacity: 1;
  }
  24.5% {
    animation-timing-function: cubic-bezier(0.6905,0.0944,0.8759,0.7624);
    transform: matrix(0.626,0,0,0.626,0,0);
    opacity: 1;
  }
  27.7% {
    animation-timing-function: cubic-bezier(0.3688,0.332,0.624,0.6684);
    transform: matrix(0.704,0,0,0.704,0,0);
    opacity: 1;
  }
  32.6% {
    animation-timing-function: cubic-bezier(0.1368,0.2364,0.2451,0.9049);
    transform: matrix(0.958,0,0,0.958,0,0);
    opacity: 1;
  }
  37.4% {
    animation-timing-function: cubic-bezier(0.5936,0.0846,0.3495,1);
    transform: matrix(1.085,0,0,1.085,0,0);
    opacity: 1;
  }
  49.5% {
    animation-timing-function: cubic-bezier(0.5522,0.0981,0.3807,1);
    transform: matrix(0.802,0,0,0.802,0,0);
    opacity: 1;
  }
  62.4% {
    animation-timing-function: cubic-bezier(0.4497,0.1349,0.4911,1);
    transform: matrix(1.044,0,0,1.044,0,0);
    opacity: 1;
  }
  74.1% {
    animation-timing-function: cubic-bezier(0.429,0,0.5239,1);
    transform: matrix(0.914,0,0,0.914,0,0);
    opacity: 1;
  }
  87% {
    animation-timing-function: cubic-bezier(0.3501,0,0.6422,1);
    transform: matrix(1.013,0,0,1.013,0,0);
    opacity: 1;
  }
  95.8% {
    animation-timing-function: cubic-bezier(0.3653,0,0.6776,1);
    transform: matrix(0.992,0,0,0.992,0,0);
    opacity: 1;
  }
  100% {
    transform: matrix(1,0,0,1,0,0);
    opacity: 1;
  }
}</style></svg>