<?xml version="1.0" encoding="utf-8"?>
<svg xmlns="http://www.w3.org/2000/svg" style="margin: auto; background: none; display: block; shape-rendering: auto;" width="1077" height="250" preserveAspectRatio="xMidYMid">
<style type="text/css">
  text {
    text-anchor: middle; font-size: 158px; opacity: 0;
  }
</style>
<g style="transform-origin: 538.5px 125px; transform: scale(3.29167);">
<g transform="translate(538.5,125)">
  <g transform="translate(0,0)"><g class="path" style="opacity: 1; transform-origin: -84.41px -4.49551px; animation: 1s linear -0.6s infinite normal forwards running fade-cdd6dc83-c6cc-45e2-828f-0adbaf92c905;"><path d="M2.59-18.67L2.59-18.67L2.35-27.74L2.35-27.74Q2.35-29.90 1.87-31.15L1.87-31.15L1.87-31.15Q1.39-32.40 1.39-32.50L1.39-32.50L1.39-32.50Q1.39-33.55 4.63-34.13L4.63-34.13L4.63-34.13Q7.87-34.70 9.58-34.70L9.58-34.70L9.58-34.70Q11.28-34.70 11.42-33.89L11.42-33.89L11.42-33.89Q14.45-20.40 16.51-15.17L16.51-15.17L16.51-15.17Q16.75-14.59 17.02-14.59L17.02-14.59L17.02-14.59Q17.28-14.59 17.47-15.02L17.47-15.02L17.47-15.02Q20.69-24.10 23.14-32.98L23.14-32.98L23.14-32.98Q23.33-33.55 24.10-33.86L24.10-33.86L24.10-33.86Q24.86-34.18 26.76-34.46L26.76-34.46L26.76-34.46Q28.66-34.75 30.53-34.75L30.53-34.75L30.53-34.75Q32.40-34.75 32.40-33.98L32.40-33.98L32.40-33.98Q32.40-33.94 32.26-33.24L32.26-33.24L32.26-33.24Q32.11-32.54 31.97-31.54L31.97-31.54L31.97-31.54Q31.82-30.53 31.63-29.09L31.63-29.09L31.63-29.09Q31.20-25.78 31.08-21.48L31.08-21.48L31.08-21.48Q30.96-17.18 30.96-12.86L30.96-12.86L31.06-7.82L31.06-7.82Q31.06-4.37 31.51-2.90L31.51-2.90L31.51-2.90Q31.97-1.44 31.97-1.22L31.97-1.22L31.97-1.22Q31.97-1.01 31.63-0.72L31.63-0.72L31.63-0.72Q30.14 0.48 27.12 0.48L27.12 0.48L27.12 0.48Q25.20 0.48 24.96-0.82L24.96-0.82L24.96-0.82Q24.82-1.49 24.82-2.95L24.82-2.95L24.82-2.95Q24.82-4.42 25.10-11.95L25.10-11.95L25.10-11.95Q25.39-19.49 25.39-22.92L25.39-22.92L25.39-22.92Q25.39-26.35 25.01-26.35L25.01-26.35L25.01-26.35Q24.96-26.35 24.96-26.33L24.96-26.33L24.96-26.33Q24.96-26.30 24.82-26.26L24.82-26.26L24.82-26.26Q24.67-26.21 24.07-24.77L24.07-24.77L24.07-24.77Q23.47-23.33 21.70-17.66L21.70-17.66L21.70-17.66Q19.92-12 18.48-7.08L18.48-7.08L18.48-7.08Q17.04-2.16 16.90-1.78L16.90-1.78L16.90-1.78Q16.37-0.48 14.88-0.48L14.88-0.48L14.88-0.48Q14.16-0.48 13.73-1.01L13.73-1.01L13.73-1.01Q12.19-8.11 8.26-21.31L8.26-21.31L6.91-25.68L6.91-25.68Q6.82-25.92 6.72-25.92L6.72-25.92L6.72-25.92Q6.48-25.92 6.38-25.58L6.38-25.58L6.38-25.58Q6.19-22.46 6.19-13.32L6.19-13.32L6.19-13.32Q6.19-4.18 6.86-1.78L6.86-1.78L6.86-1.78Q6.91-1.68 6.91-1.49L6.91-1.49L6.91-1.49Q6.91-0.48 5.33-0.02L5.33-0.02L5.33-0.02Q3.74 0.43 2.47 0.43L2.47 0.43L2.47 0.43Q1.20 0.43 1.20-0.14L1.20-0.14L1.20-0.14Q1.20-0.19 1.44-0.91L1.44-0.91L1.44-0.91Q2.16-3.36 2.38-8.02L2.38-8.02L2.38-8.02Q2.59-12.67 2.59-18.67" fill="#0077b5" stroke="none" stroke-width="none" transform="translate(-101.20999145507812,12.639490023526276)" style="fill: rgb(0, 119, 181);"></path></g><g class="path" style="opacity: 1; transform-origin: -58.105px 2.09949px; animation: 1s linear -0.54s infinite normal forwards running fade-cdd6dc83-c6cc-45e2-828f-0adbaf92c905;"><path d="M50.83-14.40L50.83-14.40L50.74-8.26L50.74-8.26Q50.74-1.87 52.13-0.58L52.13-0.58L52.13-0.58Q52.32-0.38 52.32-0.14L52.32-0.14L52.32-0.14Q52.32 0.58 49.22 0.58L49.22 0.58L49.22 0.58Q46.13 0.58 45.94-1.25L45.94-1.25L45.94-1.25Q45.89-1.68 45.89-3.02L45.89-3.02L46.08-10.70L46.08-10.70Q46.08-11.04 45.70-11.04L45.70-11.04L45.70-11.04Q43.39-11.04 41.38-9.74L41.38-9.74L41.38-9.74Q39.36-8.45 39.36-6.43L39.36-6.43L39.36-6.43Q39.36-5.38 39.94-4.66L39.94-4.66L39.94-4.66Q40.51-3.94 41.35-3.94L41.35-3.94L41.35-3.94Q42.19-3.94 42.74-4.27L42.74-4.27L42.74-4.27Q43.30-4.61 43.39-4.66L43.39-4.66L43.39-4.66Q44.21-4.56 44.21-2.95L44.21-2.95L44.21-2.95Q44.21-1.34 42.72-0.36L42.72-0.36L42.72-0.36Q41.23 0.62 39.60 0.62L39.60 0.62L39.60 0.62Q37.97 0.62 36.79 0.05L36.79 0.05L36.79 0.05Q35.62-0.53 35.09-1.25L35.09-1.25L35.09-1.25Q34.56-1.97 34.22-2.88L34.22-2.88L34.22-2.88Q33.89-3.98 33.89-4.80L33.89-4.80L33.89-4.80Q33.89-8.16 36-10.18L36-10.18L36-10.18Q38.11-12.19 41.42-13.06L41.42-13.06L41.42-13.06Q45.79-13.92 45.98-14.64L45.98-14.64L45.98-14.64Q46.13-15.17 46.13-16.42L46.13-16.42L46.13-16.42Q46.13-18.96 43.54-18.96L43.54-18.96L43.54-18.96Q42.43-18.96 41.57-18.26L41.57-18.26L41.57-18.26Q40.70-17.57 40.70-16.51L40.70-16.51L40.99-15.36L40.99-15.36Q40.90-14.54 39.26-14.40L39.26-14.40L38.74-14.35L38.74-14.35Q37.30-14.35 36.46-15.07L36.46-15.07L36.46-15.07Q35.62-15.79 35.62-16.99L35.62-16.99L35.62-16.99Q35.62-17.76 36.12-18.70L36.12-18.70L36.12-18.70Q36.62-19.63 37.39-20.21L37.39-20.21L37.39-20.21Q38.16-20.78 39.77-21.24L39.77-21.24L39.77-21.24Q41.38-21.70 42.86-21.70L42.86-21.70L42.86-21.70Q44.35-21.70 45.17-21.60L45.17-21.60L45.17-21.60Q45.98-21.50 47.40-21.14L47.40-21.14L47.40-21.14Q48.82-20.78 49.75-19.78L49.75-19.78L49.75-19.78Q50.69-18.77 50.76-17.64L50.76-17.64L50.76-17.64Q50.83-16.51 50.83-14.40" fill="#0077b5" stroke="none" stroke-width="none" transform="translate(-101.20999145507812,12.639490023526276)" style="fill: rgb(255, 255, 255);"></path></g><g class="path" style="opacity: 1; transform-origin: -40.635px 2.27449px; animation: 1s linear -0.48s infinite normal forwards running fade-cdd6dc83-c6cc-45e2-828f-0adbaf92c905;"><path d="M68.35-6.58L68.35-6.58L68.35-6.58Q68.35-4.51 67.56-2.98L67.56-2.98L67.56-2.98Q66.77-1.44 65.76-0.72L65.76-0.72L65.76-0.72Q64.75 0 63.36 0.43L63.36 0.43L63.36 0.43Q61.54 1.01 60.05 1.01L60.05 1.01L60.05 1.01Q56.93 1.01 54.86-0.22L54.86-0.22L54.86-0.22Q52.80-1.44 52.80-4.13L52.80-4.13L52.80-4.13Q52.80-5.71 53.66-6.72L53.66-6.72L53.66-6.72Q55.01-8.21 56.88-8.21L56.88-8.21L56.88-8.21Q57.46-8.21 57.46-7.68L57.46-7.68L57.46-7.68Q57.46-7.63 57.24-6.94L57.24-6.94L57.24-6.94Q57.02-6.24 57.02-5.18L57.02-5.18L57.02-5.18Q57.02-4.13 57.86-3.31L57.86-3.31L57.86-3.31Q58.70-2.50 59.90-2.50L59.90-2.50L59.90-2.50Q61.10-2.50 61.82-2.90L61.82-2.90L61.82-2.90Q62.54-3.31 62.83-3.94L62.83-3.94L62.83-3.94Q63.26-4.80 63.26-5.57L63.26-5.57L63.26-5.57Q63.26-6.96 61.87-7.97L61.87-7.97L61.87-7.97Q60.48-8.98 58.80-9.55L58.80-9.55L58.80-9.55Q57.12-10.13 55.73-11.47L55.73-11.47L55.73-11.47Q54.34-12.82 54.34-14.83L54.34-14.83L54.34-14.83Q54.34-18.29 56.52-20.02L56.52-20.02L56.52-20.02Q58.70-21.74 62.45-21.74L62.45-21.74L62.45-21.74Q64.08-21.74 65.88-21.29L65.88-21.29L65.88-21.29Q67.68-20.83 67.68-19.75L67.68-19.75L67.68-19.75Q67.68-18.67 67.32-17.76L67.32-17.76L67.32-17.76Q66.96-16.85 66.43-16.85L66.43-16.85L66.43-16.85Q66.14-16.85 66.05-17.06L66.05-17.06L66.05-17.06Q65.95-17.28 65.71-17.57L65.71-17.57L65.71-17.57Q65.47-17.86 64.56-18.31L64.56-18.31L64.56-18.31Q63.65-18.77 63-18.77L63-18.77L63-18.77Q62.35-18.77 62.14-18.74L62.14-18.74L62.14-18.74Q61.92-18.72 61.39-18.60L61.39-18.60L61.39-18.60Q60.86-18.48 60.43-18.24L60.43-18.24L60.43-18.24Q59.33-17.62 59.33-16.42L59.33-16.42L59.33-16.42Q59.33-15.65 59.66-15.29L59.66-15.29L59.66-15.29Q60-14.93 60.19-14.74L60.19-14.74L60.19-14.74Q60.38-14.54 60.86-14.28L60.86-14.28L60.86-14.28Q61.34-14.02 61.54-13.92L61.54-13.92L61.54-13.92Q61.73-13.82 62.40-13.51L62.40-13.51L62.40-13.51Q63.07-13.20 63.26-13.10L63.26-13.10L63.26-13.10Q68.35-10.70 68.35-6.58" fill="#0077b5" stroke="none" stroke-width="none" transform="translate(-101.20999145507812,12.639490023526276)" style="fill: rgb(0, 119, 181);"></path></g><g class="path" style="opacity: 1; transform-origin: -26.285px -0.77551px; animation: 1s linear -0.42s infinite normal forwards running fade-cdd6dc83-c6cc-45e2-828f-0adbaf92c905;"><path d="M69.55-18.72L69.55-18.72L69.70-20.64L69.70-20.64Q69.74-21.07 70.37-21.07L70.37-21.07L72.05-21.07L71.86-24.91L71.86-25.10L71.86-25.10Q71.86-26.21 73.54-27.22L73.54-27.22L73.54-27.22Q75.22-28.22 76.61-28.22L76.61-28.22L76.61-28.22Q77.04-28.22 77.04-27.84L77.04-27.84L77.04-27.79L77.04-27.79Q76.85-26.50 76.66-21.12L76.66-21.12L76.66-21.12Q78.77-21.12 79.34-21.22L79.34-21.22L79.34-21.22Q79.92-21.31 79.97-21.31L79.97-21.31L79.97-21.31Q80.30-21.31 80.30-20.74L80.30-20.74L80.30-20.74Q80.30-20.16 79.78-19.27L79.78-19.27L79.78-19.27Q79.25-18.38 78.62-18.34L78.62-18.34L76.61-18.34L76.61-18.34Q76.56-16.70 76.56-12.84L76.56-12.84L76.56-12.84Q76.56-8.98 76.63-6.48L76.63-6.48L76.63-6.48Q76.70-3.98 76.80-2.71L76.80-2.71L76.80-2.71Q76.90-1.44 77.02-0.67L77.02-0.67L77.02-0.67Q77.14 0.10 77.21 0.43L77.21 0.43L77.21 0.43Q77.28 0.77 77.28 0.86L77.28 0.86L77.28 0.86Q77.28 1.34 76.66 1.39L76.66 1.39L76.66 1.39Q74.78 1.39 72.94 0.86L72.94 0.86L72.94 0.86Q71.09 0.34 71.09-0.96L71.09-0.96L71.09-0.96Q72.10-9.02 72.10-18.29L72.10-18.29L72.10-18.29Q70.80-18.29 70.13-18.19L70.13-18.19L70.08-18.19L70.08-18.19Q69.65-18.19 69.55-18.72" fill="#0077b5" stroke="none" stroke-width="none" transform="translate(-101.20999145507812,12.639490023526276)" style="fill: rgb(255, 255, 255);"></path></g><g class="path" style="opacity: 1; transform-origin: -13.155px 2.19949px; animation: 1s linear -0.36s infinite normal forwards running fade-cdd6dc83-c6cc-45e2-828f-0adbaf92c905;"><path d="M85.10-12.19L85.10-12.19L85.15-10.99L85.15-10.99Q85.15-10.70 85.54-10.70L85.54-10.70L85.54-10.70Q87.07-10.85 88.22-11.50L88.22-11.50L88.22-11.50Q89.38-12.14 89.95-12.96L89.95-12.96L89.95-12.96Q91.10-14.74 91.20-16.03L91.20-16.03L91.25-16.61L91.25-16.61Q91.25-19.20 89.18-19.20L89.18-19.20L89.18-19.20Q87.65-19.20 86.69-17.86L86.69-17.86L86.69-17.86Q85.10-15.74 85.10-12.19zM95.57-5.81L95.57-5.81L95.57-5.81Q95.57-3.98 94.82-2.62L94.82-2.62L94.82-2.62Q94.08-1.25 93.14-0.60L93.14-0.60L93.14-0.60Q92.21 0.05 90.96 0.43L90.96 0.43L90.96 0.43Q89.38 0.91 87.94 0.91L87.94 0.91L87.94 0.91Q83.90 0.91 81.98-2.11L81.98-2.11L81.98-2.11Q80.06-5.14 80.06-9.82L80.06-9.82L80.06-9.82Q80.06-14.50 82.44-18.14L82.44-18.14L82.44-18.14Q84.82-21.79 89.57-21.79L89.57-21.79L89.57-21.79Q93.89-21.79 95.42-18.77L95.42-18.77L95.42-18.77Q96.05-17.62 96.05-16.58L96.05-16.58L96.05-16.58Q96.05-15.55 95.95-14.95L95.95-14.95L95.95-14.95Q95.86-14.35 95.28-13.15L95.28-13.15L95.28-13.15Q94.70-11.95 93.74-10.99L93.74-10.99L93.74-10.99Q92.78-10.03 90.72-9.17L90.72-9.17L90.72-9.17Q88.66-8.30 85.87-8.02L85.87-8.02L85.87-8.02Q85.49-8.02 85.49-7.68L85.49-7.68L85.49-7.68Q85.49-7.25 85.80-6.41L85.80-6.41L85.80-6.41Q86.11-5.57 86.50-4.99L86.50-4.99L86.50-4.99Q87.55-3.65 89.62-3.65L89.62-3.65L89.62-3.65Q91.68-3.65 93.12-4.99L93.12-4.99L93.12-4.99Q93.89-5.71 94.37-6.77L94.37-6.77L94.37-6.77Q94.56-7.15 94.87-7.15L94.87-7.15L94.87-7.15Q95.18-7.15 95.38-6.62L95.38-6.62L95.38-6.62Q95.57-6.10 95.57-5.81" fill="#0077b5" stroke="none" stroke-width="none" transform="translate(-101.20999145507812,12.639490023526276)" style="fill: rgb(0, 119, 181);"></path></g><g class="path" style="opacity: 1; transform-origin: 3.96001px 2.10449px; animation: 1s linear -0.3s infinite normal forwards running fade-cdd6dc83-c6cc-45e2-828f-0adbaf92c905;"><path d="M112.61-16.51L112.37-12.86L112.56-11.18L112.56-11.18Q112.56-10.27 110.83-10.27L110.83-10.27L110.83-10.27Q107.33-10.27 107.33-12.91L107.33-12.91L107.33-12.91Q107.33-13.54 107.66-14.64L107.66-14.64L107.66-14.64Q108.00-15.74 108.00-16.56L108.00-16.56L108.00-16.56Q108.00-17.38 107.52-17.98L107.52-17.98L107.52-17.98Q107.04-18.58 106.13-18.58L106.13-18.58L106.13-18.58Q105.22-18.58 104.57-17.93L104.57-17.93L104.57-17.93Q103.92-17.28 103.78-16.61L103.78-16.61L103.58-15.94L103.58-15.94Q103.30-14.45 103.30-10.97L103.30-10.97L103.30-10.97Q103.30-7.49 103.39-5.50L103.39-5.50L103.39-5.50Q103.49-3.50 103.58-2.76L103.58-2.76L103.58-2.76Q103.68-2.02 103.68-1.87L103.68-1.87L103.68-1.87Q103.68-0.67 102.19 0.07L102.19 0.07L102.19 0.07Q100.70 0.82 99.22 0.82L99.22 0.82L99.22 0.82Q97.73 0.82 97.73 0.19L97.73 0.19L97.97-1.30L97.97-1.30Q98.64-5.47 98.64-12.19L98.64-12.19L98.64-12.19Q98.64-18.91 98.16-21.31L98.16-21.31L98.16-21.31Q98.16-21.89 99.17-21.89L99.17-21.89L99.17-21.89Q101.76-21.89 102.62-20.11L102.62-20.11L102.62-20.11Q102.67-19.92 102.79-19.92L102.79-19.92L102.79-19.92Q102.91-19.92 103.44-20.35L103.44-20.35L103.44-20.35Q105.02-21.65 107.18-21.65L107.18-21.65L107.18-21.65Q108.53-21.65 109.87-21.12L109.87-21.12L109.87-21.12Q112.61-20.02 112.61-16.51L112.61-16.51" fill="#0077b5" stroke="none" stroke-width="none" transform="translate(-101.20999145507812,12.639490023526276)" style="fill: rgb(255, 255, 255);"></path></g><g class="path" style="opacity: 1; transform-origin: 37.56px -4.49551px; animation: 1s linear -0.24s infinite normal forwards running fade-cdd6dc83-c6cc-45e2-828f-0adbaf92c905;"><path d="M124.56-18.67L124.56-18.67L124.32-27.74L124.32-27.74Q124.32-29.90 123.84-31.15L123.84-31.15L123.84-31.15Q123.36-32.40 123.36-32.50L123.36-32.50L123.36-32.50Q123.36-33.55 126.60-34.13L126.60-34.13L126.60-34.13Q129.84-34.70 131.54-34.70L131.54-34.70L131.54-34.70Q133.25-34.70 133.39-33.89L133.39-33.89L133.39-33.89Q136.42-20.40 138.48-15.17L138.48-15.17L138.48-15.17Q138.72-14.59 138.98-14.59L138.98-14.59L138.98-14.59Q139.25-14.59 139.44-15.02L139.44-15.02L139.44-15.02Q142.66-24.10 145.10-32.98L145.10-32.98L145.10-32.98Q145.30-33.55 146.06-33.86L146.06-33.86L146.06-33.86Q146.83-34.18 148.73-34.46L148.73-34.46L148.73-34.46Q150.62-34.75 152.50-34.75L152.50-34.75L152.50-34.75Q154.37-34.75 154.37-33.98L154.37-33.98L154.37-33.98Q154.37-33.94 154.22-33.24L154.22-33.24L154.22-33.24Q154.08-32.54 153.94-31.54L153.94-31.54L153.94-31.54Q153.79-30.53 153.60-29.09L153.60-29.09L153.60-29.09Q153.17-25.78 153.05-21.48L153.05-21.48L153.05-21.48Q152.93-17.18 152.93-12.86L152.93-12.86L153.02-7.82L153.02-7.82Q153.02-4.37 153.48-2.90L153.48-2.90L153.48-2.90Q153.94-1.44 153.94-1.22L153.94-1.22L153.94-1.22Q153.94-1.01 153.60-0.72L153.60-0.72L153.60-0.72Q152.11 0.48 149.09 0.48L149.09 0.48L149.09 0.48Q147.17 0.48 146.93-0.82L146.93-0.82L146.93-0.82Q146.78-1.49 146.78-2.95L146.78-2.95L146.78-2.95Q146.78-4.42 147.07-11.95L147.07-11.95L147.07-11.95Q147.36-19.49 147.36-22.92L147.36-22.92L147.36-22.92Q147.36-26.35 146.98-26.35L146.98-26.35L146.98-26.35Q146.93-26.35 146.93-26.33L146.93-26.33L146.93-26.33Q146.93-26.30 146.78-26.26L146.78-26.26L146.78-26.26Q146.64-26.21 146.04-24.77L146.04-24.77L146.04-24.77Q145.44-23.33 143.66-17.66L143.66-17.66L143.66-17.66Q141.89-12 140.45-7.08L140.45-7.08L140.45-7.08Q139.01-2.16 138.86-1.78L138.86-1.78L138.86-1.78Q138.34-0.48 136.85-0.48L136.85-0.48L136.85-0.48Q136.13-0.48 135.70-1.01L135.70-1.01L135.70-1.01Q134.16-8.11 130.22-21.31L130.22-21.31L128.88-25.68L128.88-25.68Q128.78-25.92 128.69-25.92L128.69-25.92L128.69-25.92Q128.45-25.92 128.35-25.58L128.35-25.58L128.35-25.58Q128.16-22.46 128.16-13.32L128.16-13.32L128.16-13.32Q128.16-4.18 128.83-1.78L128.83-1.78L128.83-1.78Q128.88-1.68 128.88-1.49L128.88-1.49L128.88-1.49Q128.88-0.48 127.30-0.02L127.30-0.02L127.30-0.02Q125.71 0.43 124.44 0.43L124.44 0.43L124.44 0.43Q123.17 0.43 123.17-0.14L123.17-0.14L123.17-0.14Q123.17-0.19 123.41-0.91L123.41-0.91L123.41-0.91Q124.13-3.36 124.34-8.02L124.34-8.02L124.34-8.02Q124.56-12.67 124.56-18.67" fill="#0077b5" stroke="none" stroke-width="none" transform="translate(-101.20999145507812,12.639490023526276)" style="fill: rgb(0, 119, 181);"></path></g><g class="path" style="opacity: 1; transform-origin: 59.64px -15.0305px; animation: 1s linear -0.18s infinite normal forwards running fade-cdd6dc83-c6cc-45e2-828f-0adbaf92c905;"><path d="M161.71-25.68L161.71-25.68L160.56-25.73L160.56-25.73Q159.26-25.73 158.88-25.10L158.88-25.10L158.88-25.10Q158.78-24.96 158.64-24.96L158.64-24.96L158.64-24.96Q158.02-24.96 158.02-27.10L158.02-27.10L158.02-27.10Q158.02-29.23 158.66-29.81L158.66-29.81L158.66-29.81Q159.31-30.38 160.92-30.38L160.92-30.38L160.92-30.38Q162.53-30.38 163.10-29.83L163.10-29.83L163.10-29.83Q163.68-29.28 163.68-27.98L163.68-27.98L163.68-27.98Q163.68-26.69 163.25-26.18L163.25-26.18L163.25-26.18Q162.82-25.68 161.71-25.68" fill="#0077b5" stroke="none" stroke-width="none" transform="translate(-101.20999145507812,12.639490023526276)" style="fill: rgb(255, 255, 255);"></path></g><g class="path" style="opacity: 1; transform-origin: 59.015px 2.34449px; animation: 1s linear -0.12s infinite normal forwards running fade-cdd6dc83-c6cc-45e2-828f-0adbaf92c905;"><path d="M157.87-1.44L157.87-1.44L158.40-12.62L158.40-12.62Q158.40-16.61 157.49-18.05L157.49-18.05L157.49-18.05Q157.20-18.53 156.82-18.77L156.82-18.77L156.82-18.77Q156.53-18.86 156.53-19.15L156.53-19.15L156.53-19.15Q156.53-20.02 158.98-20.83L158.98-20.83L158.98-20.83Q161.42-21.65 162.55-21.65L162.55-21.65L162.55-21.65Q163.68-21.65 163.73-21.07L163.73-21.07L163.73-21.07Q163.73-20.11 163.46-15.62L163.46-15.62L163.46-15.62Q163.20-11.14 163.20-6.19L163.20-6.19L163.20-6.19Q163.20-1.25 163.78-0.05L163.78-0.05L163.78-0.05Q163.92 0.19 163.92 0.43L163.92 0.43L163.92 0.43Q163.92 1.06 162.10 1.06L162.10 1.06L162.10 1.06Q160.27 1.06 158.35 0.10L158.35 0.10L158.35 0.10Q157.87-0.14 157.87-1.44" fill="#0077b5" stroke="none" stroke-width="none" transform="translate(-101.20999145507812,12.639490023526276)" style="fill: rgb(0, 119, 181);"></path></g><g class="path" style="opacity: 1; transform-origin: 74.425px 2.14949px; animation: 1s linear -0.06s infinite normal forwards running fade-cdd6dc83-c6cc-45e2-828f-0adbaf92c905;"><path d="M166.85 0.34L166.85 0.34L166.85 0.34Q167.71-4.85 167.71-12.10L167.71-12.10L167.71-12.10Q167.71-19.34 167.28-21.50L167.28-21.50L167.28-21.50Q167.28-22.13 168.72-22.13L168.72-22.13L168.72-22.13Q170.93-22.13 171.65-20.45L171.65-20.45L171.65-20.45Q171.70-20.30 171.89-20.30L171.89-20.30L171.89-20.30Q172.08-20.30 172.18-20.40L172.18-20.40L172.18-20.40Q173.66-21.94 176.78-21.94L176.78-21.94L176.78-21.94Q179.90-21.94 181.73-20.35L181.73-20.35L181.73-20.35Q183.55-18.77 183.55-15.74L183.55-15.74L183.55-15.74Q183.55-13.92 183.24-10.56L183.24-10.56L183.24-10.56Q182.93-7.20 182.93-5.57L182.93-5.57L182.93-5.57Q182.93-1.68 184.22 0.05L184.22 0.05L184.22 0.05Q184.42 0.29 184.42 0.53L184.42 0.53L184.42 0.53Q184.42 1.15 183.07 1.15L183.07 1.15L183.07 1.15Q177.12 1.15 177.12-4.13L177.12-4.13L177.12-4.13Q177.12-6.14 178.03-9.74L178.03-9.74L178.03-9.74Q178.94-13.34 178.94-15.22L178.94-15.22L178.94-15.22Q178.94-19.06 175.78-19.06L175.78-19.06L175.78-19.06Q174.24-19.06 173.45-18.14L173.45-18.14L173.45-18.14Q172.66-17.23 172.56-16.06L172.56-16.06L172.56-16.06Q172.46-14.88 172.46-11.62L172.46-11.62L172.46-11.62Q172.46-6.62 172.80-2.93L172.80-2.93L172.90-1.87L172.90-1.87Q172.90-0.53 171.14 0.22L171.14 0.22L171.14 0.22Q169.39 0.96 168.12 0.96L168.12 0.96L168.12 0.96Q166.85 0.96 166.85 0.34" fill="#0077b5" stroke="none" stroke-width="none" transform="translate(-101.20999145507812,12.639490023526276)" style="fill: rgb(255, 255, 255);"></path></g><g class="path" style="opacity: 1; transform-origin: 93.48px -3.75551px; animation: 1s linear 0s infinite normal forwards running fade-cdd6dc83-c6cc-45e2-828f-0adbaf92c905;"><path d="M195.60-21.55L195.60-21.55L195.60-21.55Q196.46-21.55 197.16-21.34L197.16-21.34L197.16-21.34Q197.86-21.12 197.90-21.12L197.90-21.12L198.19-21.36L198-26.59L198-26.59Q197.90-27.94 197.42-28.90L197.42-28.90L197.42-28.90Q196.94-29.86 196.56-30.14L196.56-30.14L196.13-30.38L196.13-30.38Q195.84-30.58 195.84-30.82L195.84-30.82L195.84-30.82Q195.84-31.54 198.07-32.50L198.07-32.50L198.07-32.50Q200.30-33.46 201.55-33.46L201.55-33.46L201.55-33.46Q202.80-33.46 202.90-32.93L202.90-32.93L202.90-32.93Q203.14-31.30 203.14-26.71L203.14-26.71L203.14-26.71Q203.14-22.13 202.92-17.71L202.92-17.71L202.92-17.71Q202.70-13.30 202.70-7.70L202.70-7.70L202.70-7.70Q202.70-2.11 203.42-0.67L203.42-0.67L203.42-0.67Q203.62-0.34 203.62-0.05L203.62-0.05L203.62-0.05Q203.62 0.67 201.55 0.67L201.55 0.67L201.55 0.67Q197.62 0.67 197.62-1.20L197.62-1.20L197.62-1.20Q197.52-1.97 197.52-3.58L197.52-3.58L197.52-3.58Q197.52-5.18 197.83-9.58L197.83-9.58L197.83-9.58Q198.14-13.97 198.14-16.34L198.14-16.34L198.14-16.34Q198.14-18.72 195.77-18.72L195.77-18.72L195.77-18.72Q193.39-18.72 192.14-15.94L192.14-15.94L192.14-15.94Q190.90-13.15 190.90-10.37L190.90-10.37L190.90-10.37Q190.90-4.46 193.87-4.46L193.87-4.46L193.87-4.46Q194.30-4.46 194.71-4.63L194.71-4.63L194.71-4.63Q195.12-4.80 195.22-4.80L195.22-4.80L195.22-4.80Q195.60-4.80 195.82-4.32L195.82-4.32L195.82-4.32Q196.03-3.84 196.03-3.36L196.03-3.36L196.03-3.36Q196.03-1.73 194.74-0.60L194.74-0.60L194.74-0.60Q193.44 0.53 191.57 0.53L191.57 0.53L191.57 0.53Q188.69 0.53 187.22-1.99L187.22-1.99L187.22-1.99Q185.76-4.51 185.76-8.26L185.76-8.26L185.76-8.26Q185.76-13.01 188.02-17.09L188.02-17.09L188.02-17.09Q189.17-19.10 191.14-20.33L191.14-20.33L191.14-20.33Q193.10-21.55 195.60-21.55" fill="#0077b5" stroke="none" stroke-width="none" transform="translate(-101.20999145507812,12.639490023526276)" style="fill: rgb(0, 119, 181);"></path></g></g>
</g>
</g>
<style id="fade-cdd6dc83-c6cc-45e2-828f-0adbaf92c905" data-anikit="">@keyframes fade-cdd6dc83-c6cc-45e2-828f-0adbaf92c905
{
  0% {
    animation-timing-function: cubic-bezier(0.2057,0.573,0.3723,0.9184);
    opacity: 1;
  }
  100% {
    opacity: 0;
  }
}</style></svg>